0
SECTION
2
HEADER
9
$INSUNITS
70
4
9
$INSBASE
10
0.0
20
0.0
30
0.0
9
$EXTMIN
10
0
20
0
9
$EXTMAX
10
494.25
20
100
0
ENDSEC
0
SECTION
2
TABLES
0
TABLE
2
LTYPE
70
1
0
LTYPE
2
CONTINUOUS
70
64
3
Solid line
72
65
73
0
40
0.0
0
ENDTAB
0
TABLE
2
LAYER
70
1
0
LAYER
2
Layer1
70
64
62
7
6
CONTINUOUS
0
ENDTAB
0
TABLE
2
STYLE
70
0
0
ENDTAB
0
TABLE
2
VIEW
70
0
0
ENDTAB
0
ENDSEC
0
SECTION
2
BLOCKS
0
ENDSEC
0
SECTION
2
ENTITIES
0
POLYLINE
5
3e8
8
Layer1
66
1
10
0.0
20
0.0
30
0.0
70
1
0
VERTEX
5
3e9
8
Layer1
10
0.0000
20
0.0000
30
0.0
0
VERTEX
5
3ea
8
Layer1
10
494.2500
20
0.0000
30
0.0
0
VERTEX
5
3eb
8
Layer1
10
494.2500
20
100.0000
30
0.0
0
VERTEX
5
3ec
8
Layer1
10
0.0000
20
100.0000
30
0.0
0
VERTEX
5
3ed
8
Layer1
10
0.0000
20
0.0000
30
0.0
0
SEQEND
5
3ee
8
Layer1
0
POLYLINE
5
3ef
8
Layer1
66
1
10
0.0
20
0.0
30
0.0
70
1
0
VERTEX
5
3f0
8
Layer1
10
19.0000
20
82.0000
30
0.0
0
VERTEX
5
3f1
8
Layer1
10
19.8000
20
82.0000
30
0.0
0
VERTEX
5
3f2
8
Layer1
10
19.8000
20
85.5000
30
0.0
0
VERTEX
5
3f3
8
Layer1
10
19.0000
20
85.5000
30
0.0
0
VERTEX
5
3f4
8
Layer1
10
19.0000
20
90.5000
30
0.0
0
VERTEX
5
3f5
8
Layer1
10
19.8000
20
90.5000
30
0.0
0
VERTEX
5
3f6
8
Layer1
10
19.8000
20
94.0000
30
0.0
0
VERTEX
5
3f7
8
Layer1
10
19.0000
20
94.0000
30
0.0
0
VERTEX
5
3f8
8
Layer1
10
19.0000
20
95.0000
30
0.0
0
VERTEX
5
3f9
8
Layer1
10
5.0000
20
95.0000
30
0.0
0
VERTEX
5
3fa
8
Layer1
10
5.0000
20
94.0000
30
0.0
0
VERTEX
5
3fb
8
Layer1
10
4.2000
20
94.0000
30
0.0
0
VERTEX
5
3fc
8
Layer1
10
4.2000
20
90.5000
30
0.0
0
VERTEX
5
3fd
8
Layer1
10
5.0000
20
90.5000
30
0.0
0
VERTEX
5
3fe
8
Layer1
10
5.0000
20
85.5000
30
0.0
0
VERTEX
5
3ff
8
Layer1
10
4.2000
20
85.5000
30
0.0
0
VERTEX
5
400
8
Layer1
10
4.2000
20
82.0000
30
0.0
0
VERTEX
5
401
8
Layer1
10
5.0000
20
82.0000
30
0.0
0
VERTEX
5
402
8
Layer1
10
5.0000
20
81.0000
30
0.0
0
VERTEX
5
403
8
Layer1
10
19.0000
20
81.0000
30
0.0
0
VERTEX
5
404
8
Layer1
10
19.0000
20
82.0000
30
0.0
0
SEQEND
5
405
8
Layer1
0
POLYLINE
5
406
8
Layer1
66
1
10
0.0
20
0.0
30
0.0
70
1
0
VERTEX
5
407
8
Layer1
10
38.0000
20
82.0000
30
0.0
0
VERTEX
5
408
8
Layer1
10
38.8000
20
82.0000
30
0.0
0
VERTEX
5
409
8
Layer1
10
38.8000
20
85.5000
30
0.0
0
VERTEX
5
40a
8
Layer1
10
38.0000
20
85.5000
30
0.0
0
VERTEX
5
40b
8
Layer1
10
38.0000
20
90.5000
30
0.0
0
VERTEX
5
40c
8
Layer1
10
38.8000
20
90.5000
30
0.0
0
VERTEX
5
40d
8
Layer1
10
38.8000
20
94.0000
30
0.0
0
VERTEX
5
40e
8
Layer1
10
38.0000
20
94.0000
30
0.0
0
VERTEX
5
40f
8
Layer1
10
38.0000
20
95.0000
30
0.0
0
VERTEX
5
410
8
Layer1
10
24.0000
20
95.0000
30
0.0
0
VERTEX
5
411
8
Layer1
10
24.0000
20
94.0000
30
0.0
0
VERTEX
5
412
8
Layer1
10
23.2000
20
94.0000
30
0.0
0
VERTEX
5
413
8
Layer1
10
23.2000
20
90.5000
30
0.0
0
VERTEX
5
414
8
Layer1
10
24.0000
20
90.5000
30
0.0
0
VERTEX
5
415
8
Layer1
10
24.0000
20
85.5000
30
0.0
0
VERTEX
5
416
8
Layer1
10
23.2000
20
85.5000
30
0.0
0
VERTEX
5
417
8
Layer1
10
23.2000
20
82.0000
30
0.0
0
VERTEX
5
418
8
Layer1
10
24.0000
20
82.0000
30
0.0
0
VERTEX
5
419
8
Layer1
10
24.0000
20
81.0000
30
0.0
0
VERTEX
5
41a
8
Layer1
10
38.0000
20
81.0000
30
0.0
0
VERTEX
5
41b
8
Layer1
10
38.0000
20
82.0000
30
0.0
0
SEQEND
5
41c
8
Layer1
0
POLYLINE
5
41d
8
Layer1
66
1
10
0.0
20
0.0
30
0.0
70
1
0
VERTEX
5
41e
8
Layer1
10
57.0000
20
82.0000
30
0.0
0
VERTEX
5
41f
8
Layer1
10
57.8000
20
82.0000
30
0.0
0
VERTEX
5
420
8
Layer1
10
57.8000
20
85.5000
30
0.0
0
VERTEX
5
421
8
Layer1
10
57.0000
20
85.5000
30
0.0
0
VERTEX
5
422
8
Layer1
10
57.0000
20
90.5000
30
0.0
0
VERTEX
5
423
8
Layer1
10
57.8000
20
90.5000
30
0.0
0
VERTEX
5
424
8
Layer1
10
57.8000
20
94.0000
30
0.0
0
VERTEX
5
425
8
Layer1
10
57.0000
20
94.0000
30
0.0
0
VERTEX
5
426
8
Layer1
10
57.0000
20
95.0000
30
0.0
0
VERTEX
5
427
8
Layer1
10
43.0000
20
95.0000
30
0.0
0
VERTEX
5
428
8
Layer1
10
43.0000
20
94.0000
30
0.0
0
VERTEX
5
429
8
Layer1
10
42.2000
20
94.0000
30
0.0
0
VERTEX
5
42a
8
Layer1
10
42.2000
20
90.5000
30
0.0
0
VERTEX
5
42b
8
Layer1
10
43.0000
20
90.5000
30
0.0
0
VERTEX
5
42c
8
Layer1
10
43.0000
20
85.5000
30
0.0
0
VERTEX
5
42d
8
Layer1
10
42.2000
20
85.5000
30
0.0
0
VERTEX
5
42e
8
Layer1
10
42.2000
20
82.0000
30
0.0
0
VERTEX
5
42f
8
Layer1
10
43.0000
20
82.0000
30
0.0
0
VERTEX
5
430
8
Layer1
10
43.0000
20
81.0000
30
0.0
0
VERTEX
5
431
8
Layer1
10
57.0000
20
81.0000
30
0.0
0
VERTEX
5
432
8
Layer1
10
57.0000
20
82.0000
30
0.0
0
SEQEND
5
433
8
Layer1
0
POLYLINE
5
434
8
Layer1
66
1
10
0.0
20
0.0
30
0.0
70
1
0
VERTEX
5
435
8
Layer1
10
80.7500
20
82.0000
30
0.0
0
VERTEX
5
436
8
Layer1
10
81.5500
20
82.0000
30
0.0
0
VERTEX
5
437
8
Layer1
10
81.5500
20
85.5000
30
0.0
0
VERTEX
5
438
8
Layer1
10
80.7500
20
85.5000
30
0.0
0
VERTEX
5
439
8
Layer1
10
80.7500
20
90.5000
30
0.0
0
VERTEX
5
43a
8
Layer1
10
81.5500
20
90.5000
30
0.0
0
VERTEX
5
43b
8
Layer1
10
81.5500
20
94.0000
30
0.0
0
VERTEX
5
43c
8
Layer1
10
80.7500
20
94.0000
30
0.0
0
VERTEX
5
43d
8
Layer1
10
80.7500
20
95.0000
30
0.0
0
VERTEX
5
43e
8
Layer1
10
66.7500
20
95.0000
30
0.0
0
VERTEX
5
43f
8
Layer1
10
66.7500
20
94.0000
30
0.0
0
VERTEX
5
440
8
Layer1
10
65.9500
20
94.0000
30
0.0
0
VERTEX
5
441
8
Layer1
10
65.9500
20
90.5000
30
0.0
0
VERTEX
5
442
8
Layer1
10
66.7500
20
90.5000
30
0.0
0
VERTEX
5
443
8
Layer1
10
66.7500
20
85.5000
30
0.0
0
VERTEX
5
444
8
Layer1
10
65.9500
20
85.5000
30
0.0
0
VERTEX
5
445
8
Layer1
10
65.9500
20
82.0000
30
0.0
0
VERTEX
5
446
8
Layer1
10
66.7500
20
82.0000
30
0.0
0
VERTEX
5
447
8
Layer1
10
66.7500
20
81.0000
30
0.0
0
VERTEX
5
448
8
Layer1
10
80.7500
20
81.0000
30
0.0
0
VERTEX
5
449
8
Layer1
10
80.7500
20
82.0000
30
0.0
0
SEQEND
5
44a
8
Layer1
0
POLYLINE
5
44b
8
Layer1
66
1
10
0.0
20
0.0
30
0.0
70
1
0
VERTEX
5
44c
8
Layer1
10
99.7500
20
82.0000
30
0.0
0
VERTEX
5
44d
8
Layer1
10
100.5500
20
82.0000
30
0.0
0
VERTEX
5
44e
8
Layer1
10
100.5500
20
85.5000
30
0.0
0
VERTEX
5
44f
8
Layer1
10
99.7500
20
85.5000
30
0.0
0
VERTEX
5
450
8
Layer1
10
99.7500
20
90.5000
30
0.0
0
VERTEX
5
451
8
Layer1
10
100.5500
20
90.5000
30
0.0
0
VERTEX
5
452
8
Layer1
10
100.5500
20
94.0000
30
0.0
0
VERTEX
5
453
8
Layer1
10
99.7500
20
94.0000
30
0.0
0
VERTEX
5
454
8
Layer1
10
99.7500
20
95.0000
30
0.0
0
VERTEX
5
455
8
Layer1
10
85.7500
20
95.0000
30
0.0
0
VERTEX
5
456
8
Layer1
10
85.7500
20
94.0000
30
0.0
0
VERTEX
5
457
8
Layer1
10
84.9500
20
94.0000
30
0.0
0
VERTEX
5
458
8
Layer1
10
84.9500
20
90.5000
30
0.0
0
VERTEX
5
459
8
Layer1
10
85.7500
20
90.5000
30
0.0
0
VERTEX
5
45a
8
Layer1
10
85.7500
20
85.5000
30
0.0
0
VERTEX
5
45b
8
Layer1
10
84.9500
20
85.5000
30
0.0
0
VERTEX
5
45c
8
Layer1
10
84.9500
20
82.0000
30
0.0
0
VERTEX
5
45d
8
Layer1
10
85.7500
20
82.0000
30
0.0
0
VERTEX
5
45e
8
Layer1
10
85.7500
20
81.0000
30
0.0
0
VERTEX
5
45f
8
Layer1
10
99.7500
20
81.0000
30
0.0
0
VERTEX
5
460
8
Layer1
10
99.7500
20
82.0000
30
0.0
0
SEQEND
5
461
8
Layer1
0
POLYLINE
5
462
8
Layer1
66
1
10
0.0
20
0.0
30
0.0
70
1
0
VERTEX
5
463
8
Layer1
10
118.7500
20
82.0000
30
0.0
0
VERTEX
5
464
8
Layer1
10
119.5500
20
82.0000
30
0.0
0
VERTEX
5
465
8
Layer1
10
119.5500
20
85.5000
30
0.0
0
VERTEX
5
466
8
Layer1
10
118.7500
20
85.5000
30
0.0
0
VERTEX
5
467
8
Layer1
10
118.7500
20
90.5000
30
0.0
0
VERTEX
5
468
8
Layer1
10
119.5500
20
90.5000
30
0.0
0
VERTEX
5
469
8
Layer1
10
119.5500
20
94.0000
30
0.0
0
VERTEX
5
46a
8
Layer1
10
118.7500
20
94.0000
30
0.0
0
VERTEX
5
46b
8
Layer1
10
118.7500
20
95.0000
30
0.0
0
VERTEX
5
46c
8
Layer1
10
104.7500
20
95.0000
30
0.0
0
VERTEX
5
46d
8
Layer1
10
104.7500
20
94.0000
30
0.0
0
VERTEX
5
46e
8
Layer1
10
103.9500
20
94.0000
30
0.0
0
VERTEX
5
46f
8
Layer1
10
103.9500
20
90.5000
30
0.0
0
VERTEX
5
470
8
Layer1
10
104.7500
20
90.5000
30
0.0
0
VERTEX
5
471
8
Layer1
10
104.7500
20
85.5000
30
0.0
0
VERTEX
5
472
8
Layer1
10
103.9500
20
85.5000
30
0.0
0
VERTEX
5
473
8
Layer1
10
103.9500
20
82.0000
30
0.0
0
VERTEX
5
474
8
Layer1
10
104.7500
20
82.0000
30
0.0
0
VERTEX
5
475
8
Layer1
10
104.7500
20
81.0000
30
0.0
0
VERTEX
5
476
8
Layer1
10
118.7500
20
81.0000
30
0.0
0
VERTEX
5
477
8
Layer1
10
118.7500
20
82.0000
30
0.0
0
SEQEND
5
478
8
Layer1
0
POLYLINE
5
479
8
Layer1
66
1
10
0.0
20
0.0
30
0.0
70
1
0
VERTEX
5
47a
8
Layer1
10
137.7500
20
82.0000
30
0.0
0
VERTEX
5
47b
8
Layer1
10
138.5500
20
82.0000
30
0.0
0
VERTEX
5
47c
8
Layer1
10
138.5500
20
85.5000
30
0.0
0
VERTEX
5
47d
8
Layer1
10
137.7500
20
85.5000
30
0.0
0
VERTEX
5
47e
8
Layer1
10
137.7500
20
90.5000
30
0.0
0
VERTEX
5
47f
8
Layer1
10
138.5500
20
90.5000
30
0.0
0
VERTEX
5
480
8
Layer1
10
138.5500
20
94.0000
30
0.0
0
VERTEX
5
481
8
Layer1
10
137.7500
20
94.0000
30
0.0
0
VERTEX
5
482
8
Layer1
10
137.7500
20
95.0000
30
0.0
0
VERTEX
5
483
8
Layer1
10
123.7500
20
95.0000
30
0.0
0
VERTEX
5
484
8
Layer1
10
123.7500
20
94.0000
30
0.0
0
VERTEX
5
485
8
Layer1
10
122.9500
20
94.0000
30
0.0
0
VERTEX
5
486
8
Layer1
10
122.9500
20
90.5000
30
0.0
0
VERTEX
5
487
8
Layer1
10
123.7500
20
90.5000
30
0.0
0
VERTEX
5
488
8
Layer1
10
123.7500
20
85.5000
30
0.0
0
VERTEX
5
489
8
Layer1
10
122.9500
20
85.5000
30
0.0
0
VERTEX
5
48a
8
Layer1
10
122.9500
20
82.0000
30
0.0
0
VERTEX
5
48b
8
Layer1
10
123.7500
20
82.0000
30
0.0
0
VERTEX
5
48c
8
Layer1
10
123.7500
20
81.0000
30
0.0
0
VERTEX
5
48d
8
Layer1
10
137.7500
20
81.0000
30
0.0
0
VERTEX
5
48e
8
Layer1
10
137.7500
20
82.0000
30
0.0
0
SEQEND
5
48f
8
Layer1
0
POLYLINE
5
490
8
Layer1
66
1
10
0.0
20
0.0
30
0.0
70
1
0
VERTEX
5
491
8
Layer1
10
156.7500
20
82.0000
30
0.0
0
VERTEX
5
492
8
Layer1
10
157.5500
20
82.0000
30
0.0
0
VERTEX
5
493
8
Layer1
10
157.5500
20
85.5000
30
0.0
0
VERTEX
5
494
8
Layer1
10
156.7500
20
85.5000
30
0.0
0
VERTEX
5
495
8
Layer1
10
156.7500
20
90.5000
30
0.0
0
VERTEX
5
496
8
Layer1
10
157.5500
20
90.5000
30
0.0
0
VERTEX
5
497
8
Layer1
10
157.5500
20
94.0000
30
0.0
0
VERTEX
5
498
8
Layer1
10
156.7500
20
94.0000
30
0.0
0
VERTEX
5
499
8
Layer1
10
156.7500
20
95.0000
30
0.0
0
VERTEX
5
49a
8
Layer1
10
142.7500
20
95.0000
30
0.0
0
VERTEX
5
49b
8
Layer1
10
142.7500
20
94.0000
30
0.0
0
VERTEX
5
49c
8
Layer1
10
141.9500
20
94.0000
30
0.0
0
VERTEX
5
49d
8
Layer1
10
141.9500
20
90.5000
30
0.0
0
VERTEX
5
49e
8
Layer1
10
142.7500
20
90.5000
30
0.0
0
VERTEX
5
49f
8
Layer1
10
142.7500
20
85.5000
30
0.0
0
VERTEX
5
4a0
8
Layer1
10
141.9500
20
85.5000
30
0.0
0
VERTEX
5
4a1
8
Layer1
10
141.9500
20
82.0000
30
0.0
0
VERTEX
5
4a2
8
Layer1
10
142.7500
20
82.0000
30
0.0
0
VERTEX
5
4a3
8
Layer1
10
142.7500
20
81.0000
30
0.0
0
VERTEX
5
4a4
8
Layer1
10
156.7500
20
81.0000
30
0.0
0
VERTEX
5
4a5
8
Layer1
10
156.7500
20
82.0000
30
0.0
0
SEQEND
5
4a6
8
Layer1
0
POLYLINE
5
4a7
8
Layer1
66
1
10
0.0
20
0.0
30
0.0
70
1
0
VERTEX
5
4a8
8
Layer1
10
175.7500
20
82.0000
30
0.0
0
VERTEX
5
4a9
8
Layer1
10
176.5500
20
82.0000
30
0.0
0
VERTEX
5
4aa
8
Layer1
10
176.5500
20
85.5000
30
0.0
0
VERTEX
5
4ab
8
Layer1
10
175.7500
20
85.5000
30
0.0
0
VERTEX
5
4ac
8
Layer1
10
175.7500
20
90.5000
30
0.0
0
VERTEX
5
4ad
8
Layer1
10
176.5500
20
90.5000
30
0.0
0
VERTEX
5
4ae
8
Layer1
10
176.5500
20
94.0000
30
0.0
0
VERTEX
5
4af
8
Layer1
10
175.7500
20
94.0000
30
0.0
0
VERTEX
5
4b0
8
Layer1
10
175.7500
20
95.0000
30
0.0
0
VERTEX
5
4b1
8
Layer1
10
161.7500
20
95.0000
30
0.0
0
VERTEX
5
4b2
8
Layer1
10
161.7500
20
94.0000
30
0.0
0
VERTEX
5
4b3
8
Layer1
10
160.9500
20
94.0000
30
0.0
0
VERTEX
5
4b4
8
Layer1
10
160.9500
20
90.5000
30
0.0
0
VERTEX
5
4b5
8
Layer1
10
161.7500
20
90.5000
30
0.0
0
VERTEX
5
4b6
8
Layer1
10
161.7500
20
85.5000
30
0.0
0
VERTEX
5
4b7
8
Layer1
10
160.9500
20
85.5000
30
0.0
0
VERTEX
5
4b8
8
Layer1
10
160.9500
20
82.0000
30
0.0
0
VERTEX
5
4b9
8
Layer1
10
161.7500
20
82.0000
30
0.0
0
VERTEX
5
4ba
8
Layer1
10
161.7500
20
81.0000
30
0.0
0
VERTEX
5
4bb
8
Layer1
10
175.7500
20
81.0000
30
0.0
0
VERTEX
5
4bc
8
Layer1
10
175.7500
20
82.0000
30
0.0
0
SEQEND
5
4bd
8
Layer1
0
POLYLINE
5
4be
8
Layer1
66
1
10
0.0
20
0.0
30
0.0
70
1
0
VERTEX
5
4bf
8
Layer1
10
194.7500
20
82.0000
30
0.0
0
VERTEX
5
4c0
8
Layer1
10
195.5500
20
82.0000
30
0.0
0
VERTEX
5
4c1
8
Layer1
10
195.5500
20
85.5000
30
0.0
0
VERTEX
5
4c2
8
Layer1
10
194.7500
20
85.5000
30
0.0
0
VERTEX
5
4c3
8
Layer1
10
194.7500
20
90.5000
30
0.0
0
VERTEX
5
4c4
8
Layer1
10
195.5500
20
90.5000
30
0.0
0
VERTEX
5
4c5
8
Layer1
10
195.5500
20
94.0000
30
0.0
0
VERTEX
5
4c6
8
Layer1
10
194.7500
20
94.0000
30
0.0
0
VERTEX
5
4c7
8
Layer1
10
194.7500
20
95.0000
30
0.0
0
VERTEX
5
4c8
8
Layer1
10
180.7500
20
95.0000
30
0.0
0
VERTEX
5
4c9
8
Layer1
10
180.7500
20
94.0000
30
0.0
0
VERTEX
5
4ca
8
Layer1
10
179.9500
20
94.0000
30
0.0
0
VERTEX
5
4cb
8
Layer1
10
179.9500
20
90.5000
30
0.0
0
VERTEX
5
4cc
8
Layer1
10
180.7500
20
90.5000
30
0.0
0
VERTEX
5
4cd
8
Layer1
10
180.7500
20
85.5000
30
0.0
0
VERTEX
5
4ce
8
Layer1
10
179.9500
20
85.5000
30
0.0
0
VERTEX
5
4cf
8
Layer1
10
179.9500
20
82.0000
30
0.0
0
VERTEX
5
4d0
8
Layer1
10
180.7500
20
82.0000
30
0.0
0
VERTEX
5
4d1
8
Layer1
10
180.7500
20
81.0000
30
0.0
0
VERTEX
5
4d2
8
Layer1
10
194.7500
20
81.0000
30
0.0
0
VERTEX
5
4d3
8
Layer1
10
194.7500
20
82.0000
30
0.0
0
SEQEND
5
4d4
8
Layer1
0
POLYLINE
5
4d5
8
Layer1
66
1
10
0.0
20
0.0
30
0.0
70
1
0
VERTEX
5
4d6
8
Layer1
10
213.7500
20
82.0000
30
0.0
0
VERTEX
5
4d7
8
Layer1
10
214.5500
20
82.0000
30
0.0
0
VERTEX
5
4d8
8
Layer1
10
214.5500
20
85.5000
30
0.0
0
VERTEX
5
4d9
8
Layer1
10
213.7500
20
85.5000
30
0.0
0
VERTEX
5
4da
8
Layer1
10
213.7500
20
90.5000
30
0.0
0
VERTEX
5
4db
8
Layer1
10
214.5500
20
90.5000
30
0.0
0
VERTEX
5
4dc
8
Layer1
10
214.5500
20
94.0000
30
0.0
0
VERTEX
5
4dd
8
Layer1
10
213.7500
20
94.0000
30
0.0
0
VERTEX
5
4de
8
Layer1
10
213.7500
20
95.0000
30
0.0
0
VERTEX
5
4df
8
Layer1
10
199.7500
20
95.0000
30
0.0
0
VERTEX
5
4e0
8
Layer1
10
199.7500
20
94.0000
30
0.0
0
VERTEX
5
4e1
8
Layer1
10
198.9500
20
94.0000
30
0.0
0
VERTEX
5
4e2
8
Layer1
10
198.9500
20
90.5000
30
0.0
0
VERTEX
5
4e3
8
Layer1
10
199.7500
20
90.5000
30
0.0
0
VERTEX
5
4e4
8
Layer1
10
199.7500
20
85.5000
30
0.0
0
VERTEX
5
4e5
8
Layer1
10
198.9500
20
85.5000
30
0.0
0
VERTEX
5
4e6
8
Layer1
10
198.9500
20
82.0000
30
0.0
0
VERTEX
5
4e7
8
Layer1
10
199.7500
20
82.0000
30
0.0
0
VERTEX
5
4e8
8
Layer1
10
199.7500
20
81.0000
30
0.0
0
VERTEX
5
4e9
8
Layer1
10
213.7500
20
81.0000
30
0.0
0
VERTEX
5
4ea
8
Layer1
10
213.7500
20
82.0000
30
0.0
0
SEQEND
5
4eb
8
Layer1
0
POLYLINE
5
4ec
8
Layer1
66
1
10
0.0
20
0.0
30
0.0
70
1
0
VERTEX
5
4ed
8
Layer1
10
232.7500
20
82.0000
30
0.0
0
VERTEX
5
4ee
8
Layer1
10
233.5500
20
82.0000
30
0.0
0
VERTEX
5
4ef
8
Layer1
10
233.5500
20
85.5000
30
0.0
0
VERTEX
5
4f0
8
Layer1
10
232.7500
20
85.5000
30
0.0
0
VERTEX
5
4f1
8
Layer1
10
232.7500
20
90.5000
30
0.0
0
VERTEX
5
4f2
8
Layer1
10
233.5500
20
90.5000
30
0.0
0
VERTEX
5
4f3
8
Layer1
10
233.5500
20
94.0000
30
0.0
0
VERTEX
5
4f4
8
Layer1
10
232.7500
20
94.0000
30
0.0
0
VERTEX
5
4f5
8
Layer1
10
232.7500
20
95.0000
30
0.0
0
VERTEX
5
4f6
8
Layer1
10
218.7500
20
95.0000
30
0.0
0
VERTEX
5
4f7
8
Layer1
10
218.7500
20
94.0000
30
0.0
0
VERTEX
5
4f8
8
Layer1
10
217.9500
20
94.0000
30
0.0
0
VERTEX
5
4f9
8
Layer1
10
217.9500
20
90.5000
30
0.0
0
VERTEX
5
4fa
8
Layer1
10
218.7500
20
90.5000
30
0.0
0
VERTEX
5
4fb
8
Layer1
10
218.7500
20
85.5000
30
0.0
0
VERTEX
5
4fc
8
Layer1
10
217.9500
20
85.5000
30
0.0
0
VERTEX
5
4fd
8
Layer1
10
217.9500
20
82.0000
30
0.0
0
VERTEX
5
4fe
8
Layer1
10
218.7500
20
82.0000
30
0.0
0
VERTEX
5
4ff
8
Layer1
10
218.7500
20
81.0000
30
0.0
0
VERTEX
5
500
8
Layer1
10
232.7500
20
81.0000
30
0.0
0
VERTEX
5
501
8
Layer1
10
232.7500
20
82.0000
30
0.0
0
SEQEND
5
502
8
Layer1
0
POLYLINE
5
503
8
Layer1
66
1
10
0.0
20
0.0
30
0.0
70
1
0
VERTEX
5
504
8
Layer1
10
251.7500
20
82.0000
30
0.0
0
VERTEX
5
505
8
Layer1
10
252.5500
20
82.0000
30
0.0
0
VERTEX
5
506
8
Layer1
10
252.5500
20
85.5000
30
0.0
0
VERTEX
5
507
8
Layer1
10
251.7500
20
85.5000
30
0.0
0
VERTEX
5
508
8
Layer1
10
251.7500
20
90.5000
30
0.0
0
VERTEX
5
509
8
Layer1
10
252.5500
20
90.5000
30
0.0
0
VERTEX
5
50a
8
Layer1
10
252.5500
20
94.0000
30
0.0
0
VERTEX
5
50b
8
Layer1
10
251.7500
20
94.0000
30
0.0
0
VERTEX
5
50c
8
Layer1
10
251.7500
20
95.0000
30
0.0
0
VERTEX
5
50d
8
Layer1
10
237.7500
20
95.0000
30
0.0
0
VERTEX
5
50e
8
Layer1
10
237.7500
20
94.0000
30
0.0
0
VERTEX
5
50f
8
Layer1
10
236.9500
20
94.0000
30
0.0
0
VERTEX
5
510
8
Layer1
10
236.9500
20
90.5000
30
0.0
0
VERTEX
5
511
8
Layer1
10
237.7500
20
90.5000
30
0.0
0
VERTEX
5
512
8
Layer1
10
237.7500
20
85.5000
30
0.0
0
VERTEX
5
513
8
Layer1
10
236.9500
20
85.5000
30
0.0
0
VERTEX
5
514
8
Layer1
10
236.9500
20
82.0000
30
0.0
0
VERTEX
5
515
8
Layer1
10
237.7500
20
82.0000
30
0.0
0
VERTEX
5
516
8
Layer1
10
237.7500
20
81.0000
30
0.0
0
VERTEX
5
517
8
Layer1
10
251.7500
20
81.0000
30
0.0
0
VERTEX
5
518
8
Layer1
10
251.7500
20
82.0000
30
0.0
0
SEQEND
5
519
8
Layer1
0
POLYLINE
5
51a
8
Layer1
66
1
10
0.0
20
0.0
30
0.0
70
1
0
VERTEX
5
51b
8
Layer1
10
270.7500
20
82.0000
30
0.0
0
VERTEX
5
51c
8
Layer1
10
271.5500
20
82.0000
30
0.0
0
VERTEX
5
51d
8
Layer1
10
271.5500
20
85.5000
30
0.0
0
VERTEX
5
51e
8
Layer1
10
270.7500
20
85.5000
30
0.0
0
VERTEX
5
51f
8
Layer1
10
270.7500
20
90.5000
30
0.0
0
VERTEX
5
520
8
Layer1
10
271.5500
20
90.5000
30
0.0
0
VERTEX
5
521
8
Layer1
10
271.5500
20
94.0000
30
0.0
0
VERTEX
5
522
8
Layer1
10
270.7500
20
94.0000
30
0.0
0
VERTEX
5
523
8
Layer1
10
270.7500
20
95.0000
30
0.0
0
VERTEX
5
524
8
Layer1
10
256.7500
20
95.0000
30
0.0
0
VERTEX
5
525
8
Layer1
10
256.7500
20
94.0000
30
0.0
0
VERTEX
5
526
8
Layer1
10
255.9500
20
94.0000
30
0.0
0
VERTEX
5
527
8
Layer1
10
255.9500
20
90.5000
30
0.0
0
VERTEX
5
528
8
Layer1
10
256.7500
20
90.5000
30
0.0
0
VERTEX
5
529
8
Layer1
10
256.7500
20
85.5000
30
0.0
0
VERTEX
5
52a
8
Layer1
10
255.9500
20
85.5000
30
0.0
0
VERTEX
5
52b
8
Layer1
10
255.9500
20
82.0000
30
0.0
0
VERTEX
5
52c
8
Layer1
10
256.7500
20
82.0000
30
0.0
0
VERTEX
5
52d
8
Layer1
10
256.7500
20
81.0000
30
0.0
0
VERTEX
5
52e
8
Layer1
10
270.7500
20
81.0000
30
0.0
0
VERTEX
5
52f
8
Layer1
10
270.7500
20
82.0000
30
0.0
0
SEQEND
5
530
8
Layer1
0
POLYLINE
5
531
8
Layer1
66
1
10
0.0
20
0.0
30
0.0
70
1
0
VERTEX
5
532
8
Layer1
10
289.7500
20
82.0000
30
0.0
0
VERTEX
5
533
8
Layer1
10
290.5500
20
82.0000
30
0.0
0
VERTEX
5
534
8
Layer1
10
290.5500
20
85.5000
30
0.0
0
VERTEX
5
535
8
Layer1
10
289.7500
20
85.5000
30
0.0
0
VERTEX
5
536
8
Layer1
10
289.7500
20
90.5000
30
0.0
0
VERTEX
5
537
8
Layer1
10
290.5500
20
90.5000
30
0.0
0
VERTEX
5
538
8
Layer1
10
290.5500
20
94.0000
30
0.0
0
VERTEX
5
539
8
Layer1
10
289.7500
20
94.0000
30
0.0
0
VERTEX
5
53a
8
Layer1
10
289.7500
20
95.0000
30
0.0
0
VERTEX
5
53b
8
Layer1
10
275.7500
20
95.0000
30
0.0
0
VERTEX
5
53c
8
Layer1
10
275.7500
20
94.0000
30
0.0
0
VERTEX
5
53d
8
Layer1
10
274.9500
20
94.0000
30
0.0
0
VERTEX
5
53e
8
Layer1
10
274.9500
20
90.5000
30
0.0
0
VERTEX
5
53f
8
Layer1
10
275.7500
20
90.5000
30
0.0
0
VERTEX
5
540
8
Layer1
10
275.7500
20
85.5000
30
0.0
0
VERTEX
5
541
8
Layer1
10
274.9500
20
85.5000
30
0.0
0
VERTEX
5
542
8
Layer1
10
274.9500
20
82.0000
30
0.0
0
VERTEX
5
543
8
Layer1
10
275.7500
20
82.0000
30
0.0
0
VERTEX
5
544
8
Layer1
10
275.7500
20
81.0000
30
0.0
0
VERTEX
5
545
8
Layer1
10
289.7500
20
81.0000
30
0.0
0
VERTEX
5
546
8
Layer1
10
289.7500
20
82.0000
30
0.0
0
SEQEND
5
547
8
Layer1
0
POLYLINE
5
548
8
Layer1
66
1
10
0.0
20
0.0
30
0.0
70
1
0
VERTEX
5
549
8
Layer1
10
308.7500
20
82.0000
30
0.0
0
VERTEX
5
54a
8
Layer1
10
309.5500
20
82.0000
30
0.0
0
VERTEX
5
54b
8
Layer1
10
309.5500
20
85.5000
30
0.0
0
VERTEX
5
54c
8
Layer1
10
308.7500
20
85.5000
30
0.0
0
VERTEX
5
54d
8
Layer1
10
308.7500
20
90.5000
30
0.0
0
VERTEX
5
54e
8
Layer1
10
309.5500
20
90.5000
30
0.0
0
VERTEX
5
54f
8
Layer1
10
309.5500
20
94.0000
30
0.0
0
VERTEX
5
550
8
Layer1
10
308.7500
20
94.0000
30
0.0
0
VERTEX
5
551
8
Layer1
10
308.7500
20
95.0000
30
0.0
0
VERTEX
5
552
8
Layer1
10
294.7500
20
95.0000
30
0.0
0
VERTEX
5
553
8
Layer1
10
294.7500
20
94.0000
30
0.0
0
VERTEX
5
554
8
Layer1
10
293.9500
20
94.0000
30
0.0
0
VERTEX
5
555
8
Layer1
10
293.9500
20
90.5000
30
0.0
0
VERTEX
5
556
8
Layer1
10
294.7500
20
90.5000
30
0.0
0
VERTEX
5
557
8
Layer1
10
294.7500
20
85.5000
30
0.0
0
VERTEX
5
558
8
Layer1
10
293.9500
20
85.5000
30
0.0
0
VERTEX
5
559
8
Layer1
10
293.9500
20
82.0000
30
0.0
0
VERTEX
5
55a
8
Layer1
10
294.7500
20
82.0000
30
0.0
0
VERTEX
5
55b
8
Layer1
10
294.7500
20
81.0000
30
0.0
0
VERTEX
5
55c
8
Layer1
10
308.7500
20
81.0000
30
0.0
0
VERTEX
5
55d
8
Layer1
10
308.7500
20
82.0000
30
0.0
0
SEQEND
5
55e
8
Layer1
0
POLYLINE
5
55f
8
Layer1
66
1
10
0.0
20
0.0
30
0.0
70
1
0
VERTEX
5
560
8
Layer1
10
320.0000
20
81.2300
30
0.0
0
VERTEX
5
561
8
Layer1
10
321.6750
20
81.2300
30
0.0
0
VERTEX
5
562
8
Layer1
10
321.6750
20
82.0300
30
0.0
0
VERTEX
5
563
8
Layer1
10
322.4500
20
82.0300
30
0.0
0
VERTEX
5
564
8
Layer1
10
322.4500
20
82.0000
30
0.0
0
VERTEX
5
565
8
Layer1
10
323.2500
20
82.0000
30
0.0
0
VERTEX
5
566
8
Layer1
10
323.2500
20
81.0000
30
0.0
0
VERTEX
5
567
8
Layer1
10
337.2500
20
81.0000
30
0.0
0
VERTEX
5
568
8
Layer1
10
337.2500
20
82.0000
30
0.0
0
VERTEX
5
569
8
Layer1
10
338.0500
20
82.0000
30
0.0
0
VERTEX
5
56a
8
Layer1
10
338.0500
20
82.0300
30
0.0
0
VERTEX
5
56b
8
Layer1
10
338.8250
20
82.0300
30
0.0
0
VERTEX
5
56c
8
Layer1
10
338.8250
20
81.2300
30
0.0
0
VERTEX
5
56d
8
Layer1
10
340.5000
20
81.2300
30
0.0
0
VERTEX
5
56e
8
Layer1
10
340.5000
20
80.2380
30
0.0
0
VERTEX
5
56f
8
Layer1
10
343.8000
20
80.2380
30
0.0
0
VERTEX
5
570
8
Layer1
10
343.8000
20
81.2300
30
0.0
0
VERTEX
5
571
8
Layer1
10
345.4750
20
81.2300
30
0.0
0
VERTEX
5
572
8
Layer1
10
345.4750
20
87.5000
30
0.0
0
VERTEX
5
573
8
Layer1
10
346.3500
20
87.5000
30
0.0
0
VERTEX
5
574
8
Layer1
10
346.3500
20
90.3000
30
0.0
0
VERTEX
5
575
8
Layer1
10
345.4750
20
90.3000
30
0.0
0
VERTEX
5
576
8
Layer1
10
345.4750
20
93.5300
30
0.0
0
VERTEX
5
577
8
Layer1
10
343.8000
20
93.5300
30
0.0
0
VERTEX
5
578
8
Layer1
10
343.8000
20
94.2380
30
0.0
0
VERTEX
5
579
8
Layer1
10
340.5000
20
94.2380
30
0.0
0
VERTEX
5
57a
8
Layer1
10
340.5000
20
93.5300
30
0.0
0
VERTEX
5
57b
8
Layer1
10
338.8250
20
93.5300
30
0.0
0
VERTEX
5
57c
8
Layer1
10
338.8250
20
92.7300
30
0.0
0
VERTEX
5
57d
8
Layer1
10
338.0500
20
92.7300
30
0.0
0
VERTEX
5
57e
8
Layer1
10
338.0500
20
94.0000
30
0.0
0
VERTEX
5
57f
8
Layer1
10
337.2500
20
94.0000
30
0.0
0
VERTEX
5
580
8
Layer1
10
337.2500
20
95.0000
30
0.0
0
VERTEX
5
581
8
Layer1
10
323.2500
20
95.0000
30
0.0
0
VERTEX
5
582
8
Layer1
10
323.2500
20
94.0000
30
0.0
0
VERTEX
5
583
8
Layer1
10
322.4500
20
94.0000
30
0.0
0
VERTEX
5
584
8
Layer1
10
322.4500
20
92.7300
30
0.0
0
VERTEX
5
585
8
Layer1
10
321.6750
20
92.7300
30
0.0
0
VERTEX
5
586
8
Layer1
10
321.6750
20
93.5300
30
0.0
0
VERTEX
5
587
8
Layer1
10
320.0000
20
93.5300
30
0.0
0
VERTEX
5
588
8
Layer1
10
320.0000
20
94.2380
30
0.0
0
VERTEX
5
589
8
Layer1
10
316.7000
20
94.2380
30
0.0
0
VERTEX
5
58a
8
Layer1
10
316.7000
20
93.5300
30
0.0
0
VERTEX
5
58b
8
Layer1
10
315.0250
20
93.5300
30
0.0
0
VERTEX
5
58c
8
Layer1
10
315.0250
20
90.3000
30
0.0
0
VERTEX
5
58d
8
Layer1
10
314.1500
20
90.3000
30
0.0
0
VERTEX
5
58e
8
Layer1
10
314.1500
20
87.5000
30
0.0
0
VERTEX
5
58f
8
Layer1
10
315.0250
20
87.5000
30
0.0
0
VERTEX
5
590
8
Layer1
10
315.0250
20
81.2300
30
0.0
0
VERTEX
5
591
8
Layer1
10
316.7000
20
81.2300
30
0.0
0
VERTEX
5
592
8
Layer1
10
316.7000
20
80.2380
30
0.0
0
VERTEX
5
593
8
Layer1
10
320.0000
20
80.2380
30
0.0
0
VERTEX
5
594
8
Layer1
10
320.0000
20
81.2300
30
0.0
0
SEQEND
5
595
8
Layer1
0
POLYLINE
5
596
8
Layer1
66
1
10
0.0
20
0.0
30
0.0
70
1
0
VERTEX
5
597
8
Layer1
10
370.5000
20
82.0000
30
0.0
0
VERTEX
5
598
8
Layer1
10
371.3000
20
82.0000
30
0.0
0
VERTEX
5
599
8
Layer1
10
371.3000
20
85.5000
30
0.0
0
VERTEX
5
59a
8
Layer1
10
370.5000
20
85.5000
30
0.0
0
VERTEX
5
59b
8
Layer1
10
370.5000
20
90.5000
30
0.0
0
VERTEX
5
59c
8
Layer1
10
371.3000
20
90.5000
30
0.0
0
VERTEX
5
59d
8
Layer1
10
371.3000
20
94.0000
30
0.0
0
VERTEX
5
59e
8
Layer1
10
370.5000
20
94.0000
30
0.0
0
VERTEX
5
59f
8
Layer1
10
370.5000
20
95.0000
30
0.0
0
VERTEX
5
5a0
8
Layer1
10
356.5000
20
95.0000
30
0.0
0
VERTEX
5
5a1
8
Layer1
10
356.5000
20
94.0000
30
0.0
0
VERTEX
5
5a2
8
Layer1
10
355.7000
20
94.0000
30
0.0
0
VERTEX
5
5a3
8
Layer1
10
355.7000
20
90.5000
30
0.0
0
VERTEX
5
5a4
8
Layer1
10
356.5000
20
90.5000
30
0.0
0
VERTEX
5
5a5
8
Layer1
10
356.5000
20
85.5000
30
0.0
0
VERTEX
5
5a6
8
Layer1
10
355.7000
20
85.5000
30
0.0
0
VERTEX
5
5a7
8
Layer1
10
355.7000
20
82.0000
30
0.0
0
VERTEX
5
5a8
8
Layer1
10
356.5000
20
82.0000
30
0.0
0
VERTEX
5
5a9
8
Layer1
10
356.5000
20
81.0000
30
0.0
0
VERTEX
5
5aa
8
Layer1
10
370.5000
20
81.0000
30
0.0
0
VERTEX
5
5ab
8
Layer1
10
370.5000
20
82.0000
30
0.0
0
SEQEND
5
5ac
8
Layer1
0
POLYLINE
5
5ad
8
Layer1
66
1
10
0.0
20
0.0
30
0.0
70
1
0
VERTEX
5
5ae
8
Layer1
10
389.5000
20
82.0000
30
0.0
0
VERTEX
5
5af
8
Layer1
10
390.3000
20
82.0000
30
0.0
0
VERTEX
5
5b0
8
Layer1
10
390.3000
20
85.5000
30
0.0
0
VERTEX
5
5b1
8
Layer1
10
389.5000
20
85.5000
30
0.0
0
VERTEX
5
5b2
8
Layer1
10
389.5000
20
90.5000
30
0.0
0
VERTEX
5
5b3
8
Layer1
10
390.3000
20
90.5000
30
0.0
0
VERTEX
5
5b4
8
Layer1
10
390.3000
20
94.0000
30
0.0
0
VERTEX
5
5b5
8
Layer1
10
389.5000
20
94.0000
30
0.0
0
VERTEX
5
5b6
8
Layer1
10
389.5000
20
95.0000
30
0.0
0
VERTEX
5
5b7
8
Layer1
10
375.5000
20
95.0000
30
0.0
0
VERTEX
5
5b8
8
Layer1
10
375.5000
20
94.0000
30
0.0
0
VERTEX
5
5b9
8
Layer1
10
374.7000
20
94.0000
30
0.0
0
VERTEX
5
5ba
8
Layer1
10
374.7000
20
90.5000
30
0.0
0
VERTEX
5
5bb
8
Layer1
10
375.5000
20
90.5000
30
0.0
0
VERTEX
5
5bc
8
Layer1
10
375.5000
20
85.5000
30
0.0
0
VERTEX
5
5bd
8
Layer1
10
374.7000
20
85.5000
30
0.0
0
VERTEX
5
5be
8
Layer1
10
374.7000
20
82.0000
30
0.0
0
VERTEX
5
5bf
8
Layer1
10
375.5000
20
82.0000
30
0.0
0
VERTEX
5
5c0
8
Layer1
10
375.5000
20
81.0000
30
0.0
0
VERTEX
5
5c1
8
Layer1
10
389.5000
20
81.0000
30
0.0
0
VERTEX
5
5c2
8
Layer1
10
389.5000
20
82.0000
30
0.0
0
SEQEND
5
5c3
8
Layer1
0
POLYLINE
5
5c4
8
Layer1
66
1
10
0.0
20
0.0
30
0.0
70
1
0
VERTEX
5
5c5
8
Layer1
10
408.5000
20
82.0000
30
0.0
0
VERTEX
5
5c6
8
Layer1
10
409.3000
20
82.0000
30
0.0
0
VERTEX
5
5c7
8
Layer1
10
409.3000
20
85.5000
30
0.0
0
VERTEX
5
5c8
8
Layer1
10
408.5000
20
85.5000
30
0.0
0
VERTEX
5
5c9
8
Layer1
10
408.5000
20
90.5000
30
0.0
0
VERTEX
5
5ca
8
Layer1
10
409.3000
20
90.5000
30
0.0
0
VERTEX
5
5cb
8
Layer1
10
409.3000
20
94.0000
30
0.0
0
VERTEX
5
5cc
8
Layer1
10
408.5000
20
94.0000
30
0.0
0
VERTEX
5
5cd
8
Layer1
10
408.5000
20
95.0000
30
0.0
0
VERTEX
5
5ce
8
Layer1
10
394.5000
20
95.0000
30
0.0
0
VERTEX
5
5cf
8
Layer1
10
394.5000
20
94.0000
30
0.0
0
VERTEX
5
5d0
8
Layer1
10
393.7000
20
94.0000
30
0.0
0
VERTEX
5
5d1
8
Layer1
10
393.7000
20
90.5000
30
0.0
0
VERTEX
5
5d2
8
Layer1
10
394.5000
20
90.5000
30
0.0
0
VERTEX
5
5d3
8
Layer1
10
394.5000
20
85.5000
30
0.0
0
VERTEX
5
5d4
8
Layer1
10
393.7000
20
85.5000
30
0.0
0
VERTEX
5
5d5
8
Layer1
10
393.7000
20
82.0000
30
0.0
0
VERTEX
5
5d6
8
Layer1
10
394.5000
20
82.0000
30
0.0
0
VERTEX
5
5d7
8
Layer1
10
394.5000
20
81.0000
30
0.0
0
VERTEX
5
5d8
8
Layer1
10
408.5000
20
81.0000
30
0.0
0
VERTEX
5
5d9
8
Layer1
10
408.5000
20
82.0000
30
0.0
0
SEQEND
5
5da
8
Layer1
0
POLYLINE
5
5db
8
Layer1
66
1
10
0.0
20
0.0
30
0.0
70
1
0
VERTEX
5
5dc
8
Layer1
10
432.2500
20
82.0000
30
0.0
0
VERTEX
5
5dd
8
Layer1
10
433.0500
20
82.0000
30
0.0
0
VERTEX
5
5de
8
Layer1
10
433.0500
20
85.5000
30
0.0
0
VERTEX
5
5df
8
Layer1
10
432.2500
20
85.5000
30
0.0
0
VERTEX
5
5e0
8
Layer1
10
432.2500
20
90.5000
30
0.0
0
VERTEX
5
5e1
8
Layer1
10
433.0500
20
90.5000
30
0.0
0
VERTEX
5
5e2
8
Layer1
10
433.0500
20
94.0000
30
0.0
0
VERTEX
5
5e3
8
Layer1
10
432.2500
20
94.0000
30
0.0
0
VERTEX
5
5e4
8
Layer1
10
432.2500
20
95.0000
30
0.0
0
VERTEX
5
5e5
8
Layer1
10
418.2500
20
95.0000
30
0.0
0
VERTEX
5
5e6
8
Layer1
10
418.2500
20
94.0000
30
0.0
0
VERTEX
5
5e7
8
Layer1
10
417.4500
20
94.0000
30
0.0
0
VERTEX
5
5e8
8
Layer1
10
417.4500
20
90.5000
30
0.0
0
VERTEX
5
5e9
8
Layer1
10
418.2500
20
90.5000
30
0.0
0
VERTEX
5
5ea
8
Layer1
10
418.2500
20
85.5000
30
0.0
0
VERTEX
5
5eb
8
Layer1
10
417.4500
20
85.5000
30
0.0
0
VERTEX
5
5ec
8
Layer1
10
417.4500
20
82.0000
30
0.0
0
VERTEX
5
5ed
8
Layer1
10
418.2500
20
82.0000
30
0.0
0
VERTEX
5
5ee
8
Layer1
10
418.2500
20
81.0000
30
0.0
0
VERTEX
5
5ef
8
Layer1
10
432.2500
20
81.0000
30
0.0
0
VERTEX
5
5f0
8
Layer1
10
432.2500
20
82.0000
30
0.0
0
SEQEND
5
5f1
8
Layer1
0
POLYLINE
5
5f2
8
Layer1
66
1
10
0.0
20
0.0
30
0.0
70
1
0
VERTEX
5
5f3
8
Layer1
10
451.2500
20
82.0000
30
0.0
0
VERTEX
5
5f4
8
Layer1
10
452.0500
20
82.0000
30
0.0
0
VERTEX
5
5f5
8
Layer1
10
452.0500
20
85.5000
30
0.0
0
VERTEX
5
5f6
8
Layer1
10
451.2500
20
85.5000
30
0.0
0
VERTEX
5
5f7
8
Layer1
10
451.2500
20
90.5000
30
0.0
0
VERTEX
5
5f8
8
Layer1
10
452.0500
20
90.5000
30
0.0
0
VERTEX
5
5f9
8
Layer1
10
452.0500
20
94.0000
30
0.0
0
VERTEX
5
5fa
8
Layer1
10
451.2500
20
94.0000
30
0.0
0
VERTEX
5
5fb
8
Layer1
10
451.2500
20
95.0000
30
0.0
0
VERTEX
5
5fc
8
Layer1
10
437.2500
20
95.0000
30
0.0
0
VERTEX
5
5fd
8
Layer1
10
437.2500
20
94.0000
30
0.0
0
VERTEX
5
5fe
8
Layer1
10
436.4500
20
94.0000
30
0.0
0
VERTEX
5
5ff
8
Layer1
10
436.4500
20
90.5000
30
0.0
0
VERTEX
5
600
8
Layer1
10
437.2500
20
90.5000
30
0.0
0
VERTEX
5
601
8
Layer1
10
437.2500
20
85.5000
30
0.0
0
VERTEX
5
602
8
Layer1
10
436.4500
20
85.5000
30
0.0
0
VERTEX
5
603
8
Layer1
10
436.4500
20
82.0000
30
0.0
0
VERTEX
5
604
8
Layer1
10
437.2500
20
82.0000
30
0.0
0
VERTEX
5
605
8
Layer1
10
437.2500
20
81.0000
30
0.0
0
VERTEX
5
606
8
Layer1
10
451.2500
20
81.0000
30
0.0
0
VERTEX
5
607
8
Layer1
10
451.2500
20
82.0000
30
0.0
0
SEQEND
5
608
8
Layer1
0
POLYLINE
5
609
8
Layer1
66
1
10
0.0
20
0.0
30
0.0
70
1
0
VERTEX
5
60a
8
Layer1
10
470.2500
20
82.0000
30
0.0
0
VERTEX
5
60b
8
Layer1
10
471.0500
20
82.0000
30
0.0
0
VERTEX
5
60c
8
Layer1
10
471.0500
20
85.5000
30
0.0
0
VERTEX
5
60d
8
Layer1
10
470.2500
20
85.5000
30
0.0
0
VERTEX
5
60e
8
Layer1
10
470.2500
20
90.5000
30
0.0
0
VERTEX
5
60f
8
Layer1
10
471.0500
20
90.5000
30
0.0
0
VERTEX
5
610
8
Layer1
10
471.0500
20
94.0000
30
0.0
0
VERTEX
5
611
8
Layer1
10
470.2500
20
94.0000
30
0.0
0
VERTEX
5
612
8
Layer1
10
470.2500
20
95.0000
30
0.0
0
VERTEX
5
613
8
Layer1
10
456.2500
20
95.0000
30
0.0
0
VERTEX
5
614
8
Layer1
10
456.2500
20
94.0000
30
0.0
0
VERTEX
5
615
8
Layer1
10
455.4500
20
94.0000
30
0.0
0
VERTEX
5
616
8
Layer1
10
455.4500
20
90.5000
30
0.0
0
VERTEX
5
617
8
Layer1
10
456.2500
20
90.5000
30
0.0
0
VERTEX
5
618
8
Layer1
10
456.2500
20
85.5000
30
0.0
0
VERTEX
5
619
8
Layer1
10
455.4500
20
85.5000
30
0.0
0
VERTEX
5
61a
8
Layer1
10
455.4500
20
82.0000
30
0.0
0
VERTEX
5
61b
8
Layer1
10
456.2500
20
82.0000
30
0.0
0
VERTEX
5
61c
8
Layer1
10
456.2500
20
81.0000
30
0.0
0
VERTEX
5
61d
8
Layer1
10
470.2500
20
81.0000
30
0.0
0
VERTEX
5
61e
8
Layer1
10
470.2500
20
82.0000
30
0.0
0
SEQEND
5
61f
8
Layer1
0
POLYLINE
5
620
8
Layer1
66
1
10
0.0
20
0.0
30
0.0
70
1
0
VERTEX
5
621
8
Layer1
10
489.2500
20
82.0000
30
0.0
0
VERTEX
5
622
8
Layer1
10
490.0500
20
82.0000
30
0.0
0
VERTEX
5
623
8
Layer1
10
490.0500
20
85.5000
30
0.0
0
VERTEX
5
624
8
Layer1
10
489.2500
20
85.5000
30
0.0
0
VERTEX
5
625
8
Layer1
10
489.2500
20
90.5000
30
0.0
0
VERTEX
5
626
8
Layer1
10
490.0500
20
90.5000
30
0.0
0
VERTEX
5
627
8
Layer1
10
490.0500
20
94.0000
30
0.0
0
VERTEX
5
628
8
Layer1
10
489.2500
20
94.0000
30
0.0
0
VERTEX
5
629
8
Layer1
10
489.2500
20
95.0000
30
0.0
0
VERTEX
5
62a
8
Layer1
10
475.2500
20
95.0000
30
0.0
0
VERTEX
5
62b
8
Layer1
10
475.2500
20
94.0000
30
0.0
0
VERTEX
5
62c
8
Layer1
10
474.4500
20
94.0000
30
0.0
0
VERTEX
5
62d
8
Layer1
10
474.4500
20
90.5000
30
0.0
0
VERTEX
5
62e
8
Layer1
10
475.2500
20
90.5000
30
0.0
0
VERTEX
5
62f
8
Layer1
10
475.2500
20
85.5000
30
0.0
0
VERTEX
5
630
8
Layer1
10
474.4500
20
85.5000
30
0.0
0
VERTEX
5
631
8
Layer1
10
474.4500
20
82.0000
30
0.0
0
VERTEX
5
632
8
Layer1
10
475.2500
20
82.0000
30
0.0
0
VERTEX
5
633
8
Layer1
10
475.2500
20
81.0000
30
0.0
0
VERTEX
5
634
8
Layer1
10
489.2500
20
81.0000
30
0.0
0
VERTEX
5
635
8
Layer1
10
489.2500
20
82.0000
30
0.0
0
SEQEND
5
636
8
Layer1
0
POLYLINE
5
637
8
Layer1
66
1
10
0.0
20
0.0
30
0.0
70
1
0
VERTEX
5
638
8
Layer1
10
19.0000
20
63.0000
30
0.0
0
VERTEX
5
639
8
Layer1
10
19.8000
20
63.0000
30
0.0
0
VERTEX
5
63a
8
Layer1
10
19.8000
20
66.5000
30
0.0
0
VERTEX
5
63b
8
Layer1
10
19.0000
20
66.5000
30
0.0
0
VERTEX
5
63c
8
Layer1
10
19.0000
20
71.5000
30
0.0
0
VERTEX
5
63d
8
Layer1
10
19.8000
20
71.5000
30
0.0
0
VERTEX
5
63e
8
Layer1
10
19.8000
20
75.0000
30
0.0
0
VERTEX
5
63f
8
Layer1
10
19.0000
20
75.0000
30
0.0
0
VERTEX
5
640
8
Layer1
10
19.0000
20
76.0000
30
0.0
0
VERTEX
5
641
8
Layer1
10
5.0000
20
76.0000
30
0.0
0
VERTEX
5
642
8
Layer1
10
5.0000
20
75.0000
30
0.0
0
VERTEX
5
643
8
Layer1
10
4.2000
20
75.0000
30
0.0
0
VERTEX
5
644
8
Layer1
10
4.2000
20
71.5000
30
0.0
0
VERTEX
5
645
8
Layer1
10
5.0000
20
71.5000
30
0.0
0
VERTEX
5
646
8
Layer1
10
5.0000
20
66.5000
30
0.0
0
VERTEX
5
647
8
Layer1
10
4.2000
20
66.5000
30
0.0
0
VERTEX
5
648
8
Layer1
10
4.2000
20
63.0000
30
0.0
0
VERTEX
5
649
8
Layer1
10
5.0000
20
63.0000
30
0.0
0
VERTEX
5
64a
8
Layer1
10
5.0000
20
62.0000
30
0.0
0
VERTEX
5
64b
8
Layer1
10
19.0000
20
62.0000
30
0.0
0
VERTEX
5
64c
8
Layer1
10
19.0000
20
63.0000
30
0.0
0
SEQEND
5
64d
8
Layer1
0
POLYLINE
5
64e
8
Layer1
66
1
10
0.0
20
0.0
30
0.0
70
1
0
VERTEX
5
64f
8
Layer1
10
38.0000
20
63.0000
30
0.0
0
VERTEX
5
650
8
Layer1
10
38.8000
20
63.0000
30
0.0
0
VERTEX
5
651
8
Layer1
10
38.8000
20
66.5000
30
0.0
0
VERTEX
5
652
8
Layer1
10
38.0000
20
66.5000
30
0.0
0
VERTEX
5
653
8
Layer1
10
38.0000
20
71.5000
30
0.0
0
VERTEX
5
654
8
Layer1
10
38.8000
20
71.5000
30
0.0
0
VERTEX
5
655
8
Layer1
10
38.8000
20
75.0000
30
0.0
0
VERTEX
5
656
8
Layer1
10
38.0000
20
75.0000
30
0.0
0
VERTEX
5
657
8
Layer1
10
38.0000
20
76.0000
30
0.0
0
VERTEX
5
658
8
Layer1
10
24.0000
20
76.0000
30
0.0
0
VERTEX
5
659
8
Layer1
10
24.0000
20
75.0000
30
0.0
0
VERTEX
5
65a
8
Layer1
10
23.2000
20
75.0000
30
0.0
0
VERTEX
5
65b
8
Layer1
10
23.2000
20
71.5000
30
0.0
0
VERTEX
5
65c
8
Layer1
10
24.0000
20
71.5000
30
0.0
0
VERTEX
5
65d
8
Layer1
10
24.0000
20
66.5000
30
0.0
0
VERTEX
5
65e
8
Layer1
10
23.2000
20
66.5000
30
0.0
0
VERTEX
5
65f
8
Layer1
10
23.2000
20
63.0000
30
0.0
0
VERTEX
5
660
8
Layer1
10
24.0000
20
63.0000
30
0.0
0
VERTEX
5
661
8
Layer1
10
24.0000
20
62.0000
30
0.0
0
VERTEX
5
662
8
Layer1
10
38.0000
20
62.0000
30
0.0
0
VERTEX
5
663
8
Layer1
10
38.0000
20
63.0000
30
0.0
0
SEQEND
5
664
8
Layer1
0
POLYLINE
5
665
8
Layer1
66
1
10
0.0
20
0.0
30
0.0
70
1
0
VERTEX
5
666
8
Layer1
10
57.0000
20
63.0000
30
0.0
0
VERTEX
5
667
8
Layer1
10
57.8000
20
63.0000
30
0.0
0
VERTEX
5
668
8
Layer1
10
57.8000
20
66.5000
30
0.0
0
VERTEX
5
669
8
Layer1
10
57.0000
20
66.5000
30
0.0
0
VERTEX
5
66a
8
Layer1
10
57.0000
20
71.5000
30
0.0
0
VERTEX
5
66b
8
Layer1
10
57.8000
20
71.5000
30
0.0
0
VERTEX
5
66c
8
Layer1
10
57.8000
20
75.0000
30
0.0
0
VERTEX
5
66d
8
Layer1
10
57.0000
20
75.0000
30
0.0
0
VERTEX
5
66e
8
Layer1
10
57.0000
20
76.0000
30
0.0
0
VERTEX
5
66f
8
Layer1
10
43.0000
20
76.0000
30
0.0
0
VERTEX
5
670
8
Layer1
10
43.0000
20
75.0000
30
0.0
0
VERTEX
5
671
8
Layer1
10
42.2000
20
75.0000
30
0.0
0
VERTEX
5
672
8
Layer1
10
42.2000
20
71.5000
30
0.0
0
VERTEX
5
673
8
Layer1
10
43.0000
20
71.5000
30
0.0
0
VERTEX
5
674
8
Layer1
10
43.0000
20
66.5000
30
0.0
0
VERTEX
5
675
8
Layer1
10
42.2000
20
66.5000
30
0.0
0
VERTEX
5
676
8
Layer1
10
42.2000
20
63.0000
30
0.0
0
VERTEX
5
677
8
Layer1
10
43.0000
20
63.0000
30
0.0
0
VERTEX
5
678
8
Layer1
10
43.0000
20
62.0000
30
0.0
0
VERTEX
5
679
8
Layer1
10
57.0000
20
62.0000
30
0.0
0
VERTEX
5
67a
8
Layer1
10
57.0000
20
63.0000
30
0.0
0
SEQEND
5
67b
8
Layer1
0
POLYLINE
5
67c
8
Layer1
66
1
10
0.0
20
0.0
30
0.0
70
1
0
VERTEX
5
67d
8
Layer1
10
85.5000
20
63.0000
30
0.0
0
VERTEX
5
67e
8
Layer1
10
86.3000
20
63.0000
30
0.0
0
VERTEX
5
67f
8
Layer1
10
86.3000
20
66.5000
30
0.0
0
VERTEX
5
680
8
Layer1
10
85.5000
20
66.5000
30
0.0
0
VERTEX
5
681
8
Layer1
10
85.5000
20
71.5000
30
0.0
0
VERTEX
5
682
8
Layer1
10
86.3000
20
71.5000
30
0.0
0
VERTEX
5
683
8
Layer1
10
86.3000
20
75.0000
30
0.0
0
VERTEX
5
684
8
Layer1
10
85.5000
20
75.0000
30
0.0
0
VERTEX
5
685
8
Layer1
10
85.5000
20
76.0000
30
0.0
0
VERTEX
5
686
8
Layer1
10
71.5000
20
76.0000
30
0.0
0
VERTEX
5
687
8
Layer1
10
71.5000
20
75.0000
30
0.0
0
VERTEX
5
688
8
Layer1
10
70.7000
20
75.0000
30
0.0
0
VERTEX
5
689
8
Layer1
10
70.7000
20
71.5000
30
0.0
0
VERTEX
5
68a
8
Layer1
10
71.5000
20
71.5000
30
0.0
0
VERTEX
5
68b
8
Layer1
10
71.5000
20
66.5000
30
0.0
0
VERTEX
5
68c
8
Layer1
10
70.7000
20
66.5000
30
0.0
0
VERTEX
5
68d
8
Layer1
10
70.7000
20
63.0000
30
0.0
0
VERTEX
5
68e
8
Layer1
10
71.5000
20
63.0000
30
0.0
0
VERTEX
5
68f
8
Layer1
10
71.5000
20
62.0000
30
0.0
0
VERTEX
5
690
8
Layer1
10
85.5000
20
62.0000
30
0.0
0
VERTEX
5
691
8
Layer1
10
85.5000
20
63.0000
30
0.0
0
SEQEND
5
692
8
Layer1
0
POLYLINE
5
693
8
Layer1
66
1
10
0.0
20
0.0
30
0.0
70
1
0
VERTEX
5
694
8
Layer1
10
109.2500
20
63.0000
30
0.0
0
VERTEX
5
695
8
Layer1
10
110.0500
20
63.0000
30
0.0
0
VERTEX
5
696
8
Layer1
10
110.0500
20
66.5000
30
0.0
0
VERTEX
5
697
8
Layer1
10
109.2500
20
66.5000
30
0.0
0
VERTEX
5
698
8
Layer1
10
109.2500
20
71.5000
30
0.0
0
VERTEX
5
699
8
Layer1
10
110.0500
20
71.5000
30
0.0
0
VERTEX
5
69a
8
Layer1
10
110.0500
20
75.0000
30
0.0
0
VERTEX
5
69b
8
Layer1
10
109.2500
20
75.0000
30
0.0
0
VERTEX
5
69c
8
Layer1
10
109.2500
20
76.0000
30
0.0
0
VERTEX
5
69d
8
Layer1
10
95.2500
20
76.0000
30
0.0
0
VERTEX
5
69e
8
Layer1
10
95.2500
20
75.0000
30
0.0
0
VERTEX
5
69f
8
Layer1
10
94.4500
20
75.0000
30
0.0
0
VERTEX
5
6a0
8
Layer1
10
94.4500
20
71.5000
30
0.0
0
VERTEX
5
6a1
8
Layer1
10
95.2500
20
71.5000
30
0.0
0
VERTEX
5
6a2
8
Layer1
10
95.2500
20
66.5000
30
0.0
0
VERTEX
5
6a3
8
Layer1
10
94.4500
20
66.5000
30
0.0
0
VERTEX
5
6a4
8
Layer1
10
94.4500
20
63.0000
30
0.0
0
VERTEX
5
6a5
8
Layer1
10
95.2500
20
63.0000
30
0.0
0
VERTEX
5
6a6
8
Layer1
10
95.2500
20
62.0000
30
0.0
0
VERTEX
5
6a7
8
Layer1
10
109.2500
20
62.0000
30
0.0
0
VERTEX
5
6a8
8
Layer1
10
109.2500
20
63.0000
30
0.0
0
SEQEND
5
6a9
8
Layer1
0
POLYLINE
5
6aa
8
Layer1
66
1
10
0.0
20
0.0
30
0.0
70
1
0
VERTEX
5
6ab
8
Layer1
10
128.2500
20
63.0000
30
0.0
0
VERTEX
5
6ac
8
Layer1
10
129.0500
20
63.0000
30
0.0
0
VERTEX
5
6ad
8
Layer1
10
129.0500
20
66.5000
30
0.0
0
VERTEX
5
6ae
8
Layer1
10
128.2500
20
66.5000
30
0.0
0
VERTEX
5
6af
8
Layer1
10
128.2500
20
71.5000
30
0.0
0
VERTEX
5
6b0
8
Layer1
10
129.0500
20
71.5000
30
0.0
0
VERTEX
5
6b1
8
Layer1
10
129.0500
20
75.0000
30
0.0
0
VERTEX
5
6b2
8
Layer1
10
128.2500
20
75.0000
30
0.0
0
VERTEX
5
6b3
8
Layer1
10
128.2500
20
76.0000
30
0.0
0
VERTEX
5
6b4
8
Layer1
10
114.2500
20
76.0000
30
0.0
0
VERTEX
5
6b5
8
Layer1
10
114.2500
20
75.0000
30
0.0
0
VERTEX
5
6b6
8
Layer1
10
113.4500
20
75.0000
30
0.0
0
VERTEX
5
6b7
8
Layer1
10
113.4500
20
71.5000
30
0.0
0
VERTEX
5
6b8
8
Layer1
10
114.2500
20
71.5000
30
0.0
0
VERTEX
5
6b9
8
Layer1
10
114.2500
20
66.5000
30
0.0
0
VERTEX
5
6ba
8
Layer1
10
113.4500
20
66.5000
30
0.0
0
VERTEX
5
6bb
8
Layer1
10
113.4500
20
63.0000
30
0.0
0
VERTEX
5
6bc
8
Layer1
10
114.2500
20
63.0000
30
0.0
0
VERTEX
5
6bd
8
Layer1
10
114.2500
20
62.0000
30
0.0
0
VERTEX
5
6be
8
Layer1
10
128.2500
20
62.0000
30
0.0
0
VERTEX
5
6bf
8
Layer1
10
128.2500
20
63.0000
30
0.0
0
SEQEND
5
6c0
8
Layer1
0
POLYLINE
5
6c1
8
Layer1
66
1
10
0.0
20
0.0
30
0.0
70
1
0
VERTEX
5
6c2
8
Layer1
10
147.2500
20
63.0000
30
0.0
0
VERTEX
5
6c3
8
Layer1
10
148.0500
20
63.0000
30
0.0
0
VERTEX
5
6c4
8
Layer1
10
148.0500
20
66.5000
30
0.0
0
VERTEX
5
6c5
8
Layer1
10
147.2500
20
66.5000
30
0.0
0
VERTEX
5
6c6
8
Layer1
10
147.2500
20
71.5000
30
0.0
0
VERTEX
5
6c7
8
Layer1
10
148.0500
20
71.5000
30
0.0
0
VERTEX
5
6c8
8
Layer1
10
148.0500
20
75.0000
30
0.0
0
VERTEX
5
6c9
8
Layer1
10
147.2500
20
75.0000
30
0.0
0
VERTEX
5
6ca
8
Layer1
10
147.2500
20
76.0000
30
0.0
0
VERTEX
5
6cb
8
Layer1
10
133.2500
20
76.0000
30
0.0
0
VERTEX
5
6cc
8
Layer1
10
133.2500
20
75.0000
30
0.0
0
VERTEX
5
6cd
8
Layer1
10
132.4500
20
75.0000
30
0.0
0
VERTEX
5
6ce
8
Layer1
10
132.4500
20
71.5000
30
0.0
0
VERTEX
5
6cf
8
Layer1
10
133.2500
20
71.5000
30
0.0
0
VERTEX
5
6d0
8
Layer1
10
133.2500
20
66.5000
30
0.0
0
VERTEX
5
6d1
8
Layer1
10
132.4500
20
66.5000
30
0.0
0
VERTEX
5
6d2
8
Layer1
10
132.4500
20
63.0000
30
0.0
0
VERTEX
5
6d3
8
Layer1
10
133.2500
20
63.0000
30
0.0
0
VERTEX
5
6d4
8
Layer1
10
133.2500
20
62.0000
30
0.0
0
VERTEX
5
6d5
8
Layer1
10
147.2500
20
62.0000
30
0.0
0
VERTEX
5
6d6
8
Layer1
10
147.2500
20
63.0000
30
0.0
0
SEQEND
5
6d7
8
Layer1
0
POLYLINE
5
6d8
8
Layer1
66
1
10
0.0
20
0.0
30
0.0
70
1
0
VERTEX
5
6d9
8
Layer1
10
166.2500
20
63.0000
30
0.0
0
VERTEX
5
6da
8
Layer1
10
167.0500
20
63.0000
30
0.0
0
VERTEX
5
6db
8
Layer1
10
167.0500
20
66.5000
30
0.0
0
VERTEX
5
6dc
8
Layer1
10
166.2500
20
66.5000
30
0.0
0
VERTEX
5
6dd
8
Layer1
10
166.2500
20
71.5000
30
0.0
0
VERTEX
5
6de
8
Layer1
10
167.0500
20
71.5000
30
0.0
0
VERTEX
5
6df
8
Layer1
10
167.0500
20
75.0000
30
0.0
0
VERTEX
5
6e0
8
Layer1
10
166.2500
20
75.0000
30
0.0
0
VERTEX
5
6e1
8
Layer1
10
166.2500
20
76.0000
30
0.0
0
VERTEX
5
6e2
8
Layer1
10
152.2500
20
76.0000
30
0.0
0
VERTEX
5
6e3
8
Layer1
10
152.2500
20
75.0000
30
0.0
0
VERTEX
5
6e4
8
Layer1
10
151.4500
20
75.0000
30
0.0
0
VERTEX
5
6e5
8
Layer1
10
151.4500
20
71.5000
30
0.0
0
VERTEX
5
6e6
8
Layer1
10
152.2500
20
71.5000
30
0.0
0
VERTEX
5
6e7
8
Layer1
10
152.2500
20
66.5000
30
0.0
0
VERTEX
5
6e8
8
Layer1
10
151.4500
20
66.5000
30
0.0
0
VERTEX
5
6e9
8
Layer1
10
151.4500
20
63.0000
30
0.0
0
VERTEX
5
6ea
8
Layer1
10
152.2500
20
63.0000
30
0.0
0
VERTEX
5
6eb
8
Layer1
10
152.2500
20
62.0000
30
0.0
0
VERTEX
5
6ec
8
Layer1
10
166.2500
20
62.0000
30
0.0
0
VERTEX
5
6ed
8
Layer1
10
166.2500
20
63.0000
30
0.0
0
SEQEND
5
6ee
8
Layer1
0
POLYLINE
5
6ef
8
Layer1
66
1
10
0.0
20
0.0
30
0.0
70
1
0
VERTEX
5
6f0
8
Layer1
10
185.2500
20
63.0000
30
0.0
0
VERTEX
5
6f1
8
Layer1
10
186.0500
20
63.0000
30
0.0
0
VERTEX
5
6f2
8
Layer1
10
186.0500
20
66.5000
30
0.0
0
VERTEX
5
6f3
8
Layer1
10
185.2500
20
66.5000
30
0.0
0
VERTEX
5
6f4
8
Layer1
10
185.2500
20
71.5000
30
0.0
0
VERTEX
5
6f5
8
Layer1
10
186.0500
20
71.5000
30
0.0
0
VERTEX
5
6f6
8
Layer1
10
186.0500
20
75.0000
30
0.0
0
VERTEX
5
6f7
8
Layer1
10
185.2500
20
75.0000
30
0.0
0
VERTEX
5
6f8
8
Layer1
10
185.2500
20
76.0000
30
0.0
0
VERTEX
5
6f9
8
Layer1
10
171.2500
20
76.0000
30
0.0
0
VERTEX
5
6fa
8
Layer1
10
171.2500
20
75.0000
30
0.0
0
VERTEX
5
6fb
8
Layer1
10
170.4500
20
75.0000
30
0.0
0
VERTEX
5
6fc
8
Layer1
10
170.4500
20
71.5000
30
0.0
0
VERTEX
5
6fd
8
Layer1
10
171.2500
20
71.5000
30
0.0
0
VERTEX
5
6fe
8
Layer1
10
171.2500
20
66.5000
30
0.0
0
VERTEX
5
6ff
8
Layer1
10
170.4500
20
66.5000
30
0.0
0
VERTEX
5
700
8
Layer1
10
170.4500
20
63.0000
30
0.0
0
VERTEX
5
701
8
Layer1
10
171.2500
20
63.0000
30
0.0
0
VERTEX
5
702
8
Layer1
10
171.2500
20
62.0000
30
0.0
0
VERTEX
5
703
8
Layer1
10
185.2500
20
62.0000
30
0.0
0
VERTEX
5
704
8
Layer1
10
185.2500
20
63.0000
30
0.0
0
SEQEND
5
705
8
Layer1
0
POLYLINE
5
706
8
Layer1
66
1
10
0.0
20
0.0
30
0.0
70
1
0
VERTEX
5
707
8
Layer1
10
204.2500
20
63.0000
30
0.0
0
VERTEX
5
708
8
Layer1
10
205.0500
20
63.0000
30
0.0
0
VERTEX
5
709
8
Layer1
10
205.0500
20
66.5000
30
0.0
0
VERTEX
5
70a
8
Layer1
10
204.2500
20
66.5000
30
0.0
0
VERTEX
5
70b
8
Layer1
10
204.2500
20
71.5000
30
0.0
0
VERTEX
5
70c
8
Layer1
10
205.0500
20
71.5000
30
0.0
0
VERTEX
5
70d
8
Layer1
10
205.0500
20
75.0000
30
0.0
0
VERTEX
5
70e
8
Layer1
10
204.2500
20
75.0000
30
0.0
0
VERTEX
5
70f
8
Layer1
10
204.2500
20
76.0000
30
0.0
0
VERTEX
5
710
8
Layer1
10
190.2500
20
76.0000
30
0.0
0
VERTEX
5
711
8
Layer1
10
190.2500
20
75.0000
30
0.0
0
VERTEX
5
712
8
Layer1
10
189.4500
20
75.0000
30
0.0
0
VERTEX
5
713
8
Layer1
10
189.4500
20
71.5000
30
0.0
0
VERTEX
5
714
8
Layer1
10
190.2500
20
71.5000
30
0.0
0
VERTEX
5
715
8
Layer1
10
190.2500
20
66.5000
30
0.0
0
VERTEX
5
716
8
Layer1
10
189.4500
20
66.5000
30
0.0
0
VERTEX
5
717
8
Layer1
10
189.4500
20
63.0000
30
0.0
0
VERTEX
5
718
8
Layer1
10
190.2500
20
63.0000
30
0.0
0
VERTEX
5
719
8
Layer1
10
190.2500
20
62.0000
30
0.0
0
VERTEX
5
71a
8
Layer1
10
204.2500
20
62.0000
30
0.0
0
VERTEX
5
71b
8
Layer1
10
204.2500
20
63.0000
30
0.0
0
SEQEND
5
71c
8
Layer1
0
POLYLINE
5
71d
8
Layer1
66
1
10
0.0
20
0.0
30
0.0
70
1
0
VERTEX
5
71e
8
Layer1
10
223.2500
20
63.0000
30
0.0
0
VERTEX
5
71f
8
Layer1
10
224.0500
20
63.0000
30
0.0
0
VERTEX
5
720
8
Layer1
10
224.0500
20
66.5000
30
0.0
0
VERTEX
5
721
8
Layer1
10
223.2500
20
66.5000
30
0.0
0
VERTEX
5
722
8
Layer1
10
223.2500
20
71.5000
30
0.0
0
VERTEX
5
723
8
Layer1
10
224.0500
20
71.5000
30
0.0
0
VERTEX
5
724
8
Layer1
10
224.0500
20
75.0000
30
0.0
0
VERTEX
5
725
8
Layer1
10
223.2500
20
75.0000
30
0.0
0
VERTEX
5
726
8
Layer1
10
223.2500
20
76.0000
30
0.0
0
VERTEX
5
727
8
Layer1
10
209.2500
20
76.0000
30
0.0
0
VERTEX
5
728
8
Layer1
10
209.2500
20
75.0000
30
0.0
0
VERTEX
5
729
8
Layer1
10
208.4500
20
75.0000
30
0.0
0
VERTEX
5
72a
8
Layer1
10
208.4500
20
71.5000
30
0.0
0
VERTEX
5
72b
8
Layer1
10
209.2500
20
71.5000
30
0.0
0
VERTEX
5
72c
8
Layer1
10
209.2500
20
66.5000
30
0.0
0
VERTEX
5
72d
8
Layer1
10
208.4500
20
66.5000
30
0.0
0
VERTEX
5
72e
8
Layer1
10
208.4500
20
63.0000
30
0.0
0
VERTEX
5
72f
8
Layer1
10
209.2500
20
63.0000
30
0.0
0
VERTEX
5
730
8
Layer1
10
209.2500
20
62.0000
30
0.0
0
VERTEX
5
731
8
Layer1
10
223.2500
20
62.0000
30
0.0
0
VERTEX
5
732
8
Layer1
10
223.2500
20
63.0000
30
0.0
0
SEQEND
5
733
8
Layer1
0
POLYLINE
5
734
8
Layer1
66
1
10
0.0
20
0.0
30
0.0
70
1
0
VERTEX
5
735
8
Layer1
10
242.2500
20
63.0000
30
0.0
0
VERTEX
5
736
8
Layer1
10
243.0500
20
63.0000
30
0.0
0
VERTEX
5
737
8
Layer1
10
243.0500
20
66.5000
30
0.0
0
VERTEX
5
738
8
Layer1
10
242.2500
20
66.5000
30
0.0
0
VERTEX
5
739
8
Layer1
10
242.2500
20
71.5000
30
0.0
0
VERTEX
5
73a
8
Layer1
10
243.0500
20
71.5000
30
0.0
0
VERTEX
5
73b
8
Layer1
10
243.0500
20
75.0000
30
0.0
0
VERTEX
5
73c
8
Layer1
10
242.2500
20
75.0000
30
0.0
0
VERTEX
5
73d
8
Layer1
10
242.2500
20
76.0000
30
0.0
0
VERTEX
5
73e
8
Layer1
10
228.2500
20
76.0000
30
0.0
0
VERTEX
5
73f
8
Layer1
10
228.2500
20
75.0000
30
0.0
0
VERTEX
5
740
8
Layer1
10
227.4500
20
75.0000
30
0.0
0
VERTEX
5
741
8
Layer1
10
227.4500
20
71.5000
30
0.0
0
VERTEX
5
742
8
Layer1
10
228.2500
20
71.5000
30
0.0
0
VERTEX
5
743
8
Layer1
10
228.2500
20
66.5000
30
0.0
0
VERTEX
5
744
8
Layer1
10
227.4500
20
66.5000
30
0.0
0
VERTEX
5
745
8
Layer1
10
227.4500
20
63.0000
30
0.0
0
VERTEX
5
746
8
Layer1
10
228.2500
20
63.0000
30
0.0
0
VERTEX
5
747
8
Layer1
10
228.2500
20
62.0000
30
0.0
0
VERTEX
5
748
8
Layer1
10
242.2500
20
62.0000
30
0.0
0
VERTEX
5
749
8
Layer1
10
242.2500
20
63.0000
30
0.0
0
SEQEND
5
74a
8
Layer1
0
POLYLINE
5
74b
8
Layer1
66
1
10
0.0
20
0.0
30
0.0
70
1
0
VERTEX
5
74c
8
Layer1
10
261.2500
20
63.0000
30
0.0
0
VERTEX
5
74d
8
Layer1
10
262.0500
20
63.0000
30
0.0
0
VERTEX
5
74e
8
Layer1
10
262.0500
20
66.5000
30
0.0
0
VERTEX
5
74f
8
Layer1
10
261.2500
20
66.5000
30
0.0
0
VERTEX
5
750
8
Layer1
10
261.2500
20
71.5000
30
0.0
0
VERTEX
5
751
8
Layer1
10
262.0500
20
71.5000
30
0.0
0
VERTEX
5
752
8
Layer1
10
262.0500
20
75.0000
30
0.0
0
VERTEX
5
753
8
Layer1
10
261.2500
20
75.0000
30
0.0
0
VERTEX
5
754
8
Layer1
10
261.2500
20
76.0000
30
0.0
0
VERTEX
5
755
8
Layer1
10
247.2500
20
76.0000
30
0.0
0
VERTEX
5
756
8
Layer1
10
247.2500
20
75.0000
30
0.0
0
VERTEX
5
757
8
Layer1
10
246.4500
20
75.0000
30
0.0
0
VERTEX
5
758
8
Layer1
10
246.4500
20
71.5000
30
0.0
0
VERTEX
5
759
8
Layer1
10
247.2500
20
71.5000
30
0.0
0
VERTEX
5
75a
8
Layer1
10
247.2500
20
66.5000
30
0.0
0
VERTEX
5
75b
8
Layer1
10
246.4500
20
66.5000
30
0.0
0
VERTEX
5
75c
8
Layer1
10
246.4500
20
63.0000
30
0.0
0
VERTEX
5
75d
8
Layer1
10
247.2500
20
63.0000
30
0.0
0
VERTEX
5
75e
8
Layer1
10
247.2500
20
62.0000
30
0.0
0
VERTEX
5
75f
8
Layer1
10
261.2500
20
62.0000
30
0.0
0
VERTEX
5
760
8
Layer1
10
261.2500
20
63.0000
30
0.0
0
SEQEND
5
761
8
Layer1
0
POLYLINE
5
762
8
Layer1
66
1
10
0.0
20
0.0
30
0.0
70
1
0
VERTEX
5
763
8
Layer1
10
280.2500
20
63.0000
30
0.0
0
VERTEX
5
764
8
Layer1
10
281.0500
20
63.0000
30
0.0
0
VERTEX
5
765
8
Layer1
10
281.0500
20
66.5000
30
0.0
0
VERTEX
5
766
8
Layer1
10
280.2500
20
66.5000
30
0.0
0
VERTEX
5
767
8
Layer1
10
280.2500
20
71.5000
30
0.0
0
VERTEX
5
768
8
Layer1
10
281.0500
20
71.5000
30
0.0
0
VERTEX
5
769
8
Layer1
10
281.0500
20
75.0000
30
0.0
0
VERTEX
5
76a
8
Layer1
10
280.2500
20
75.0000
30
0.0
0
VERTEX
5
76b
8
Layer1
10
280.2500
20
76.0000
30
0.0
0
VERTEX
5
76c
8
Layer1
10
266.2500
20
76.0000
30
0.0
0
VERTEX
5
76d
8
Layer1
10
266.2500
20
75.0000
30
0.0
0
VERTEX
5
76e
8
Layer1
10
265.4500
20
75.0000
30
0.0
0
VERTEX
5
76f
8
Layer1
10
265.4500
20
71.5000
30
0.0
0
VERTEX
5
770
8
Layer1
10
266.2500
20
71.5000
30
0.0
0
VERTEX
5
771
8
Layer1
10
266.2500
20
66.5000
30
0.0
0
VERTEX
5
772
8
Layer1
10
265.4500
20
66.5000
30
0.0
0
VERTEX
5
773
8
Layer1
10
265.4500
20
63.0000
30
0.0
0
VERTEX
5
774
8
Layer1
10
266.2500
20
63.0000
30
0.0
0
VERTEX
5
775
8
Layer1
10
266.2500
20
62.0000
30
0.0
0
VERTEX
5
776
8
Layer1
10
280.2500
20
62.0000
30
0.0
0
VERTEX
5
777
8
Layer1
10
280.2500
20
63.0000
30
0.0
0
SEQEND
5
778
8
Layer1
0
POLYLINE
5
779
8
Layer1
66
1
10
0.0
20
0.0
30
0.0
70
1
0
VERTEX
5
77a
8
Layer1
10
299.2500
20
63.0000
30
0.0
0
VERTEX
5
77b
8
Layer1
10
300.0500
20
63.0000
30
0.0
0
VERTEX
5
77c
8
Layer1
10
300.0500
20
66.5000
30
0.0
0
VERTEX
5
77d
8
Layer1
10
299.2500
20
66.5000
30
0.0
0
VERTEX
5
77e
8
Layer1
10
299.2500
20
71.5000
30
0.0
0
VERTEX
5
77f
8
Layer1
10
300.0500
20
71.5000
30
0.0
0
VERTEX
5
780
8
Layer1
10
300.0500
20
75.0000
30
0.0
0
VERTEX
5
781
8
Layer1
10
299.2500
20
75.0000
30
0.0
0
VERTEX
5
782
8
Layer1
10
299.2500
20
76.0000
30
0.0
0
VERTEX
5
783
8
Layer1
10
285.2500
20
76.0000
30
0.0
0
VERTEX
5
784
8
Layer1
10
285.2500
20
75.0000
30
0.0
0
VERTEX
5
785
8
Layer1
10
284.4500
20
75.0000
30
0.0
0
VERTEX
5
786
8
Layer1
10
284.4500
20
71.5000
30
0.0
0
VERTEX
5
787
8
Layer1
10
285.2500
20
71.5000
30
0.0
0
VERTEX
5
788
8
Layer1
10
285.2500
20
66.5000
30
0.0
0
VERTEX
5
789
8
Layer1
10
284.4500
20
66.5000
30
0.0
0
VERTEX
5
78a
8
Layer1
10
284.4500
20
63.0000
30
0.0
0
VERTEX
5
78b
8
Layer1
10
285.2500
20
63.0000
30
0.0
0
VERTEX
5
78c
8
Layer1
10
285.2500
20
62.0000
30
0.0
0
VERTEX
5
78d
8
Layer1
10
299.2500
20
62.0000
30
0.0
0
VERTEX
5
78e
8
Layer1
10
299.2500
20
63.0000
30
0.0
0
SEQEND
5
78f
8
Layer1
0
POLYLINE
5
790
8
Layer1
66
1
10
0.0
20
0.0
30
0.0
70
1
0
VERTEX
5
791
8
Layer1
10
318.2500
20
63.0000
30
0.0
0
VERTEX
5
792
8
Layer1
10
319.0500
20
63.0000
30
0.0
0
VERTEX
5
793
8
Layer1
10
319.0500
20
66.5000
30
0.0
0
VERTEX
5
794
8
Layer1
10
318.2500
20
66.5000
30
0.0
0
VERTEX
5
795
8
Layer1
10
318.2500
20
71.5000
30
0.0
0
VERTEX
5
796
8
Layer1
10
319.0500
20
71.5000
30
0.0
0
VERTEX
5
797
8
Layer1
10
319.0500
20
75.0000
30
0.0
0
VERTEX
5
798
8
Layer1
10
318.2500
20
75.0000
30
0.0
0
VERTEX
5
799
8
Layer1
10
318.2500
20
76.0000
30
0.0
0
VERTEX
5
79a
8
Layer1
10
304.2500
20
76.0000
30
0.0
0
VERTEX
5
79b
8
Layer1
10
304.2500
20
75.0000
30
0.0
0
VERTEX
5
79c
8
Layer1
10
303.4500
20
75.0000
30
0.0
0
VERTEX
5
79d
8
Layer1
10
303.4500
20
71.5000
30
0.0
0
VERTEX
5
79e
8
Layer1
10
304.2500
20
71.5000
30
0.0
0
VERTEX
5
79f
8
Layer1
10
304.2500
20
66.5000
30
0.0
0
VERTEX
5
7a0
8
Layer1
10
303.4500
20
66.5000
30
0.0
0
VERTEX
5
7a1
8
Layer1
10
303.4500
20
63.0000
30
0.0
0
VERTEX
5
7a2
8
Layer1
10
304.2500
20
63.0000
30
0.0
0
VERTEX
5
7a3
8
Layer1
10
304.2500
20
62.0000
30
0.0
0
VERTEX
5
7a4
8
Layer1
10
318.2500
20
62.0000
30
0.0
0
VERTEX
5
7a5
8
Layer1
10
318.2500
20
63.0000
30
0.0
0
SEQEND
5
7a6
8
Layer1
0
POLYLINE
5
7a7
8
Layer1
66
1
10
0.0
20
0.0
30
0.0
70
1
0
VERTEX
5
7a8
8
Layer1
10
342.0000
20
63.0000
30
0.0
0
VERTEX
5
7a9
8
Layer1
10
342.8000
20
63.0000
30
0.0
0
VERTEX
5
7aa
8
Layer1
10
342.8000
20
66.5000
30
0.0
0
VERTEX
5
7ab
8
Layer1
10
342.0000
20
66.5000
30
0.0
0
VERTEX
5
7ac
8
Layer1
10
342.0000
20
71.5000
30
0.0
0
VERTEX
5
7ad
8
Layer1
10
342.8000
20
71.5000
30
0.0
0
VERTEX
5
7ae
8
Layer1
10
342.8000
20
75.0000
30
0.0
0
VERTEX
5
7af
8
Layer1
10
342.0000
20
75.0000
30
0.0
0
VERTEX
5
7b0
8
Layer1
10
342.0000
20
76.0000
30
0.0
0
VERTEX
5
7b1
8
Layer1
10
328.0000
20
76.0000
30
0.0
0
VERTEX
5
7b2
8
Layer1
10
328.0000
20
75.0000
30
0.0
0
VERTEX
5
7b3
8
Layer1
10
327.2000
20
75.0000
30
0.0
0
VERTEX
5
7b4
8
Layer1
10
327.2000
20
71.5000
30
0.0
0
VERTEX
5
7b5
8
Layer1
10
328.0000
20
71.5000
30
0.0
0
VERTEX
5
7b6
8
Layer1
10
328.0000
20
66.5000
30
0.0
0
VERTEX
5
7b7
8
Layer1
10
327.2000
20
66.5000
30
0.0
0
VERTEX
5
7b8
8
Layer1
10
327.2000
20
63.0000
30
0.0
0
VERTEX
5
7b9
8
Layer1
10
328.0000
20
63.0000
30
0.0
0
VERTEX
5
7ba
8
Layer1
10
328.0000
20
62.0000
30
0.0
0
VERTEX
5
7bb
8
Layer1
10
342.0000
20
62.0000
30
0.0
0
VERTEX
5
7bc
8
Layer1
10
342.0000
20
63.0000
30
0.0
0
SEQEND
5
7bd
8
Layer1
0
POLYLINE
5
7be
8
Layer1
66
1
10
0.0
20
0.0
30
0.0
70
1
0
VERTEX
5
7bf
8
Layer1
10
370.5000
20
63.0000
30
0.0
0
VERTEX
5
7c0
8
Layer1
10
371.3000
20
63.0000
30
0.0
0
VERTEX
5
7c1
8
Layer1
10
371.3000
20
66.5000
30
0.0
0
VERTEX
5
7c2
8
Layer1
10
370.5000
20
66.5000
30
0.0
0
VERTEX
5
7c3
8
Layer1
10
370.5000
20
71.5000
30
0.0
0
VERTEX
5
7c4
8
Layer1
10
371.3000
20
71.5000
30
0.0
0
VERTEX
5
7c5
8
Layer1
10
371.3000
20
75.0000
30
0.0
0
VERTEX
5
7c6
8
Layer1
10
370.5000
20
75.0000
30
0.0
0
VERTEX
5
7c7
8
Layer1
10
370.5000
20
76.0000
30
0.0
0
VERTEX
5
7c8
8
Layer1
10
356.5000
20
76.0000
30
0.0
0
VERTEX
5
7c9
8
Layer1
10
356.5000
20
75.0000
30
0.0
0
VERTEX
5
7ca
8
Layer1
10
355.7000
20
75.0000
30
0.0
0
VERTEX
5
7cb
8
Layer1
10
355.7000
20
71.5000
30
0.0
0
VERTEX
5
7cc
8
Layer1
10
356.5000
20
71.5000
30
0.0
0
VERTEX
5
7cd
8
Layer1
10
356.5000
20
66.5000
30
0.0
0
VERTEX
5
7ce
8
Layer1
10
355.7000
20
66.5000
30
0.0
0
VERTEX
5
7cf
8
Layer1
10
355.7000
20
63.0000
30
0.0
0
VERTEX
5
7d0
8
Layer1
10
356.5000
20
63.0000
30
0.0
0
VERTEX
5
7d1
8
Layer1
10
356.5000
20
62.0000
30
0.0
0
VERTEX
5
7d2
8
Layer1
10
370.5000
20
62.0000
30
0.0
0
VERTEX
5
7d3
8
Layer1
10
370.5000
20
63.0000
30
0.0
0
SEQEND
5
7d4
8
Layer1
0
POLYLINE
5
7d5
8
Layer1
66
1
10
0.0
20
0.0
30
0.0
70
1
0
VERTEX
5
7d6
8
Layer1
10
389.5000
20
63.0000
30
0.0
0
VERTEX
5
7d7
8
Layer1
10
390.3000
20
63.0000
30
0.0
0
VERTEX
5
7d8
8
Layer1
10
390.3000
20
66.5000
30
0.0
0
VERTEX
5
7d9
8
Layer1
10
389.5000
20
66.5000
30
0.0
0
VERTEX
5
7da
8
Layer1
10
389.5000
20
71.5000
30
0.0
0
VERTEX
5
7db
8
Layer1
10
390.3000
20
71.5000
30
0.0
0
VERTEX
5
7dc
8
Layer1
10
390.3000
20
75.0000
30
0.0
0
VERTEX
5
7dd
8
Layer1
10
389.5000
20
75.0000
30
0.0
0
VERTEX
5
7de
8
Layer1
10
389.5000
20
76.0000
30
0.0
0
VERTEX
5
7df
8
Layer1
10
375.5000
20
76.0000
30
0.0
0
VERTEX
5
7e0
8
Layer1
10
375.5000
20
75.0000
30
0.0
0
VERTEX
5
7e1
8
Layer1
10
374.7000
20
75.0000
30
0.0
0
VERTEX
5
7e2
8
Layer1
10
374.7000
20
71.5000
30
0.0
0
VERTEX
5
7e3
8
Layer1
10
375.5000
20
71.5000
30
0.0
0
VERTEX
5
7e4
8
Layer1
10
375.5000
20
66.5000
30
0.0
0
VERTEX
5
7e5
8
Layer1
10
374.7000
20
66.5000
30
0.0
0
VERTEX
5
7e6
8
Layer1
10
374.7000
20
63.0000
30
0.0
0
VERTEX
5
7e7
8
Layer1
10
375.5000
20
63.0000
30
0.0
0
VERTEX
5
7e8
8
Layer1
10
375.5000
20
62.0000
30
0.0
0
VERTEX
5
7e9
8
Layer1
10
389.5000
20
62.0000
30
0.0
0
VERTEX
5
7ea
8
Layer1
10
389.5000
20
63.0000
30
0.0
0
SEQEND
5
7eb
8
Layer1
0
POLYLINE
5
7ec
8
Layer1
66
1
10
0.0
20
0.0
30
0.0
70
1
0
VERTEX
5
7ed
8
Layer1
10
408.5000
20
63.0000
30
0.0
0
VERTEX
5
7ee
8
Layer1
10
409.3000
20
63.0000
30
0.0
0
VERTEX
5
7ef
8
Layer1
10
409.3000
20
66.5000
30
0.0
0
VERTEX
5
7f0
8
Layer1
10
408.5000
20
66.5000
30
0.0
0
VERTEX
5
7f1
8
Layer1
10
408.5000
20
71.5000
30
0.0
0
VERTEX
5
7f2
8
Layer1
10
409.3000
20
71.5000
30
0.0
0
VERTEX
5
7f3
8
Layer1
10
409.3000
20
75.0000
30
0.0
0
VERTEX
5
7f4
8
Layer1
10
408.5000
20
75.0000
30
0.0
0
VERTEX
5
7f5
8
Layer1
10
408.5000
20
76.0000
30
0.0
0
VERTEX
5
7f6
8
Layer1
10
394.5000
20
76.0000
30
0.0
0
VERTEX
5
7f7
8
Layer1
10
394.5000
20
75.0000
30
0.0
0
VERTEX
5
7f8
8
Layer1
10
393.7000
20
75.0000
30
0.0
0
VERTEX
5
7f9
8
Layer1
10
393.7000
20
71.5000
30
0.0
0
VERTEX
5
7fa
8
Layer1
10
394.5000
20
71.5000
30
0.0
0
VERTEX
5
7fb
8
Layer1
10
394.5000
20
66.5000
30
0.0
0
VERTEX
5
7fc
8
Layer1
10
393.7000
20
66.5000
30
0.0
0
VERTEX
5
7fd
8
Layer1
10
393.7000
20
63.0000
30
0.0
0
VERTEX
5
7fe
8
Layer1
10
394.5000
20
63.0000
30
0.0
0
VERTEX
5
7ff
8
Layer1
10
394.5000
20
62.0000
30
0.0
0
VERTEX
5
800
8
Layer1
10
408.5000
20
62.0000
30
0.0
0
VERTEX
5
801
8
Layer1
10
408.5000
20
63.0000
30
0.0
0
SEQEND
5
802
8
Layer1
0
POLYLINE
5
803
8
Layer1
66
1
10
0.0
20
0.0
30
0.0
70
1
0
VERTEX
5
804
8
Layer1
10
432.2500
20
63.0000
30
0.0
0
VERTEX
5
805
8
Layer1
10
433.0500
20
63.0000
30
0.0
0
VERTEX
5
806
8
Layer1
10
433.0500
20
66.5000
30
0.0
0
VERTEX
5
807
8
Layer1
10
432.2500
20
66.5000
30
0.0
0
VERTEX
5
808
8
Layer1
10
432.2500
20
71.5000
30
0.0
0
VERTEX
5
809
8
Layer1
10
433.0500
20
71.5000
30
0.0
0
VERTEX
5
80a
8
Layer1
10
433.0500
20
75.0000
30
0.0
0
VERTEX
5
80b
8
Layer1
10
432.2500
20
75.0000
30
0.0
0
VERTEX
5
80c
8
Layer1
10
432.2500
20
76.0000
30
0.0
0
VERTEX
5
80d
8
Layer1
10
418.2500
20
76.0000
30
0.0
0
VERTEX
5
80e
8
Layer1
10
418.2500
20
75.0000
30
0.0
0
VERTEX
5
80f
8
Layer1
10
417.4500
20
75.0000
30
0.0
0
VERTEX
5
810
8
Layer1
10
417.4500
20
71.5000
30
0.0
0
VERTEX
5
811
8
Layer1
10
418.2500
20
71.5000
30
0.0
0
VERTEX
5
812
8
Layer1
10
418.2500
20
66.5000
30
0.0
0
VERTEX
5
813
8
Layer1
10
417.4500
20
66.5000
30
0.0
0
VERTEX
5
814
8
Layer1
10
417.4500
20
63.0000
30
0.0
0
VERTEX
5
815
8
Layer1
10
418.2500
20
63.0000
30
0.0
0
VERTEX
5
816
8
Layer1
10
418.2500
20
62.0000
30
0.0
0
VERTEX
5
817
8
Layer1
10
432.2500
20
62.0000
30
0.0
0
VERTEX
5
818
8
Layer1
10
432.2500
20
63.0000
30
0.0
0
SEQEND
5
819
8
Layer1
0
POLYLINE
5
81a
8
Layer1
66
1
10
0.0
20
0.0
30
0.0
70
1
0
VERTEX
5
81b
8
Layer1
10
451.2500
20
63.0000
30
0.0
0
VERTEX
5
81c
8
Layer1
10
452.0500
20
63.0000
30
0.0
0
VERTEX
5
81d
8
Layer1
10
452.0500
20
66.5000
30
0.0
0
VERTEX
5
81e
8
Layer1
10
451.2500
20
66.5000
30
0.0
0
VERTEX
5
81f
8
Layer1
10
451.2500
20
71.5000
30
0.0
0
VERTEX
5
820
8
Layer1
10
452.0500
20
71.5000
30
0.0
0
VERTEX
5
821
8
Layer1
10
452.0500
20
75.0000
30
0.0
0
VERTEX
5
822
8
Layer1
10
451.2500
20
75.0000
30
0.0
0
VERTEX
5
823
8
Layer1
10
451.2500
20
76.0000
30
0.0
0
VERTEX
5
824
8
Layer1
10
437.2500
20
76.0000
30
0.0
0
VERTEX
5
825
8
Layer1
10
437.2500
20
75.0000
30
0.0
0
VERTEX
5
826
8
Layer1
10
436.4500
20
75.0000
30
0.0
0
VERTEX
5
827
8
Layer1
10
436.4500
20
71.5000
30
0.0
0
VERTEX
5
828
8
Layer1
10
437.2500
20
71.5000
30
0.0
0
VERTEX
5
829
8
Layer1
10
437.2500
20
66.5000
30
0.0
0
VERTEX
5
82a
8
Layer1
10
436.4500
20
66.5000
30
0.0
0
VERTEX
5
82b
8
Layer1
10
436.4500
20
63.0000
30
0.0
0
VERTEX
5
82c
8
Layer1
10
437.2500
20
63.0000
30
0.0
0
VERTEX
5
82d
8
Layer1
10
437.2500
20
62.0000
30
0.0
0
VERTEX
5
82e
8
Layer1
10
451.2500
20
62.0000
30
0.0
0
VERTEX
5
82f
8
Layer1
10
451.2500
20
63.0000
30
0.0
0
SEQEND
5
830
8
Layer1
0
POLYLINE
5
831
8
Layer1
66
1
10
0.0
20
0.0
30
0.0
70
1
0
VERTEX
5
832
8
Layer1
10
470.2500
20
63.0000
30
0.0
0
VERTEX
5
833
8
Layer1
10
471.0500
20
63.0000
30
0.0
0
VERTEX
5
834
8
Layer1
10
471.0500
20
66.5000
30
0.0
0
VERTEX
5
835
8
Layer1
10
470.2500
20
66.5000
30
0.0
0
VERTEX
5
836
8
Layer1
10
470.2500
20
71.5000
30
0.0
0
VERTEX
5
837
8
Layer1
10
471.0500
20
71.5000
30
0.0
0
VERTEX
5
838
8
Layer1
10
471.0500
20
75.0000
30
0.0
0
VERTEX
5
839
8
Layer1
10
470.2500
20
75.0000
30
0.0
0
VERTEX
5
83a
8
Layer1
10
470.2500
20
76.0000
30
0.0
0
VERTEX
5
83b
8
Layer1
10
456.2500
20
76.0000
30
0.0
0
VERTEX
5
83c
8
Layer1
10
456.2500
20
75.0000
30
0.0
0
VERTEX
5
83d
8
Layer1
10
455.4500
20
75.0000
30
0.0
0
VERTEX
5
83e
8
Layer1
10
455.4500
20
71.5000
30
0.0
0
VERTEX
5
83f
8
Layer1
10
456.2500
20
71.5000
30
0.0
0
VERTEX
5
840
8
Layer1
10
456.2500
20
66.5000
30
0.0
0
VERTEX
5
841
8
Layer1
10
455.4500
20
66.5000
30
0.0
0
VERTEX
5
842
8
Layer1
10
455.4500
20
63.0000
30
0.0
0
VERTEX
5
843
8
Layer1
10
456.2500
20
63.0000
30
0.0
0
VERTEX
5
844
8
Layer1
10
456.2500
20
62.0000
30
0.0
0
VERTEX
5
845
8
Layer1
10
470.2500
20
62.0000
30
0.0
0
VERTEX
5
846
8
Layer1
10
470.2500
20
63.0000
30
0.0
0
SEQEND
5
847
8
Layer1
0
POLYLINE
5
848
8
Layer1
66
1
10
0.0
20
0.0
30
0.0
70
1
0
VERTEX
5
849
8
Layer1
10
475.4800
20
69.7500
30
0.0
0
VERTEX
5
84a
8
Layer1
10
475.4800
20
68.0750
30
0.0
0
VERTEX
5
84b
8
Layer1
10
476.2800
20
68.0750
30
0.0
0
VERTEX
5
84c
8
Layer1
10
476.2800
20
67.3000
30
0.0
0
VERTEX
5
84d
8
Layer1
10
476.2500
20
67.3000
30
0.0
0
VERTEX
5
84e
8
Layer1
10
476.2500
20
66.5000
30
0.0
0
VERTEX
5
84f
8
Layer1
10
475.2500
20
66.5000
30
0.0
0
VERTEX
5
850
8
Layer1
10
475.2500
20
52.5000
30
0.0
0
VERTEX
5
851
8
Layer1
10
476.2500
20
52.5000
30
0.0
0
VERTEX
5
852
8
Layer1
10
476.2500
20
51.7000
30
0.0
0
VERTEX
5
853
8
Layer1
10
476.2800
20
51.7000
30
0.0
0
VERTEX
5
854
8
Layer1
10
476.2800
20
50.9250
30
0.0
0
VERTEX
5
855
8
Layer1
10
475.4800
20
50.9250
30
0.0
0
VERTEX
5
856
8
Layer1
10
475.4800
20
49.2500
30
0.0
0
VERTEX
5
857
8
Layer1
10
474.4880
20
49.2500
30
0.0
0
VERTEX
5
858
8
Layer1
10
474.4880
20
45.9500
30
0.0
0
VERTEX
5
859
8
Layer1
10
475.4800
20
45.9500
30
0.0
0
VERTEX
5
85a
8
Layer1
10
475.4800
20
44.2750
30
0.0
0
VERTEX
5
85b
8
Layer1
10
481.7500
20
44.2750
30
0.0
0
VERTEX
5
85c
8
Layer1
10
481.7500
20
43.4000
30
0.0
0
VERTEX
5
85d
8
Layer1
10
484.5500
20
43.4000
30
0.0
0
VERTEX
5
85e
8
Layer1
10
484.5500
20
44.2750
30
0.0
0
VERTEX
5
85f
8
Layer1
10
487.7800
20
44.2750
30
0.0
0
VERTEX
5
860
8
Layer1
10
487.7800
20
45.9500
30
0.0
0
VERTEX
5
861
8
Layer1
10
488.4880
20
45.9500
30
0.0
0
VERTEX
5
862
8
Layer1
10
488.4880
20
49.2500
30
0.0
0
VERTEX
5
863
8
Layer1
10
487.7800
20
49.2500
30
0.0
0
VERTEX
5
864
8
Layer1
10
487.7800
20
50.9250
30
0.0
0
VERTEX
5
865
8
Layer1
10
486.9800
20
50.9250
30
0.0
0
VERTEX
5
866
8
Layer1
10
486.9800
20
51.7000
30
0.0
0
VERTEX
5
867
8
Layer1
10
488.2500
20
51.7000
30
0.0
0
VERTEX
5
868
8
Layer1
10
488.2500
20
52.5000
30
0.0
0
VERTEX
5
869
8
Layer1
10
489.2500
20
52.5000
30
0.0
0
VERTEX
5
86a
8
Layer1
10
489.2500
20
66.5000
30
0.0
0
VERTEX
5
86b
8
Layer1
10
488.2500
20
66.5000
30
0.0
0
VERTEX
5
86c
8
Layer1
10
488.2500
20
67.3000
30
0.0
0
VERTEX
5
86d
8
Layer1
10
486.9800
20
67.3000
30
0.0
0
VERTEX
5
86e
8
Layer1
10
486.9800
20
68.0750
30
0.0
0
VERTEX
5
86f
8
Layer1
10
487.7800
20
68.0750
30
0.0
0
VERTEX
5
870
8
Layer1
10
487.7800
20
69.7500
30
0.0
0
VERTEX
5
871
8
Layer1
10
488.4880
20
69.7500
30
0.0
0
VERTEX
5
872
8
Layer1
10
488.4880
20
73.0500
30
0.0
0
VERTEX
5
873
8
Layer1
10
487.7800
20
73.0500
30
0.0
0
VERTEX
5
874
8
Layer1
10
487.7800
20
74.7250
30
0.0
0
VERTEX
5
875
8
Layer1
10
484.5500
20
74.7250
30
0.0
0
VERTEX
5
876
8
Layer1
10
484.5500
20
75.6000
30
0.0
0
VERTEX
5
877
8
Layer1
10
481.7500
20
75.6000
30
0.0
0
VERTEX
5
878
8
Layer1
10
481.7500
20
74.7250
30
0.0
0
VERTEX
5
879
8
Layer1
10
475.4800
20
74.7250
30
0.0
0
VERTEX
5
87a
8
Layer1
10
475.4800
20
73.0500
30
0.0
0
VERTEX
5
87b
8
Layer1
10
474.4880
20
73.0500
30
0.0
0
VERTEX
5
87c
8
Layer1
10
474.4880
20
69.7500
30
0.0
0
VERTEX
5
87d
8
Layer1
10
475.4800
20
69.7500
30
0.0
0
SEQEND
5
87e
8
Layer1
0
POLYLINE
5
87f
8
Layer1
66
1
10
0.0
20
0.0
30
0.0
70
1
0
VERTEX
5
880
8
Layer1
10
19.0000
20
44.0000
30
0.0
0
VERTEX
5
881
8
Layer1
10
19.8000
20
44.0000
30
0.0
0
VERTEX
5
882
8
Layer1
10
19.8000
20
47.5000
30
0.0
0
VERTEX
5
883
8
Layer1
10
19.0000
20
47.5000
30
0.0
0
VERTEX
5
884
8
Layer1
10
19.0000
20
52.5000
30
0.0
0
VERTEX
5
885
8
Layer1
10
19.8000
20
52.5000
30
0.0
0
VERTEX
5
886
8
Layer1
10
19.8000
20
56.0000
30
0.0
0
VERTEX
5
887
8
Layer1
10
19.0000
20
56.0000
30
0.0
0
VERTEX
5
888
8
Layer1
10
19.0000
20
57.0000
30
0.0
0
VERTEX
5
889
8
Layer1
10
5.0000
20
57.0000
30
0.0
0
VERTEX
5
88a
8
Layer1
10
5.0000
20
56.0000
30
0.0
0
VERTEX
5
88b
8
Layer1
10
4.2000
20
56.0000
30
0.0
0
VERTEX
5
88c
8
Layer1
10
4.2000
20
52.5000
30
0.0
0
VERTEX
5
88d
8
Layer1
10
5.0000
20
52.5000
30
0.0
0
VERTEX
5
88e
8
Layer1
10
5.0000
20
47.5000
30
0.0
0
VERTEX
5
88f
8
Layer1
10
4.2000
20
47.5000
30
0.0
0
VERTEX
5
890
8
Layer1
10
4.2000
20
44.0000
30
0.0
0
VERTEX
5
891
8
Layer1
10
5.0000
20
44.0000
30
0.0
0
VERTEX
5
892
8
Layer1
10
5.0000
20
43.0000
30
0.0
0
VERTEX
5
893
8
Layer1
10
19.0000
20
43.0000
30
0.0
0
VERTEX
5
894
8
Layer1
10
19.0000
20
44.0000
30
0.0
0
SEQEND
5
895
8
Layer1
0
POLYLINE
5
896
8
Layer1
66
1
10
0.0
20
0.0
30
0.0
70
1
0
VERTEX
5
897
8
Layer1
10
38.0000
20
44.0000
30
0.0
0
VERTEX
5
898
8
Layer1
10
38.8000
20
44.0000
30
0.0
0
VERTEX
5
899
8
Layer1
10
38.8000
20
47.5000
30
0.0
0
VERTEX
5
89a
8
Layer1
10
38.0000
20
47.5000
30
0.0
0
VERTEX
5
89b
8
Layer1
10
38.0000
20
52.5000
30
0.0
0
VERTEX
5
89c
8
Layer1
10
38.8000
20
52.5000
30
0.0
0
VERTEX
5
89d
8
Layer1
10
38.8000
20
56.0000
30
0.0
0
VERTEX
5
89e
8
Layer1
10
38.0000
20
56.0000
30
0.0
0
VERTEX
5
89f
8
Layer1
10
38.0000
20
57.0000
30
0.0
0
VERTEX
5
8a0
8
Layer1
10
24.0000
20
57.0000
30
0.0
0
VERTEX
5
8a1
8
Layer1
10
24.0000
20
56.0000
30
0.0
0
VERTEX
5
8a2
8
Layer1
10
23.2000
20
56.0000
30
0.0
0
VERTEX
5
8a3
8
Layer1
10
23.2000
20
52.5000
30
0.0
0
VERTEX
5
8a4
8
Layer1
10
24.0000
20
52.5000
30
0.0
0
VERTEX
5
8a5
8
Layer1
10
24.0000
20
47.5000
30
0.0
0
VERTEX
5
8a6
8
Layer1
10
23.2000
20
47.5000
30
0.0
0
VERTEX
5
8a7
8
Layer1
10
23.2000
20
44.0000
30
0.0
0
VERTEX
5
8a8
8
Layer1
10
24.0000
20
44.0000
30
0.0
0
VERTEX
5
8a9
8
Layer1
10
24.0000
20
43.0000
30
0.0
0
VERTEX
5
8aa
8
Layer1
10
38.0000
20
43.0000
30
0.0
0
VERTEX
5
8ab
8
Layer1
10
38.0000
20
44.0000
30
0.0
0
SEQEND
5
8ac
8
Layer1
0
POLYLINE
5
8ad
8
Layer1
66
1
10
0.0
20
0.0
30
0.0
70
1
0
VERTEX
5
8ae
8
Layer1
10
57.0000
20
44.0000
30
0.0
0
VERTEX
5
8af
8
Layer1
10
57.8000
20
44.0000
30
0.0
0
VERTEX
5
8b0
8
Layer1
10
57.8000
20
47.5000
30
0.0
0
VERTEX
5
8b1
8
Layer1
10
57.0000
20
47.5000
30
0.0
0
VERTEX
5
8b2
8
Layer1
10
57.0000
20
52.5000
30
0.0
0
VERTEX
5
8b3
8
Layer1
10
57.8000
20
52.5000
30
0.0
0
VERTEX
5
8b4
8
Layer1
10
57.8000
20
56.0000
30
0.0
0
VERTEX
5
8b5
8
Layer1
10
57.0000
20
56.0000
30
0.0
0
VERTEX
5
8b6
8
Layer1
10
57.0000
20
57.0000
30
0.0
0
VERTEX
5
8b7
8
Layer1
10
43.0000
20
57.0000
30
0.0
0
VERTEX
5
8b8
8
Layer1
10
43.0000
20
56.0000
30
0.0
0
VERTEX
5
8b9
8
Layer1
10
42.2000
20
56.0000
30
0.0
0
VERTEX
5
8ba
8
Layer1
10
42.2000
20
52.5000
30
0.0
0
VERTEX
5
8bb
8
Layer1
10
43.0000
20
52.5000
30
0.0
0
VERTEX
5
8bc
8
Layer1
10
43.0000
20
47.5000
30
0.0
0
VERTEX
5
8bd
8
Layer1
10
42.2000
20
47.5000
30
0.0
0
VERTEX
5
8be
8
Layer1
10
42.2000
20
44.0000
30
0.0
0
VERTEX
5
8bf
8
Layer1
10
43.0000
20
44.0000
30
0.0
0
VERTEX
5
8c0
8
Layer1
10
43.0000
20
43.0000
30
0.0
0
VERTEX
5
8c1
8
Layer1
10
57.0000
20
43.0000
30
0.0
0
VERTEX
5
8c2
8
Layer1
10
57.0000
20
44.0000
30
0.0
0
SEQEND
5
8c3
8
Layer1
0
POLYLINE
5
8c4
8
Layer1
66
1
10
0.0
20
0.0
30
0.0
70
1
0
VERTEX
5
8c5
8
Layer1
10
87.8750
20
44.0000
30
0.0
0
VERTEX
5
8c6
8
Layer1
10
88.6750
20
44.0000
30
0.0
0
VERTEX
5
8c7
8
Layer1
10
88.6750
20
47.5000
30
0.0
0
VERTEX
5
8c8
8
Layer1
10
87.8750
20
47.5000
30
0.0
0
VERTEX
5
8c9
8
Layer1
10
87.8750
20
52.5000
30
0.0
0
VERTEX
5
8ca
8
Layer1
10
88.6750
20
52.5000
30
0.0
0
VERTEX
5
8cb
8
Layer1
10
88.6750
20
56.0000
30
0.0
0
VERTEX
5
8cc
8
Layer1
10
87.8750
20
56.0000
30
0.0
0
VERTEX
5
8cd
8
Layer1
10
87.8750
20
57.0000
30
0.0
0
VERTEX
5
8ce
8
Layer1
10
73.8750
20
57.0000
30
0.0
0
VERTEX
5
8cf
8
Layer1
10
73.8750
20
56.0000
30
0.0
0
VERTEX
5
8d0
8
Layer1
10
73.0750
20
56.0000
30
0.0
0
VERTEX
5
8d1
8
Layer1
10
73.0750
20
52.5000
30
0.0
0
VERTEX
5
8d2
8
Layer1
10
73.8750
20
52.5000
30
0.0
0
VERTEX
5
8d3
8
Layer1
10
73.8750
20
47.5000
30
0.0
0
VERTEX
5
8d4
8
Layer1
10
73.0750
20
47.5000
30
0.0
0
VERTEX
5
8d5
8
Layer1
10
73.0750
20
44.0000
30
0.0
0
VERTEX
5
8d6
8
Layer1
10
73.8750
20
44.0000
30
0.0
0
VERTEX
5
8d7
8
Layer1
10
73.8750
20
43.0000
30
0.0
0
VERTEX
5
8d8
8
Layer1
10
87.8750
20
43.0000
30
0.0
0
VERTEX
5
8d9
8
Layer1
10
87.8750
20
44.0000
30
0.0
0
SEQEND
5
8da
8
Layer1
0
POLYLINE
5
8db
8
Layer1
66
1
10
0.0
20
0.0
30
0.0
70
1
0
VERTEX
5
8dc
8
Layer1
10
114.0000
20
44.0000
30
0.0
0
VERTEX
5
8dd
8
Layer1
10
114.8000
20
44.0000
30
0.0
0
VERTEX
5
8de
8
Layer1
10
114.8000
20
47.5000
30
0.0
0
VERTEX
5
8df
8
Layer1
10
114.0000
20
47.5000
30
0.0
0
VERTEX
5
8e0
8
Layer1
10
114.0000
20
52.5000
30
0.0
0
VERTEX
5
8e1
8
Layer1
10
114.8000
20
52.5000
30
0.0
0
VERTEX
5
8e2
8
Layer1
10
114.8000
20
56.0000
30
0.0
0
VERTEX
5
8e3
8
Layer1
10
114.0000
20
56.0000
30
0.0
0
VERTEX
5
8e4
8
Layer1
10
114.0000
20
57.0000
30
0.0
0
VERTEX
5
8e5
8
Layer1
10
100.0000
20
57.0000
30
0.0
0
VERTEX
5
8e6
8
Layer1
10
100.0000
20
56.0000
30
0.0
0
VERTEX
5
8e7
8
Layer1
10
99.2000
20
56.0000
30
0.0
0
VERTEX
5
8e8
8
Layer1
10
99.2000
20
52.5000
30
0.0
0
VERTEX
5
8e9
8
Layer1
10
100.0000
20
52.5000
30
0.0
0
VERTEX
5
8ea
8
Layer1
10
100.0000
20
47.5000
30
0.0
0
VERTEX
5
8eb
8
Layer1
10
99.2000
20
47.5000
30
0.0
0
VERTEX
5
8ec
8
Layer1
10
99.2000
20
44.0000
30
0.0
0
VERTEX
5
8ed
8
Layer1
10
100.0000
20
44.0000
30
0.0
0
VERTEX
5
8ee
8
Layer1
10
100.0000
20
43.0000
30
0.0
0
VERTEX
5
8ef
8
Layer1
10
114.0000
20
43.0000
30
0.0
0
VERTEX
5
8f0
8
Layer1
10
114.0000
20
44.0000
30
0.0
0
SEQEND
5
8f1
8
Layer1
0
POLYLINE
5
8f2
8
Layer1
66
1
10
0.0
20
0.0
30
0.0
70
1
0
VERTEX
5
8f3
8
Layer1
10
133.0000
20
44.0000
30
0.0
0
VERTEX
5
8f4
8
Layer1
10
133.8000
20
44.0000
30
0.0
0
VERTEX
5
8f5
8
Layer1
10
133.8000
20
47.5000
30
0.0
0
VERTEX
5
8f6
8
Layer1
10
133.0000
20
47.5000
30
0.0
0
VERTEX
5
8f7
8
Layer1
10
133.0000
20
52.5000
30
0.0
0
VERTEX
5
8f8
8
Layer1
10
133.8000
20
52.5000
30
0.0
0
VERTEX
5
8f9
8
Layer1
10
133.8000
20
56.0000
30
0.0
0
VERTEX
5
8fa
8
Layer1
10
133.0000
20
56.0000
30
0.0
0
VERTEX
5
8fb
8
Layer1
10
133.0000
20
57.0000
30
0.0
0
VERTEX
5
8fc
8
Layer1
10
119.0000
20
57.0000
30
0.0
0
VERTEX
5
8fd
8
Layer1
10
119.0000
20
56.0000
30
0.0
0
VERTEX
5
8fe
8
Layer1
10
118.2000
20
56.0000
30
0.0
0
VERTEX
5
8ff
8
Layer1
10
118.2000
20
52.5000
30
0.0
0
VERTEX
5
900
8
Layer1
10
119.0000
20
52.5000
30
0.0
0
VERTEX
5
901
8
Layer1
10
119.0000
20
47.5000
30
0.0
0
VERTEX
5
902
8
Layer1
10
118.2000
20
47.5000
30
0.0
0
VERTEX
5
903
8
Layer1
10
118.2000
20
44.0000
30
0.0
0
VERTEX
5
904
8
Layer1
10
119.0000
20
44.0000
30
0.0
0
VERTEX
5
905
8
Layer1
10
119.0000
20
43.0000
30
0.0
0
VERTEX
5
906
8
Layer1
10
133.0000
20
43.0000
30
0.0
0
VERTEX
5
907
8
Layer1
10
133.0000
20
44.0000
30
0.0
0
SEQEND
5
908
8
Layer1
0
POLYLINE
5
909
8
Layer1
66
1
10
0.0
20
0.0
30
0.0
70
1
0
VERTEX
5
90a
8
Layer1
10
152.0000
20
44.0000
30
0.0
0
VERTEX
5
90b
8
Layer1
10
152.8000
20
44.0000
30
0.0
0
VERTEX
5
90c
8
Layer1
10
152.8000
20
47.5000
30
0.0
0
VERTEX
5
90d
8
Layer1
10
152.0000
20
47.5000
30
0.0
0
VERTEX
5
90e
8
Layer1
10
152.0000
20
52.5000
30
0.0
0
VERTEX
5
90f
8
Layer1
10
152.8000
20
52.5000
30
0.0
0
VERTEX
5
910
8
Layer1
10
152.8000
20
56.0000
30
0.0
0
VERTEX
5
911
8
Layer1
10
152.0000
20
56.0000
30
0.0
0
VERTEX
5
912
8
Layer1
10
152.0000
20
57.0000
30
0.0
0
VERTEX
5
913
8
Layer1
10
138.0000
20
57.0000
30
0.0
0
VERTEX
5
914
8
Layer1
10
138.0000
20
56.0000
30
0.0
0
VERTEX
5
915
8
Layer1
10
137.2000
20
56.0000
30
0.0
0
VERTEX
5
916
8
Layer1
10
137.2000
20
52.5000
30
0.0
0
VERTEX
5
917
8
Layer1
10
138.0000
20
52.5000
30
0.0
0
VERTEX
5
918
8
Layer1
10
138.0000
20
47.5000
30
0.0
0
VERTEX
5
919
8
Layer1
10
137.2000
20
47.5000
30
0.0
0
VERTEX
5
91a
8
Layer1
10
137.2000
20
44.0000
30
0.0
0
VERTEX
5
91b
8
Layer1
10
138.0000
20
44.0000
30
0.0
0
VERTEX
5
91c
8
Layer1
10
138.0000
20
43.0000
30
0.0
0
VERTEX
5
91d
8
Layer1
10
152.0000
20
43.0000
30
0.0
0
VERTEX
5
91e
8
Layer1
10
152.0000
20
44.0000
30
0.0
0
SEQEND
5
91f
8
Layer1
0
POLYLINE
5
920
8
Layer1
66
1
10
0.0
20
0.0
30
0.0
70
1
0
VERTEX
5
921
8
Layer1
10
171.0000
20
44.0000
30
0.0
0
VERTEX
5
922
8
Layer1
10
171.8000
20
44.0000
30
0.0
0
VERTEX
5
923
8
Layer1
10
171.8000
20
47.5000
30
0.0
0
VERTEX
5
924
8
Layer1
10
171.0000
20
47.5000
30
0.0
0
VERTEX
5
925
8
Layer1
10
171.0000
20
52.5000
30
0.0
0
VERTEX
5
926
8
Layer1
10
171.8000
20
52.5000
30
0.0
0
VERTEX
5
927
8
Layer1
10
171.8000
20
56.0000
30
0.0
0
VERTEX
5
928
8
Layer1
10
171.0000
20
56.0000
30
0.0
0
VERTEX
5
929
8
Layer1
10
171.0000
20
57.0000
30
0.0
0
VERTEX
5
92a
8
Layer1
10
157.0000
20
57.0000
30
0.0
0
VERTEX
5
92b
8
Layer1
10
157.0000
20
56.0000
30
0.0
0
VERTEX
5
92c
8
Layer1
10
156.2000
20
56.0000
30
0.0
0
VERTEX
5
92d
8
Layer1
10
156.2000
20
52.5000
30
0.0
0
VERTEX
5
92e
8
Layer1
10
157.0000
20
52.5000
30
0.0
0
VERTEX
5
92f
8
Layer1
10
157.0000
20
47.5000
30
0.0
0
VERTEX
5
930
8
Layer1
10
156.2000
20
47.5000
30
0.0
0
VERTEX
5
931
8
Layer1
10
156.2000
20
44.0000
30
0.0
0
VERTEX
5
932
8
Layer1
10
157.0000
20
44.0000
30
0.0
0
VERTEX
5
933
8
Layer1
10
157.0000
20
43.0000
30
0.0
0
VERTEX
5
934
8
Layer1
10
171.0000
20
43.0000
30
0.0
0
VERTEX
5
935
8
Layer1
10
171.0000
20
44.0000
30
0.0
0
SEQEND
5
936
8
Layer1
0
POLYLINE
5
937
8
Layer1
66
1
10
0.0
20
0.0
30
0.0
70
1
0
VERTEX
5
938
8
Layer1
10
190.0000
20
44.0000
30
0.0
0
VERTEX
5
939
8
Layer1
10
190.8000
20
44.0000
30
0.0
0
VERTEX
5
93a
8
Layer1
10
190.8000
20
47.5000
30
0.0
0
VERTEX
5
93b
8
Layer1
10
190.0000
20
47.5000
30
0.0
0
VERTEX
5
93c
8
Layer1
10
190.0000
20
52.5000
30
0.0
0
VERTEX
5
93d
8
Layer1
10
190.8000
20
52.5000
30
0.0
0
VERTEX
5
93e
8
Layer1
10
190.8000
20
56.0000
30
0.0
0
VERTEX
5
93f
8
Layer1
10
190.0000
20
56.0000
30
0.0
0
VERTEX
5
940
8
Layer1
10
190.0000
20
57.0000
30
0.0
0
VERTEX
5
941
8
Layer1
10
176.0000
20
57.0000
30
0.0
0
VERTEX
5
942
8
Layer1
10
176.0000
20
56.0000
30
0.0
0
VERTEX
5
943
8
Layer1
10
175.2000
20
56.0000
30
0.0
0
VERTEX
5
944
8
Layer1
10
175.2000
20
52.5000
30
0.0
0
VERTEX
5
945
8
Layer1
10
176.0000
20
52.5000
30
0.0
0
VERTEX
5
946
8
Layer1
10
176.0000
20
47.5000
30
0.0
0
VERTEX
5
947
8
Layer1
10
175.2000
20
47.5000
30
0.0
0
VERTEX
5
948
8
Layer1
10
175.2000
20
44.0000
30
0.0
0
VERTEX
5
949
8
Layer1
10
176.0000
20
44.0000
30
0.0
0
VERTEX
5
94a
8
Layer1
10
176.0000
20
43.0000
30
0.0
0
VERTEX
5
94b
8
Layer1
10
190.0000
20
43.0000
30
0.0
0
VERTEX
5
94c
8
Layer1
10
190.0000
20
44.0000
30
0.0
0
SEQEND
5
94d
8
Layer1
0
POLYLINE
5
94e
8
Layer1
66
1
10
0.0
20
0.0
30
0.0
70
1
0
VERTEX
5
94f
8
Layer1
10
209.0000
20
44.0000
30
0.0
0
VERTEX
5
950
8
Layer1
10
209.8000
20
44.0000
30
0.0
0
VERTEX
5
951
8
Layer1
10
209.8000
20
47.5000
30
0.0
0
VERTEX
5
952
8
Layer1
10
209.0000
20
47.5000
30
0.0
0
VERTEX
5
953
8
Layer1
10
209.0000
20
52.5000
30
0.0
0
VERTEX
5
954
8
Layer1
10
209.8000
20
52.5000
30
0.0
0
VERTEX
5
955
8
Layer1
10
209.8000
20
56.0000
30
0.0
0
VERTEX
5
956
8
Layer1
10
209.0000
20
56.0000
30
0.0
0
VERTEX
5
957
8
Layer1
10
209.0000
20
57.0000
30
0.0
0
VERTEX
5
958
8
Layer1
10
195.0000
20
57.0000
30
0.0
0
VERTEX
5
959
8
Layer1
10
195.0000
20
56.0000
30
0.0
0
VERTEX
5
95a
8
Layer1
10
194.2000
20
56.0000
30
0.0
0
VERTEX
5
95b
8
Layer1
10
194.2000
20
52.5000
30
0.0
0
VERTEX
5
95c
8
Layer1
10
195.0000
20
52.5000
30
0.0
0
VERTEX
5
95d
8
Layer1
10
195.0000
20
47.5000
30
0.0
0
VERTEX
5
95e
8
Layer1
10
194.2000
20
47.5000
30
0.0
0
VERTEX
5
95f
8
Layer1
10
194.2000
20
44.0000
30
0.0
0
VERTEX
5
960
8
Layer1
10
195.0000
20
44.0000
30
0.0
0
VERTEX
5
961
8
Layer1
10
195.0000
20
43.0000
30
0.0
0
VERTEX
5
962
8
Layer1
10
209.0000
20
43.0000
30
0.0
0
VERTEX
5
963
8
Layer1
10
209.0000
20
44.0000
30
0.0
0
SEQEND
5
964
8
Layer1
0
POLYLINE
5
965
8
Layer1
66
1
10
0.0
20
0.0
30
0.0
70
1
0
VERTEX
5
966
8
Layer1
10
228.0000
20
44.0000
30
0.0
0
VERTEX
5
967
8
Layer1
10
228.8000
20
44.0000
30
0.0
0
VERTEX
5
968
8
Layer1
10
228.8000
20
47.5000
30
0.0
0
VERTEX
5
969
8
Layer1
10
228.0000
20
47.5000
30
0.0
0
VERTEX
5
96a
8
Layer1
10
228.0000
20
52.5000
30
0.0
0
VERTEX
5
96b
8
Layer1
10
228.8000
20
52.5000
30
0.0
0
VERTEX
5
96c
8
Layer1
10
228.8000
20
56.0000
30
0.0
0
VERTEX
5
96d
8
Layer1
10
228.0000
20
56.0000
30
0.0
0
VERTEX
5
96e
8
Layer1
10
228.0000
20
57.0000
30
0.0
0
VERTEX
5
96f
8
Layer1
10
214.0000
20
57.0000
30
0.0
0
VERTEX
5
970
8
Layer1
10
214.0000
20
56.0000
30
0.0
0
VERTEX
5
971
8
Layer1
10
213.2000
20
56.0000
30
0.0
0
VERTEX
5
972
8
Layer1
10
213.2000
20
52.5000
30
0.0
0
VERTEX
5
973
8
Layer1
10
214.0000
20
52.5000
30
0.0
0
VERTEX
5
974
8
Layer1
10
214.0000
20
47.5000
30
0.0
0
VERTEX
5
975
8
Layer1
10
213.2000
20
47.5000
30
0.0
0
VERTEX
5
976
8
Layer1
10
213.2000
20
44.0000
30
0.0
0
VERTEX
5
977
8
Layer1
10
214.0000
20
44.0000
30
0.0
0
VERTEX
5
978
8
Layer1
10
214.0000
20
43.0000
30
0.0
0
VERTEX
5
979
8
Layer1
10
228.0000
20
43.0000
30
0.0
0
VERTEX
5
97a
8
Layer1
10
228.0000
20
44.0000
30
0.0
0
SEQEND
5
97b
8
Layer1
0
POLYLINE
5
97c
8
Layer1
66
1
10
0.0
20
0.0
30
0.0
70
1
0
VERTEX
5
97d
8
Layer1
10
247.0000
20
44.0000
30
0.0
0
VERTEX
5
97e
8
Layer1
10
247.8000
20
44.0000
30
0.0
0
VERTEX
5
97f
8
Layer1
10
247.8000
20
47.5000
30
0.0
0
VERTEX
5
980
8
Layer1
10
247.0000
20
47.5000
30
0.0
0
VERTEX
5
981
8
Layer1
10
247.0000
20
52.5000
30
0.0
0
VERTEX
5
982
8
Layer1
10
247.8000
20
52.5000
30
0.0
0
VERTEX
5
983
8
Layer1
10
247.8000
20
56.0000
30
0.0
0
VERTEX
5
984
8
Layer1
10
247.0000
20
56.0000
30
0.0
0
VERTEX
5
985
8
Layer1
10
247.0000
20
57.0000
30
0.0
0
VERTEX
5
986
8
Layer1
10
233.0000
20
57.0000
30
0.0
0
VERTEX
5
987
8
Layer1
10
233.0000
20
56.0000
30
0.0
0
VERTEX
5
988
8
Layer1
10
232.2000
20
56.0000
30
0.0
0
VERTEX
5
989
8
Layer1
10
232.2000
20
52.5000
30
0.0
0
VERTEX
5
98a
8
Layer1
10
233.0000
20
52.5000
30
0.0
0
VERTEX
5
98b
8
Layer1
10
233.0000
20
47.5000
30
0.0
0
VERTEX
5
98c
8
Layer1
10
232.2000
20
47.5000
30
0.0
0
VERTEX
5
98d
8
Layer1
10
232.2000
20
44.0000
30
0.0
0
VERTEX
5
98e
8
Layer1
10
233.0000
20
44.0000
30
0.0
0
VERTEX
5
98f
8
Layer1
10
233.0000
20
43.0000
30
0.0
0
VERTEX
5
990
8
Layer1
10
247.0000
20
43.0000
30
0.0
0
VERTEX
5
991
8
Layer1
10
247.0000
20
44.0000
30
0.0
0
SEQEND
5
992
8
Layer1
0
POLYLINE
5
993
8
Layer1
66
1
10
0.0
20
0.0
30
0.0
70
1
0
VERTEX
5
994
8
Layer1
10
266.0000
20
44.0000
30
0.0
0
VERTEX
5
995
8
Layer1
10
266.8000
20
44.0000
30
0.0
0
VERTEX
5
996
8
Layer1
10
266.8000
20
47.5000
30
0.0
0
VERTEX
5
997
8
Layer1
10
266.0000
20
47.5000
30
0.0
0
VERTEX
5
998
8
Layer1
10
266.0000
20
52.5000
30
0.0
0
VERTEX
5
999
8
Layer1
10
266.8000
20
52.5000
30
0.0
0
VERTEX
5
99a
8
Layer1
10
266.8000
20
56.0000
30
0.0
0
VERTEX
5
99b
8
Layer1
10
266.0000
20
56.0000
30
0.0
0
VERTEX
5
99c
8
Layer1
10
266.0000
20
57.0000
30
0.0
0
VERTEX
5
99d
8
Layer1
10
252.0000
20
57.0000
30
0.0
0
VERTEX
5
99e
8
Layer1
10
252.0000
20
56.0000
30
0.0
0
VERTEX
5
99f
8
Layer1
10
251.2000
20
56.0000
30
0.0
0
VERTEX
5
9a0
8
Layer1
10
251.2000
20
52.5000
30
0.0
0
VERTEX
5
9a1
8
Layer1
10
252.0000
20
52.5000
30
0.0
0
VERTEX
5
9a2
8
Layer1
10
252.0000
20
47.5000
30
0.0
0
VERTEX
5
9a3
8
Layer1
10
251.2000
20
47.5000
30
0.0
0
VERTEX
5
9a4
8
Layer1
10
251.2000
20
44.0000
30
0.0
0
VERTEX
5
9a5
8
Layer1
10
252.0000
20
44.0000
30
0.0
0
VERTEX
5
9a6
8
Layer1
10
252.0000
20
43.0000
30
0.0
0
VERTEX
5
9a7
8
Layer1
10
266.0000
20
43.0000
30
0.0
0
VERTEX
5
9a8
8
Layer1
10
266.0000
20
44.0000
30
0.0
0
SEQEND
5
9a9
8
Layer1
0
POLYLINE
5
9aa
8
Layer1
66
1
10
0.0
20
0.0
30
0.0
70
1
0
VERTEX
5
9ab
8
Layer1
10
285.0000
20
44.0000
30
0.0
0
VERTEX
5
9ac
8
Layer1
10
285.8000
20
44.0000
30
0.0
0
VERTEX
5
9ad
8
Layer1
10
285.8000
20
47.5000
30
0.0
0
VERTEX
5
9ae
8
Layer1
10
285.0000
20
47.5000
30
0.0
0
VERTEX
5
9af
8
Layer1
10
285.0000
20
52.5000
30
0.0
0
VERTEX
5
9b0
8
Layer1
10
285.8000
20
52.5000
30
0.0
0
VERTEX
5
9b1
8
Layer1
10
285.8000
20
56.0000
30
0.0
0
VERTEX
5
9b2
8
Layer1
10
285.0000
20
56.0000
30
0.0
0
VERTEX
5
9b3
8
Layer1
10
285.0000
20
57.0000
30
0.0
0
VERTEX
5
9b4
8
Layer1
10
271.0000
20
57.0000
30
0.0
0
VERTEX
5
9b5
8
Layer1
10
271.0000
20
56.0000
30
0.0
0
VERTEX
5
9b6
8
Layer1
10
270.2000
20
56.0000
30
0.0
0
VERTEX
5
9b7
8
Layer1
10
270.2000
20
52.5000
30
0.0
0
VERTEX
5
9b8
8
Layer1
10
271.0000
20
52.5000
30
0.0
0
VERTEX
5
9b9
8
Layer1
10
271.0000
20
47.5000
30
0.0
0
VERTEX
5
9ba
8
Layer1
10
270.2000
20
47.5000
30
0.0
0
VERTEX
5
9bb
8
Layer1
10
270.2000
20
44.0000
30
0.0
0
VERTEX
5
9bc
8
Layer1
10
271.0000
20
44.0000
30
0.0
0
VERTEX
5
9bd
8
Layer1
10
271.0000
20
43.0000
30
0.0
0
VERTEX
5
9be
8
Layer1
10
285.0000
20
43.0000
30
0.0
0
VERTEX
5
9bf
8
Layer1
10
285.0000
20
44.0000
30
0.0
0
SEQEND
5
9c0
8
Layer1
0
POLYLINE
5
9c1
8
Layer1
66
1
10
0.0
20
0.0
30
0.0
70
1
0
VERTEX
5
9c2
8
Layer1
10
304.0000
20
44.0000
30
0.0
0
VERTEX
5
9c3
8
Layer1
10
304.8000
20
44.0000
30
0.0
0
VERTEX
5
9c4
8
Layer1
10
304.8000
20
47.5000
30
0.0
0
VERTEX
5
9c5
8
Layer1
10
304.0000
20
47.5000
30
0.0
0
VERTEX
5
9c6
8
Layer1
10
304.0000
20
52.5000
30
0.0
0
VERTEX
5
9c7
8
Layer1
10
304.8000
20
52.5000
30
0.0
0
VERTEX
5
9c8
8
Layer1
10
304.8000
20
56.0000
30
0.0
0
VERTEX
5
9c9
8
Layer1
10
304.0000
20
56.0000
30
0.0
0
VERTEX
5
9ca
8
Layer1
10
304.0000
20
57.0000
30
0.0
0
VERTEX
5
9cb
8
Layer1
10
290.0000
20
57.0000
30
0.0
0
VERTEX
5
9cc
8
Layer1
10
290.0000
20
56.0000
30
0.0
0
VERTEX
5
9cd
8
Layer1
10
289.2000
20
56.0000
30
0.0
0
VERTEX
5
9ce
8
Layer1
10
289.2000
20
52.5000
30
0.0
0
VERTEX
5
9cf
8
Layer1
10
290.0000
20
52.5000
30
0.0
0
VERTEX
5
9d0
8
Layer1
10
290.0000
20
47.5000
30
0.0
0
VERTEX
5
9d1
8
Layer1
10
289.2000
20
47.5000
30
0.0
0
VERTEX
5
9d2
8
Layer1
10
289.2000
20
44.0000
30
0.0
0
VERTEX
5
9d3
8
Layer1
10
290.0000
20
44.0000
30
0.0
0
VERTEX
5
9d4
8
Layer1
10
290.0000
20
43.0000
30
0.0
0
VERTEX
5
9d5
8
Layer1
10
304.0000
20
43.0000
30
0.0
0
VERTEX
5
9d6
8
Layer1
10
304.0000
20
44.0000
30
0.0
0
SEQEND
5
9d7
8
Layer1
0
POLYLINE
5
9d8
8
Layer1
66
1
10
0.0
20
0.0
30
0.0
70
1
0
VERTEX
5
9d9
8
Layer1
10
317.6250
20
43.2300
30
0.0
0
VERTEX
5
9da
8
Layer1
10
319.3000
20
43.2300
30
0.0
0
VERTEX
5
9db
8
Layer1
10
319.3000
20
44.0300
30
0.0
0
VERTEX
5
9dc
8
Layer1
10
320.0750
20
44.0300
30
0.0
0
VERTEX
5
9dd
8
Layer1
10
320.0750
20
44.0000
30
0.0
0
VERTEX
5
9de
8
Layer1
10
320.8750
20
44.0000
30
0.0
0
VERTEX
5
9df
8
Layer1
10
320.8750
20
43.0000
30
0.0
0
VERTEX
5
9e0
8
Layer1
10
334.8750
20
43.0000
30
0.0
0
VERTEX
5
9e1
8
Layer1
10
334.8750
20
44.0000
30
0.0
0
VERTEX
5
9e2
8
Layer1
10
335.6750
20
44.0000
30
0.0
0
VERTEX
5
9e3
8
Layer1
10
335.6750
20
44.0300
30
0.0
0
VERTEX
5
9e4
8
Layer1
10
336.4500
20
44.0300
30
0.0
0
VERTEX
5
9e5
8
Layer1
10
336.4500
20
43.2300
30
0.0
0
VERTEX
5
9e6
8
Layer1
10
338.1250
20
43.2300
30
0.0
0
VERTEX
5
9e7
8
Layer1
10
338.1250
20
42.2380
30
0.0
0
VERTEX
5
9e8
8
Layer1
10
341.4250
20
42.2380
30
0.0
0
VERTEX
5
9e9
8
Layer1
10
341.4250
20
43.2300
30
0.0
0
VERTEX
5
9ea
8
Layer1
10
343.1000
20
43.2300
30
0.0
0
VERTEX
5
9eb
8
Layer1
10
343.1000
20
49.5000
30
0.0
0
VERTEX
5
9ec
8
Layer1
10
343.9750
20
49.5000
30
0.0
0
VERTEX
5
9ed
8
Layer1
10
343.9750
20
52.3000
30
0.0
0
VERTEX
5
9ee
8
Layer1
10
343.1000
20
52.3000
30
0.0
0
VERTEX
5
9ef
8
Layer1
10
343.1000
20
55.5300
30
0.0
0
VERTEX
5
9f0
8
Layer1
10
341.4250
20
55.5300
30
0.0
0
VERTEX
5
9f1
8
Layer1
10
341.4250
20
56.2380
30
0.0
0
VERTEX
5
9f2
8
Layer1
10
338.1250
20
56.2380
30
0.0
0
VERTEX
5
9f3
8
Layer1
10
338.1250
20
55.5300
30
0.0
0
VERTEX
5
9f4
8
Layer1
10
336.4500
20
55.5300
30
0.0
0
VERTEX
5
9f5
8
Layer1
10
336.4500
20
54.7300
30
0.0
0
VERTEX
5
9f6
8
Layer1
10
335.6750
20
54.7300
30
0.0
0
VERTEX
5
9f7
8
Layer1
10
335.6750
20
56.0000
30
0.0
0
VERTEX
5
9f8
8
Layer1
10
334.8750
20
56.0000
30
0.0
0
VERTEX
5
9f9
8
Layer1
10
334.8750
20
57.0000
30
0.0
0
VERTEX
5
9fa
8
Layer1
10
320.8750
20
57.0000
30
0.0
0
VERTEX
5
9fb
8
Layer1
10
320.8750
20
56.0000
30
0.0
0
VERTEX
5
9fc
8
Layer1
10
320.0750
20
56.0000
30
0.0
0
VERTEX
5
9fd
8
Layer1
10
320.0750
20
54.7300
30
0.0
0
VERTEX
5
9fe
8
Layer1
10
319.3000
20
54.7300
30
0.0
0
VERTEX
5
9ff
8
Layer1
10
319.3000
20
55.5300
30
0.0
0
VERTEX
5
a00
8
Layer1
10
317.6250
20
55.5300
30
0.0
0
VERTEX
5
a01
8
Layer1
10
317.6250
20
56.2380
30
0.0
0
VERTEX
5
a02
8
Layer1
10
314.3250
20
56.2380
30
0.0
0
VERTEX
5
a03
8
Layer1
10
314.3250
20
55.5300
30
0.0
0
VERTEX
5
a04
8
Layer1
10
312.6500
20
55.5300
30
0.0
0
VERTEX
5
a05
8
Layer1
10
312.6500
20
52.3000
30
0.0
0
VERTEX
5
a06
8
Layer1
10
311.7750
20
52.3000
30
0.0
0
VERTEX
5
a07
8
Layer1
10
311.7750
20
49.5000
30
0.0
0
VERTEX
5
a08
8
Layer1
10
312.6500
20
49.5000
30
0.0
0
VERTEX
5
a09
8
Layer1
10
312.6500
20
43.2300
30
0.0
0
VERTEX
5
a0a
8
Layer1
10
314.3250
20
43.2300
30
0.0
0
VERTEX
5
a0b
8
Layer1
10
314.3250
20
42.2380
30
0.0
0
VERTEX
5
a0c
8
Layer1
10
317.6250
20
42.2380
30
0.0
0
VERTEX
5
a0d
8
Layer1
10
317.6250
20
43.2300
30
0.0
0
SEQEND
5
a0e
8
Layer1
0
POLYLINE
5
a0f
8
Layer1
66
1
10
0.0
20
0.0
30
0.0
70
1
0
VERTEX
5
a10
8
Layer1
10
432.2500
20
44.0000
30
0.0
0
VERTEX
5
a11
8
Layer1
10
433.0500
20
44.0000
30
0.0
0
VERTEX
5
a12
8
Layer1
10
433.0500
20
47.5000
30
0.0
0
VERTEX
5
a13
8
Layer1
10
432.2500
20
47.5000
30
0.0
0
VERTEX
5
a14
8
Layer1
10
432.2500
20
52.5000
30
0.0
0
VERTEX
5
a15
8
Layer1
10
433.0500
20
52.5000
30
0.0
0
VERTEX
5
a16
8
Layer1
10
433.0500
20
56.0000
30
0.0
0
VERTEX
5
a17
8
Layer1
10
432.2500
20
56.0000
30
0.0
0
VERTEX
5
a18
8
Layer1
10
432.2500
20
57.0000
30
0.0
0
VERTEX
5
a19
8
Layer1
10
418.2500
20
57.0000
30
0.0
0
VERTEX
5
a1a
8
Layer1
10
418.2500
20
56.0000
30
0.0
0
VERTEX
5
a1b
8
Layer1
10
417.4500
20
56.0000
30
0.0
0
VERTEX
5
a1c
8
Layer1
10
417.4500
20
52.5000
30
0.0
0
VERTEX
5
a1d
8
Layer1
10
418.2500
20
52.5000
30
0.0
0
VERTEX
5
a1e
8
Layer1
10
418.2500
20
47.5000
30
0.0
0
VERTEX
5
a1f
8
Layer1
10
417.4500
20
47.5000
30
0.0
0
VERTEX
5
a20
8
Layer1
10
417.4500
20
44.0000
30
0.0
0
VERTEX
5
a21
8
Layer1
10
418.2500
20
44.0000
30
0.0
0
VERTEX
5
a22
8
Layer1
10
418.2500
20
43.0000
30
0.0
0
VERTEX
5
a23
8
Layer1
10
432.2500
20
43.0000
30
0.0
0
VERTEX
5
a24
8
Layer1
10
432.2500
20
44.0000
30
0.0
0
SEQEND
5
a25
8
Layer1
0
POLYLINE
5
a26
8
Layer1
66
1
10
0.0
20
0.0
30
0.0
70
1
0
VERTEX
5
a27
8
Layer1
10
451.2500
20
44.0000
30
0.0
0
VERTEX
5
a28
8
Layer1
10
452.0500
20
44.0000
30
0.0
0
VERTEX
5
a29
8
Layer1
10
452.0500
20
47.5000
30
0.0
0
VERTEX
5
a2a
8
Layer1
10
451.2500
20
47.5000
30
0.0
0
VERTEX
5
a2b
8
Layer1
10
451.2500
20
52.5000
30
0.0
0
VERTEX
5
a2c
8
Layer1
10
452.0500
20
52.5000
30
0.0
0
VERTEX
5
a2d
8
Layer1
10
452.0500
20
56.0000
30
0.0
0
VERTEX
5
a2e
8
Layer1
10
451.2500
20
56.0000
30
0.0
0
VERTEX
5
a2f
8
Layer1
10
451.2500
20
57.0000
30
0.0
0
VERTEX
5
a30
8
Layer1
10
437.2500
20
57.0000
30
0.0
0
VERTEX
5
a31
8
Layer1
10
437.2500
20
56.0000
30
0.0
0
VERTEX
5
a32
8
Layer1
10
436.4500
20
56.0000
30
0.0
0
VERTEX
5
a33
8
Layer1
10
436.4500
20
52.5000
30
0.0
0
VERTEX
5
a34
8
Layer1
10
437.2500
20
52.5000
30
0.0
0
VERTEX
5
a35
8
Layer1
10
437.2500
20
47.5000
30
0.0
0
VERTEX
5
a36
8
Layer1
10
436.4500
20
47.5000
30
0.0
0
VERTEX
5
a37
8
Layer1
10
436.4500
20
44.0000
30
0.0
0
VERTEX
5
a38
8
Layer1
10
437.2500
20
44.0000
30
0.0
0
VERTEX
5
a39
8
Layer1
10
437.2500
20
43.0000
30
0.0
0
VERTEX
5
a3a
8
Layer1
10
451.2500
20
43.0000
30
0.0
0
VERTEX
5
a3b
8
Layer1
10
451.2500
20
44.0000
30
0.0
0
SEQEND
5
a3c
8
Layer1
0
POLYLINE
5
a3d
8
Layer1
66
1
10
0.0
20
0.0
30
0.0
70
1
0
VERTEX
5
a3e
8
Layer1
10
470.2500
20
44.0000
30
0.0
0
VERTEX
5
a3f
8
Layer1
10
471.0500
20
44.0000
30
0.0
0
VERTEX
5
a40
8
Layer1
10
471.0500
20
47.5000
30
0.0
0
VERTEX
5
a41
8
Layer1
10
470.2500
20
47.5000
30
0.0
0
VERTEX
5
a42
8
Layer1
10
470.2500
20
52.5000
30
0.0
0
VERTEX
5
a43
8
Layer1
10
471.0500
20
52.5000
30
0.0
0
VERTEX
5
a44
8
Layer1
10
471.0500
20
56.0000
30
0.0
0
VERTEX
5
a45
8
Layer1
10
470.2500
20
56.0000
30
0.0
0
VERTEX
5
a46
8
Layer1
10
470.2500
20
57.0000
30
0.0
0
VERTEX
5
a47
8
Layer1
10
456.2500
20
57.0000
30
0.0
0
VERTEX
5
a48
8
Layer1
10
456.2500
20
56.0000
30
0.0
0
VERTEX
5
a49
8
Layer1
10
455.4500
20
56.0000
30
0.0
0
VERTEX
5
a4a
8
Layer1
10
455.4500
20
52.5000
30
0.0
0
VERTEX
5
a4b
8
Layer1
10
456.2500
20
52.5000
30
0.0
0
VERTEX
5
a4c
8
Layer1
10
456.2500
20
47.5000
30
0.0
0
VERTEX
5
a4d
8
Layer1
10
455.4500
20
47.5000
30
0.0
0
VERTEX
5
a4e
8
Layer1
10
455.4500
20
44.0000
30
0.0
0
VERTEX
5
a4f
8
Layer1
10
456.2500
20
44.0000
30
0.0
0
VERTEX
5
a50
8
Layer1
10
456.2500
20
43.0000
30
0.0
0
VERTEX
5
a51
8
Layer1
10
470.2500
20
43.0000
30
0.0
0
VERTEX
5
a52
8
Layer1
10
470.2500
20
44.0000
30
0.0
0
SEQEND
5
a53
8
Layer1
0
POLYLINE
5
a54
8
Layer1
66
1
10
0.0
20
0.0
30
0.0
70
1
0
VERTEX
5
a55
8
Layer1
10
19.0000
20
25.0000
30
0.0
0
VERTEX
5
a56
8
Layer1
10
19.8000
20
25.0000
30
0.0
0
VERTEX
5
a57
8
Layer1
10
19.8000
20
28.5000
30
0.0
0
VERTEX
5
a58
8
Layer1
10
19.0000
20
28.5000
30
0.0
0
VERTEX
5
a59
8
Layer1
10
19.0000
20
33.5000
30
0.0
0
VERTEX
5
a5a
8
Layer1
10
19.8000
20
33.5000
30
0.0
0
VERTEX
5
a5b
8
Layer1
10
19.8000
20
37.0000
30
0.0
0
VERTEX
5
a5c
8
Layer1
10
19.0000
20
37.0000
30
0.0
0
VERTEX
5
a5d
8
Layer1
10
19.0000
20
38.0000
30
0.0
0
VERTEX
5
a5e
8
Layer1
10
5.0000
20
38.0000
30
0.0
0
VERTEX
5
a5f
8
Layer1
10
5.0000
20
37.0000
30
0.0
0
VERTEX
5
a60
8
Layer1
10
4.2000
20
37.0000
30
0.0
0
VERTEX
5
a61
8
Layer1
10
4.2000
20
33.5000
30
0.0
0
VERTEX
5
a62
8
Layer1
10
5.0000
20
33.5000
30
0.0
0
VERTEX
5
a63
8
Layer1
10
5.0000
20
28.5000
30
0.0
0
VERTEX
5
a64
8
Layer1
10
4.2000
20
28.5000
30
0.0
0
VERTEX
5
a65
8
Layer1
10
4.2000
20
25.0000
30
0.0
0
VERTEX
5
a66
8
Layer1
10
5.0000
20
25.0000
30
0.0
0
VERTEX
5
a67
8
Layer1
10
5.0000
20
24.0000
30
0.0
0
VERTEX
5
a68
8
Layer1
10
19.0000
20
24.0000
30
0.0
0
VERTEX
5
a69
8
Layer1
10
19.0000
20
25.0000
30
0.0
0
SEQEND
5
a6a
8
Layer1
0
POLYLINE
5
a6b
8
Layer1
66
1
10
0.0
20
0.0
30
0.0
70
1
0
VERTEX
5
a6c
8
Layer1
10
38.0000
20
25.0000
30
0.0
0
VERTEX
5
a6d
8
Layer1
10
38.8000
20
25.0000
30
0.0
0
VERTEX
5
a6e
8
Layer1
10
38.8000
20
28.5000
30
0.0
0
VERTEX
5
a6f
8
Layer1
10
38.0000
20
28.5000
30
0.0
0
VERTEX
5
a70
8
Layer1
10
38.0000
20
33.5000
30
0.0
0
VERTEX
5
a71
8
Layer1
10
38.8000
20
33.5000
30
0.0
0
VERTEX
5
a72
8
Layer1
10
38.8000
20
37.0000
30
0.0
0
VERTEX
5
a73
8
Layer1
10
38.0000
20
37.0000
30
0.0
0
VERTEX
5
a74
8
Layer1
10
38.0000
20
38.0000
30
0.0
0
VERTEX
5
a75
8
Layer1
10
24.0000
20
38.0000
30
0.0
0
VERTEX
5
a76
8
Layer1
10
24.0000
20
37.0000
30
0.0
0
VERTEX
5
a77
8
Layer1
10
23.2000
20
37.0000
30
0.0
0
VERTEX
5
a78
8
Layer1
10
23.2000
20
33.5000
30
0.0
0
VERTEX
5
a79
8
Layer1
10
24.0000
20
33.5000
30
0.0
0
VERTEX
5
a7a
8
Layer1
10
24.0000
20
28.5000
30
0.0
0
VERTEX
5
a7b
8
Layer1
10
23.2000
20
28.5000
30
0.0
0
VERTEX
5
a7c
8
Layer1
10
23.2000
20
25.0000
30
0.0
0
VERTEX
5
a7d
8
Layer1
10
24.0000
20
25.0000
30
0.0
0
VERTEX
5
a7e
8
Layer1
10
24.0000
20
24.0000
30
0.0
0
VERTEX
5
a7f
8
Layer1
10
38.0000
20
24.0000
30
0.0
0
VERTEX
5
a80
8
Layer1
10
38.0000
20
25.0000
30
0.0
0
SEQEND
5
a81
8
Layer1
0
POLYLINE
5
a82
8
Layer1
66
1
10
0.0
20
0.0
30
0.0
70
1
0
VERTEX
5
a83
8
Layer1
10
57.0000
20
25.0000
30
0.0
0
VERTEX
5
a84
8
Layer1
10
57.8000
20
25.0000
30
0.0
0
VERTEX
5
a85
8
Layer1
10
57.8000
20
28.5000
30
0.0
0
VERTEX
5
a86
8
Layer1
10
57.0000
20
28.5000
30
0.0
0
VERTEX
5
a87
8
Layer1
10
57.0000
20
33.5000
30
0.0
0
VERTEX
5
a88
8
Layer1
10
57.8000
20
33.5000
30
0.0
0
VERTEX
5
a89
8
Layer1
10
57.8000
20
37.0000
30
0.0
0
VERTEX
5
a8a
8
Layer1
10
57.0000
20
37.0000
30
0.0
0
VERTEX
5
a8b
8
Layer1
10
57.0000
20
38.0000
30
0.0
0
VERTEX
5
a8c
8
Layer1
10
43.0000
20
38.0000
30
0.0
0
VERTEX
5
a8d
8
Layer1
10
43.0000
20
37.0000
30
0.0
0
VERTEX
5
a8e
8
Layer1
10
42.2000
20
37.0000
30
0.0
0
VERTEX
5
a8f
8
Layer1
10
42.2000
20
33.5000
30
0.0
0
VERTEX
5
a90
8
Layer1
10
43.0000
20
33.5000
30
0.0
0
VERTEX
5
a91
8
Layer1
10
43.0000
20
28.5000
30
0.0
0
VERTEX
5
a92
8
Layer1
10
42.2000
20
28.5000
30
0.0
0
VERTEX
5
a93
8
Layer1
10
42.2000
20
25.0000
30
0.0
0
VERTEX
5
a94
8
Layer1
10
43.0000
20
25.0000
30
0.0
0
VERTEX
5
a95
8
Layer1
10
43.0000
20
24.0000
30
0.0
0
VERTEX
5
a96
8
Layer1
10
57.0000
20
24.0000
30
0.0
0
VERTEX
5
a97
8
Layer1
10
57.0000
20
25.0000
30
0.0
0
SEQEND
5
a98
8
Layer1
0
POLYLINE
5
a99
8
Layer1
66
1
10
0.0
20
0.0
30
0.0
70
1
0
VERTEX
5
a9a
8
Layer1
10
75.3750
20
24.2300
30
0.0
0
VERTEX
5
a9b
8
Layer1
10
77.0500
20
24.2300
30
0.0
0
VERTEX
5
a9c
8
Layer1
10
77.0500
20
25.0300
30
0.0
0
VERTEX
5
a9d
8
Layer1
10
77.8250
20
25.0300
30
0.0
0
VERTEX
5
a9e
8
Layer1
10
77.8250
20
25.0000
30
0.0
0
VERTEX
5
a9f
8
Layer1
10
78.6250
20
25.0000
30
0.0
0
VERTEX
5
aa0
8
Layer1
10
78.6250
20
24.0000
30
0.0
0
VERTEX
5
aa1
8
Layer1
10
92.6250
20
24.0000
30
0.0
0
VERTEX
5
aa2
8
Layer1
10
92.6250
20
25.0000
30
0.0
0
VERTEX
5
aa3
8
Layer1
10
93.4250
20
25.0000
30
0.0
0
VERTEX
5
aa4
8
Layer1
10
93.4250
20
25.0300
30
0.0
0
VERTEX
5
aa5
8
Layer1
10
94.2000
20
25.0300
30
0.0
0
VERTEX
5
aa6
8
Layer1
10
94.2000
20
24.2300
30
0.0
0
VERTEX
5
aa7
8
Layer1
10
95.8750
20
24.2300
30
0.0
0
VERTEX
5
aa8
8
Layer1
10
95.8750
20
23.2380
30
0.0
0
VERTEX
5
aa9
8
Layer1
10
99.1750
20
23.2380
30
0.0
0
VERTEX
5
aaa
8
Layer1
10
99.1750
20
24.2300
30
0.0
0
VERTEX
5
aab
8
Layer1
10
100.8500
20
24.2300
30
0.0
0
VERTEX
5
aac
8
Layer1
10
100.8500
20
30.5000
30
0.0
0
VERTEX
5
aad
8
Layer1
10
101.7250
20
30.5000
30
0.0
0
VERTEX
5
aae
8
Layer1
10
101.7250
20
33.3000
30
0.0
0
VERTEX
5
aaf
8
Layer1
10
100.8500
20
33.3000
30
0.0
0
VERTEX
5
ab0
8
Layer1
10
100.8500
20
36.5300
30
0.0
0
VERTEX
5
ab1
8
Layer1
10
99.1750
20
36.5300
30
0.0
0
VERTEX
5
ab2
8
Layer1
10
99.1750
20
37.2380
30
0.0
0
VERTEX
5
ab3
8
Layer1
10
95.8750
20
37.2380
30
0.0
0
VERTEX
5
ab4
8
Layer1
10
95.8750
20
36.5300
30
0.0
0
VERTEX
5
ab5
8
Layer1
10
94.2000
20
36.5300
30
0.0
0
VERTEX
5
ab6
8
Layer1
10
94.2000
20
35.7300
30
0.0
0
VERTEX
5
ab7
8
Layer1
10
93.4250
20
35.7300
30
0.0
0
VERTEX
5
ab8
8
Layer1
10
93.4250
20
37.0000
30
0.0
0
VERTEX
5
ab9
8
Layer1
10
92.6250
20
37.0000
30
0.0
0
VERTEX
5
aba
8
Layer1
10
92.6250
20
38.0000
30
0.0
0
VERTEX
5
abb
8
Layer1
10
78.6250
20
38.0000
30
0.0
0
VERTEX
5
abc
8
Layer1
10
78.6250
20
37.0000
30
0.0
0
VERTEX
5
abd
8
Layer1
10
77.8250
20
37.0000
30
0.0
0
VERTEX
5
abe
8
Layer1
10
77.8250
20
35.7300
30
0.0
0
VERTEX
5
abf
8
Layer1
10
77.0500
20
35.7300
30
0.0
0
VERTEX
5
ac0
8
Layer1
10
77.0500
20
36.5300
30
0.0
0
VERTEX
5
ac1
8
Layer1
10
75.3750
20
36.5300
30
0.0
0
VERTEX
5
ac2
8
Layer1
10
75.3750
20
37.2380
30
0.0
0
VERTEX
5
ac3
8
Layer1
10
72.0750
20
37.2380
30
0.0
0
VERTEX
5
ac4
8
Layer1
10
72.0750
20
36.5300
30
0.0
0
VERTEX
5
ac5
8
Layer1
10
70.4000
20
36.5300
30
0.0
0
VERTEX
5
ac6
8
Layer1
10
70.4000
20
33.3000
30
0.0
0
VERTEX
5
ac7
8
Layer1
10
69.5250
20
33.3000
30
0.0
0
VERTEX
5
ac8
8
Layer1
10
69.5250
20
30.5000
30
0.0
0
VERTEX
5
ac9
8
Layer1
10
70.4000
20
30.5000
30
0.0
0
VERTEX
5
aca
8
Layer1
10
70.4000
20
24.2300
30
0.0
0
VERTEX
5
acb
8
Layer1
10
72.0750
20
24.2300
30
0.0
0
VERTEX
5
acc
8
Layer1
10
72.0750
20
23.2380
30
0.0
0
VERTEX
5
acd
8
Layer1
10
75.3750
20
23.2380
30
0.0
0
VERTEX
5
ace
8
Layer1
10
75.3750
20
24.2300
30
0.0
0
SEQEND
5
acf
8
Layer1
0
POLYLINE
5
ad0
8
Layer1
66
1
10
0.0
20
0.0
30
0.0
70
1
0
VERTEX
5
ad1
8
Layer1
10
123.5000
20
25.0000
30
0.0
0
VERTEX
5
ad2
8
Layer1
10
124.3000
20
25.0000
30
0.0
0
VERTEX
5
ad3
8
Layer1
10
124.3000
20
28.5000
30
0.0
0
VERTEX
5
ad4
8
Layer1
10
123.5000
20
28.5000
30
0.0
0
VERTEX
5
ad5
8
Layer1
10
123.5000
20
33.5000
30
0.0
0
VERTEX
5
ad6
8
Layer1
10
124.3000
20
33.5000
30
0.0
0
VERTEX
5
ad7
8
Layer1
10
124.3000
20
37.0000
30
0.0
0
VERTEX
5
ad8
8
Layer1
10
123.5000
20
37.0000
30
0.0
0
VERTEX
5
ad9
8
Layer1
10
123.5000
20
38.0000
30
0.0
0
VERTEX
5
ada
8
Layer1
10
109.5000
20
38.0000
30
0.0
0
VERTEX
5
adb
8
Layer1
10
109.5000
20
37.0000
30
0.0
0
VERTEX
5
adc
8
Layer1
10
108.7000
20
37.0000
30
0.0
0
VERTEX
5
add
8
Layer1
10
108.7000
20
33.5000
30
0.0
0
VERTEX
5
ade
8
Layer1
10
109.5000
20
33.5000
30
0.0
0
VERTEX
5
adf
8
Layer1
10
109.5000
20
28.5000
30
0.0
0
VERTEX
5
ae0
8
Layer1
10
108.7000
20
28.5000
30
0.0
0
VERTEX
5
ae1
8
Layer1
10
108.7000
20
25.0000
30
0.0
0
VERTEX
5
ae2
8
Layer1
10
109.5000
20
25.0000
30
0.0
0
VERTEX
5
ae3
8
Layer1
10
109.5000
20
24.0000
30
0.0
0
VERTEX
5
ae4
8
Layer1
10
123.5000
20
24.0000
30
0.0
0
VERTEX
5
ae5
8
Layer1
10
123.5000
20
25.0000
30
0.0
0
SEQEND
5
ae6
8
Layer1
0
POLYLINE
5
ae7
8
Layer1
66
1
10
0.0
20
0.0
30
0.0
70
1
0
VERTEX
5
ae8
8
Layer1
10
142.5000
20
25.0000
30
0.0
0
VERTEX
5
ae9
8
Layer1
10
143.3000
20
25.0000
30
0.0
0
VERTEX
5
aea
8
Layer1
10
143.3000
20
28.5000
30
0.0
0
VERTEX
5
aeb
8
Layer1
10
142.5000
20
28.5000
30
0.0
0
VERTEX
5
aec
8
Layer1
10
142.5000
20
33.5000
30
0.0
0
VERTEX
5
aed
8
Layer1
10
143.3000
20
33.5000
30
0.0
0
VERTEX
5
aee
8
Layer1
10
143.3000
20
37.0000
30
0.0
0
VERTEX
5
aef
8
Layer1
10
142.5000
20
37.0000
30
0.0
0
VERTEX
5
af0
8
Layer1
10
142.5000
20
38.0000
30
0.0
0
VERTEX
5
af1
8
Layer1
10
128.5000
20
38.0000
30
0.0
0
VERTEX
5
af2
8
Layer1
10
128.5000
20
37.0000
30
0.0
0
VERTEX
5
af3
8
Layer1
10
127.7000
20
37.0000
30
0.0
0
VERTEX
5
af4
8
Layer1
10
127.7000
20
33.5000
30
0.0
0
VERTEX
5
af5
8
Layer1
10
128.5000
20
33.5000
30
0.0
0
VERTEX
5
af6
8
Layer1
10
128.5000
20
28.5000
30
0.0
0
VERTEX
5
af7
8
Layer1
10
127.7000
20
28.5000
30
0.0
0
VERTEX
5
af8
8
Layer1
10
127.7000
20
25.0000
30
0.0
0
VERTEX
5
af9
8
Layer1
10
128.5000
20
25.0000
30
0.0
0
VERTEX
5
afa
8
Layer1
10
128.5000
20
24.0000
30
0.0
0
VERTEX
5
afb
8
Layer1
10
142.5000
20
24.0000
30
0.0
0
VERTEX
5
afc
8
Layer1
10
142.5000
20
25.0000
30
0.0
0
SEQEND
5
afd
8
Layer1
0
POLYLINE
5
afe
8
Layer1
66
1
10
0.0
20
0.0
30
0.0
70
1
0
VERTEX
5
aff
8
Layer1
10
161.5000
20
25.0000
30
0.0
0
VERTEX
5
b00
8
Layer1
10
162.3000
20
25.0000
30
0.0
0
VERTEX
5
b01
8
Layer1
10
162.3000
20
28.5000
30
0.0
0
VERTEX
5
b02
8
Layer1
10
161.5000
20
28.5000
30
0.0
0
VERTEX
5
b03
8
Layer1
10
161.5000
20
33.5000
30
0.0
0
VERTEX
5
b04
8
Layer1
10
162.3000
20
33.5000
30
0.0
0
VERTEX
5
b05
8
Layer1
10
162.3000
20
37.0000
30
0.0
0
VERTEX
5
b06
8
Layer1
10
161.5000
20
37.0000
30
0.0
0
VERTEX
5
b07
8
Layer1
10
161.5000
20
38.0000
30
0.0
0
VERTEX
5
b08
8
Layer1
10
147.5000
20
38.0000
30
0.0
0
VERTEX
5
b09
8
Layer1
10
147.5000
20
37.0000
30
0.0
0
VERTEX
5
b0a
8
Layer1
10
146.7000
20
37.0000
30
0.0
0
VERTEX
5
b0b
8
Layer1
10
146.7000
20
33.5000
30
0.0
0
VERTEX
5
b0c
8
Layer1
10
147.5000
20
33.5000
30
0.0
0
VERTEX
5
b0d
8
Layer1
10
147.5000
20
28.5000
30
0.0
0
VERTEX
5
b0e
8
Layer1
10
146.7000
20
28.5000
30
0.0
0
VERTEX
5
b0f
8
Layer1
10
146.7000
20
25.0000
30
0.0
0
VERTEX
5
b10
8
Layer1
10
147.5000
20
25.0000
30
0.0
0
VERTEX
5
b11
8
Layer1
10
147.5000
20
24.0000
30
0.0
0
VERTEX
5
b12
8
Layer1
10
161.5000
20
24.0000
30
0.0
0
VERTEX
5
b13
8
Layer1
10
161.5000
20
25.0000
30
0.0
0
SEQEND
5
b14
8
Layer1
0
POLYLINE
5
b15
8
Layer1
66
1
10
0.0
20
0.0
30
0.0
70
1
0
VERTEX
5
b16
8
Layer1
10
180.5000
20
25.0000
30
0.0
0
VERTEX
5
b17
8
Layer1
10
181.3000
20
25.0000
30
0.0
0
VERTEX
5
b18
8
Layer1
10
181.3000
20
28.5000
30
0.0
0
VERTEX
5
b19
8
Layer1
10
180.5000
20
28.5000
30
0.0
0
VERTEX
5
b1a
8
Layer1
10
180.5000
20
33.5000
30
0.0
0
VERTEX
5
b1b
8
Layer1
10
181.3000
20
33.5000
30
0.0
0
VERTEX
5
b1c
8
Layer1
10
181.3000
20
37.0000
30
0.0
0
VERTEX
5
b1d
8
Layer1
10
180.5000
20
37.0000
30
0.0
0
VERTEX
5
b1e
8
Layer1
10
180.5000
20
38.0000
30
0.0
0
VERTEX
5
b1f
8
Layer1
10
166.5000
20
38.0000
30
0.0
0
VERTEX
5
b20
8
Layer1
10
166.5000
20
37.0000
30
0.0
0
VERTEX
5
b21
8
Layer1
10
165.7000
20
37.0000
30
0.0
0
VERTEX
5
b22
8
Layer1
10
165.7000
20
33.5000
30
0.0
0
VERTEX
5
b23
8
Layer1
10
166.5000
20
33.5000
30
0.0
0
VERTEX
5
b24
8
Layer1
10
166.5000
20
28.5000
30
0.0
0
VERTEX
5
b25
8
Layer1
10
165.7000
20
28.5000
30
0.0
0
VERTEX
5
b26
8
Layer1
10
165.7000
20
25.0000
30
0.0
0
VERTEX
5
b27
8
Layer1
10
166.5000
20
25.0000
30
0.0
0
VERTEX
5
b28
8
Layer1
10
166.5000
20
24.0000
30
0.0
0
VERTEX
5
b29
8
Layer1
10
180.5000
20
24.0000
30
0.0
0
VERTEX
5
b2a
8
Layer1
10
180.5000
20
25.0000
30
0.0
0
SEQEND
5
b2b
8
Layer1
0
POLYLINE
5
b2c
8
Layer1
66
1
10
0.0
20
0.0
30
0.0
70
1
0
VERTEX
5
b2d
8
Layer1
10
199.5000
20
25.0000
30
0.0
0
VERTEX
5
b2e
8
Layer1
10
200.3000
20
25.0000
30
0.0
0
VERTEX
5
b2f
8
Layer1
10
200.3000
20
28.5000
30
0.0
0
VERTEX
5
b30
8
Layer1
10
199.5000
20
28.5000
30
0.0
0
VERTEX
5
b31
8
Layer1
10
199.5000
20
33.5000
30
0.0
0
VERTEX
5
b32
8
Layer1
10
200.3000
20
33.5000
30
0.0
0
VERTEX
5
b33
8
Layer1
10
200.3000
20
37.0000
30
0.0
0
VERTEX
5
b34
8
Layer1
10
199.5000
20
37.0000
30
0.0
0
VERTEX
5
b35
8
Layer1
10
199.5000
20
38.0000
30
0.0
0
VERTEX
5
b36
8
Layer1
10
185.5000
20
38.0000
30
0.0
0
VERTEX
5
b37
8
Layer1
10
185.5000
20
37.0000
30
0.0
0
VERTEX
5
b38
8
Layer1
10
184.7000
20
37.0000
30
0.0
0
VERTEX
5
b39
8
Layer1
10
184.7000
20
33.5000
30
0.0
0
VERTEX
5
b3a
8
Layer1
10
185.5000
20
33.5000
30
0.0
0
VERTEX
5
b3b
8
Layer1
10
185.5000
20
28.5000
30
0.0
0
VERTEX
5
b3c
8
Layer1
10
184.7000
20
28.5000
30
0.0
0
VERTEX
5
b3d
8
Layer1
10
184.7000
20
25.0000
30
0.0
0
VERTEX
5
b3e
8
Layer1
10
185.5000
20
25.0000
30
0.0
0
VERTEX
5
b3f
8
Layer1
10
185.5000
20
24.0000
30
0.0
0
VERTEX
5
b40
8
Layer1
10
199.5000
20
24.0000
30
0.0
0
VERTEX
5
b41
8
Layer1
10
199.5000
20
25.0000
30
0.0
0
SEQEND
5
b42
8
Layer1
0
POLYLINE
5
b43
8
Layer1
66
1
10
0.0
20
0.0
30
0.0
70
1
0
VERTEX
5
b44
8
Layer1
10
218.5000
20
25.0000
30
0.0
0
VERTEX
5
b45
8
Layer1
10
219.3000
20
25.0000
30
0.0
0
VERTEX
5
b46
8
Layer1
10
219.3000
20
28.5000
30
0.0
0
VERTEX
5
b47
8
Layer1
10
218.5000
20
28.5000
30
0.0
0
VERTEX
5
b48
8
Layer1
10
218.5000
20
33.5000
30
0.0
0
VERTEX
5
b49
8
Layer1
10
219.3000
20
33.5000
30
0.0
0
VERTEX
5
b4a
8
Layer1
10
219.3000
20
37.0000
30
0.0
0
VERTEX
5
b4b
8
Layer1
10
218.5000
20
37.0000
30
0.0
0
VERTEX
5
b4c
8
Layer1
10
218.5000
20
38.0000
30
0.0
0
VERTEX
5
b4d
8
Layer1
10
204.5000
20
38.0000
30
0.0
0
VERTEX
5
b4e
8
Layer1
10
204.5000
20
37.0000
30
0.0
0
VERTEX
5
b4f
8
Layer1
10
203.7000
20
37.0000
30
0.0
0
VERTEX
5
b50
8
Layer1
10
203.7000
20
33.5000
30
0.0
0
VERTEX
5
b51
8
Layer1
10
204.5000
20
33.5000
30
0.0
0
VERTEX
5
b52
8
Layer1
10
204.5000
20
28.5000
30
0.0
0
VERTEX
5
b53
8
Layer1
10
203.7000
20
28.5000
30
0.0
0
VERTEX
5
b54
8
Layer1
10
203.7000
20
25.0000
30
0.0
0
VERTEX
5
b55
8
Layer1
10
204.5000
20
25.0000
30
0.0
0
VERTEX
5
b56
8
Layer1
10
204.5000
20
24.0000
30
0.0
0
VERTEX
5
b57
8
Layer1
10
218.5000
20
24.0000
30
0.0
0
VERTEX
5
b58
8
Layer1
10
218.5000
20
25.0000
30
0.0
0
SEQEND
5
b59
8
Layer1
0
POLYLINE
5
b5a
8
Layer1
66
1
10
0.0
20
0.0
30
0.0
70
1
0
VERTEX
5
b5b
8
Layer1
10
237.5000
20
25.0000
30
0.0
0
VERTEX
5
b5c
8
Layer1
10
238.3000
20
25.0000
30
0.0
0
VERTEX
5
b5d
8
Layer1
10
238.3000
20
28.5000
30
0.0
0
VERTEX
5
b5e
8
Layer1
10
237.5000
20
28.5000
30
0.0
0
VERTEX
5
b5f
8
Layer1
10
237.5000
20
33.5000
30
0.0
0
VERTEX
5
b60
8
Layer1
10
238.3000
20
33.5000
30
0.0
0
VERTEX
5
b61
8
Layer1
10
238.3000
20
37.0000
30
0.0
0
VERTEX
5
b62
8
Layer1
10
237.5000
20
37.0000
30
0.0
0
VERTEX
5
b63
8
Layer1
10
237.5000
20
38.0000
30
0.0
0
VERTEX
5
b64
8
Layer1
10
223.5000
20
38.0000
30
0.0
0
VERTEX
5
b65
8
Layer1
10
223.5000
20
37.0000
30
0.0
0
VERTEX
5
b66
8
Layer1
10
222.7000
20
37.0000
30
0.0
0
VERTEX
5
b67
8
Layer1
10
222.7000
20
33.5000
30
0.0
0
VERTEX
5
b68
8
Layer1
10
223.5000
20
33.5000
30
0.0
0
VERTEX
5
b69
8
Layer1
10
223.5000
20
28.5000
30
0.0
0
VERTEX
5
b6a
8
Layer1
10
222.7000
20
28.5000
30
0.0
0
VERTEX
5
b6b
8
Layer1
10
222.7000
20
25.0000
30
0.0
0
VERTEX
5
b6c
8
Layer1
10
223.5000
20
25.0000
30
0.0
0
VERTEX
5
b6d
8
Layer1
10
223.5000
20
24.0000
30
0.0
0
VERTEX
5
b6e
8
Layer1
10
237.5000
20
24.0000
30
0.0
0
VERTEX
5
b6f
8
Layer1
10
237.5000
20
25.0000
30
0.0
0
SEQEND
5
b70
8
Layer1
0
POLYLINE
5
b71
8
Layer1
66
1
10
0.0
20
0.0
30
0.0
70
1
0
VERTEX
5
b72
8
Layer1
10
256.5000
20
25.0000
30
0.0
0
VERTEX
5
b73
8
Layer1
10
257.3000
20
25.0000
30
0.0
0
VERTEX
5
b74
8
Layer1
10
257.3000
20
28.5000
30
0.0
0
VERTEX
5
b75
8
Layer1
10
256.5000
20
28.5000
30
0.0
0
VERTEX
5
b76
8
Layer1
10
256.5000
20
33.5000
30
0.0
0
VERTEX
5
b77
8
Layer1
10
257.3000
20
33.5000
30
0.0
0
VERTEX
5
b78
8
Layer1
10
257.3000
20
37.0000
30
0.0
0
VERTEX
5
b79
8
Layer1
10
256.5000
20
37.0000
30
0.0
0
VERTEX
5
b7a
8
Layer1
10
256.5000
20
38.0000
30
0.0
0
VERTEX
5
b7b
8
Layer1
10
242.5000
20
38.0000
30
0.0
0
VERTEX
5
b7c
8
Layer1
10
242.5000
20
37.0000
30
0.0
0
VERTEX
5
b7d
8
Layer1
10
241.7000
20
37.0000
30
0.0
0
VERTEX
5
b7e
8
Layer1
10
241.7000
20
33.5000
30
0.0
0
VERTEX
5
b7f
8
Layer1
10
242.5000
20
33.5000
30
0.0
0
VERTEX
5
b80
8
Layer1
10
242.5000
20
28.5000
30
0.0
0
VERTEX
5
b81
8
Layer1
10
241.7000
20
28.5000
30
0.0
0
VERTEX
5
b82
8
Layer1
10
241.7000
20
25.0000
30
0.0
0
VERTEX
5
b83
8
Layer1
10
242.5000
20
25.0000
30
0.0
0
VERTEX
5
b84
8
Layer1
10
242.5000
20
24.0000
30
0.0
0
VERTEX
5
b85
8
Layer1
10
256.5000
20
24.0000
30
0.0
0
VERTEX
5
b86
8
Layer1
10
256.5000
20
25.0000
30
0.0
0
SEQEND
5
b87
8
Layer1
0
POLYLINE
5
b88
8
Layer1
66
1
10
0.0
20
0.0
30
0.0
70
1
0
VERTEX
5
b89
8
Layer1
10
275.5000
20
25.0000
30
0.0
0
VERTEX
5
b8a
8
Layer1
10
276.3000
20
25.0000
30
0.0
0
VERTEX
5
b8b
8
Layer1
10
276.3000
20
28.5000
30
0.0
0
VERTEX
5
b8c
8
Layer1
10
275.5000
20
28.5000
30
0.0
0
VERTEX
5
b8d
8
Layer1
10
275.5000
20
33.5000
30
0.0
0
VERTEX
5
b8e
8
Layer1
10
276.3000
20
33.5000
30
0.0
0
VERTEX
5
b8f
8
Layer1
10
276.3000
20
37.0000
30
0.0
0
VERTEX
5
b90
8
Layer1
10
275.5000
20
37.0000
30
0.0
0
VERTEX
5
b91
8
Layer1
10
275.5000
20
38.0000
30
0.0
0
VERTEX
5
b92
8
Layer1
10
261.5000
20
38.0000
30
0.0
0
VERTEX
5
b93
8
Layer1
10
261.5000
20
37.0000
30
0.0
0
VERTEX
5
b94
8
Layer1
10
260.7000
20
37.0000
30
0.0
0
VERTEX
5
b95
8
Layer1
10
260.7000
20
33.5000
30
0.0
0
VERTEX
5
b96
8
Layer1
10
261.5000
20
33.5000
30
0.0
0
VERTEX
5
b97
8
Layer1
10
261.5000
20
28.5000
30
0.0
0
VERTEX
5
b98
8
Layer1
10
260.7000
20
28.5000
30
0.0
0
VERTEX
5
b99
8
Layer1
10
260.7000
20
25.0000
30
0.0
0
VERTEX
5
b9a
8
Layer1
10
261.5000
20
25.0000
30
0.0
0
VERTEX
5
b9b
8
Layer1
10
261.5000
20
24.0000
30
0.0
0
VERTEX
5
b9c
8
Layer1
10
275.5000
20
24.0000
30
0.0
0
VERTEX
5
b9d
8
Layer1
10
275.5000
20
25.0000
30
0.0
0
SEQEND
5
b9e
8
Layer1
0
POLYLINE
5
b9f
8
Layer1
66
1
10
0.0
20
0.0
30
0.0
70
1
0
VERTEX
5
ba0
8
Layer1
10
294.5000
20
25.0000
30
0.0
0
VERTEX
5
ba1
8
Layer1
10
295.3000
20
25.0000
30
0.0
0
VERTEX
5
ba2
8
Layer1
10
295.3000
20
28.5000
30
0.0
0
VERTEX
5
ba3
8
Layer1
10
294.5000
20
28.5000
30
0.0
0
VERTEX
5
ba4
8
Layer1
10
294.5000
20
33.5000
30
0.0
0
VERTEX
5
ba5
8
Layer1
10
295.3000
20
33.5000
30
0.0
0
VERTEX
5
ba6
8
Layer1
10
295.3000
20
37.0000
30
0.0
0
VERTEX
5
ba7
8
Layer1
10
294.5000
20
37.0000
30
0.0
0
VERTEX
5
ba8
8
Layer1
10
294.5000
20
38.0000
30
0.0
0
VERTEX
5
ba9
8
Layer1
10
280.5000
20
38.0000
30
0.0
0
VERTEX
5
baa
8
Layer1
10
280.5000
20
37.0000
30
0.0
0
VERTEX
5
bab
8
Layer1
10
279.7000
20
37.0000
30
0.0
0
VERTEX
5
bac
8
Layer1
10
279.7000
20
33.5000
30
0.0
0
VERTEX
5
bad
8
Layer1
10
280.5000
20
33.5000
30
0.0
0
VERTEX
5
bae
8
Layer1
10
280.5000
20
28.5000
30
0.0
0
VERTEX
5
baf
8
Layer1
10
279.7000
20
28.5000
30
0.0
0
VERTEX
5
bb0
8
Layer1
10
279.7000
20
25.0000
30
0.0
0
VERTEX
5
bb1
8
Layer1
10
280.5000
20
25.0000
30
0.0
0
VERTEX
5
bb2
8
Layer1
10
280.5000
20
24.0000
30
0.0
0
VERTEX
5
bb3
8
Layer1
10
294.5000
20
24.0000
30
0.0
0
VERTEX
5
bb4
8
Layer1
10
294.5000
20
25.0000
30
0.0
0
SEQEND
5
bb5
8
Layer1
0
POLYLINE
5
bb6
8
Layer1
66
1
10
0.0
20
0.0
30
0.0
70
1
0
VERTEX
5
bb7
8
Layer1
10
312.8750
20
24.2300
30
0.0
0
VERTEX
5
bb8
8
Layer1
10
314.5500
20
24.2300
30
0.0
0
VERTEX
5
bb9
8
Layer1
10
314.5500
20
25.0300
30
0.0
0
VERTEX
5
bba
8
Layer1
10
315.3250
20
25.0300
30
0.0
0
VERTEX
5
bbb
8
Layer1
10
315.3250
20
25.0000
30
0.0
0
VERTEX
5
bbc
8
Layer1
10
316.1250
20
25.0000
30
0.0
0
VERTEX
5
bbd
8
Layer1
10
316.1250
20
24.0000
30
0.0
0
VERTEX
5
bbe
8
Layer1
10
330.1250
20
24.0000
30
0.0
0
VERTEX
5
bbf
8
Layer1
10
330.1250
20
25.0000
30
0.0
0
VERTEX
5
bc0
8
Layer1
10
330.9250
20
25.0000
30
0.0
0
VERTEX
5
bc1
8
Layer1
10
330.9250
20
25.0300
30
0.0
0
VERTEX
5
bc2
8
Layer1
10
331.7000
20
25.0300
30
0.0
0
VERTEX
5
bc3
8
Layer1
10
331.7000
20
24.2300
30
0.0
0
VERTEX
5
bc4
8
Layer1
10
333.3750
20
24.2300
30
0.0
0
VERTEX
5
bc5
8
Layer1
10
333.3750
20
23.2380
30
0.0
0
VERTEX
5
bc6
8
Layer1
10
336.6750
20
23.2380
30
0.0
0
VERTEX
5
bc7
8
Layer1
10
336.6750
20
24.2300
30
0.0
0
VERTEX
5
bc8
8
Layer1
10
338.3500
20
24.2300
30
0.0
0
VERTEX
5
bc9
8
Layer1
10
338.3500
20
30.5000
30
0.0
0
VERTEX
5
bca
8
Layer1
10
339.2250
20
30.5000
30
0.0
0
VERTEX
5
bcb
8
Layer1
10
339.2250
20
33.3000
30
0.0
0
VERTEX
5
bcc
8
Layer1
10
338.3500
20
33.3000
30
0.0
0
VERTEX
5
bcd
8
Layer1
10
338.3500
20
36.5300
30
0.0
0
VERTEX
5
bce
8
Layer1
10
336.6750
20
36.5300
30
0.0
0
VERTEX
5
bcf
8
Layer1
10
336.6750
20
37.2380
30
0.0
0
VERTEX
5
bd0
8
Layer1
10
333.3750
20
37.2380
30
0.0
0
VERTEX
5
bd1
8
Layer1
10
333.3750
20
36.5300
30
0.0
0
VERTEX
5
bd2
8
Layer1
10
331.7000
20
36.5300
30
0.0
0
VERTEX
5
bd3
8
Layer1
10
331.7000
20
35.7300
30
0.0
0
VERTEX
5
bd4
8
Layer1
10
330.9250
20
35.7300
30
0.0
0
VERTEX
5
bd5
8
Layer1
10
330.9250
20
37.0000
30
0.0
0
VERTEX
5
bd6
8
Layer1
10
330.1250
20
37.0000
30
0.0
0
VERTEX
5
bd7
8
Layer1
10
330.1250
20
38.0000
30
0.0
0
VERTEX
5
bd8
8
Layer1
10
316.1250
20
38.0000
30
0.0
0
VERTEX
5
bd9
8
Layer1
10
316.1250
20
37.0000
30
0.0
0
VERTEX
5
bda
8
Layer1
10
315.3250
20
37.0000
30
0.0
0
VERTEX
5
bdb
8
Layer1
10
315.3250
20
35.7300
30
0.0
0
VERTEX
5
bdc
8
Layer1
10
314.5500
20
35.7300
30
0.0
0
VERTEX
5
bdd
8
Layer1
10
314.5500
20
36.5300
30
0.0
0
VERTEX
5
bde
8
Layer1
10
312.8750
20
36.5300
30
0.0
0
VERTEX
5
bdf
8
Layer1
10
312.8750
20
37.2380
30
0.0
0
VERTEX
5
be0
8
Layer1
10
309.5750
20
37.2380
30
0.0
0
VERTEX
5
be1
8
Layer1
10
309.5750
20
36.5300
30
0.0
0
VERTEX
5
be2
8
Layer1
10
307.9000
20
36.5300
30
0.0
0
VERTEX
5
be3
8
Layer1
10
307.9000
20
33.3000
30
0.0
0
VERTEX
5
be4
8
Layer1
10
307.0250
20
33.3000
30
0.0
0
VERTEX
5
be5
8
Layer1
10
307.0250
20
30.5000
30
0.0
0
VERTEX
5
be6
8
Layer1
10
307.9000
20
30.5000
30
0.0
0
VERTEX
5
be7
8
Layer1
10
307.9000
20
24.2300
30
0.0
0
VERTEX
5
be8
8
Layer1
10
309.5750
20
24.2300
30
0.0
0
VERTEX
5
be9
8
Layer1
10
309.5750
20
23.2380
30
0.0
0
VERTEX
5
bea
8
Layer1
10
312.8750
20
23.2380
30
0.0
0
VERTEX
5
beb
8
Layer1
10
312.8750
20
24.2300
30
0.0
0
SEQEND
5
bec
8
Layer1
0
POLYLINE
5
bed
8
Layer1
66
1
10
0.0
20
0.0
30
0.0
70
1
0
VERTEX
5
bee
8
Layer1
10
389.5000
20
25.0000
30
0.0
0
VERTEX
5
bef
8
Layer1
10
390.3000
20
25.0000
30
0.0
0
VERTEX
5
bf0
8
Layer1
10
390.3000
20
28.5000
30
0.0
0
VERTEX
5
bf1
8
Layer1
10
389.5000
20
28.5000
30
0.0
0
VERTEX
5
bf2
8
Layer1
10
389.5000
20
33.5000
30
0.0
0
VERTEX
5
bf3
8
Layer1
10
390.3000
20
33.5000
30
0.0
0
VERTEX
5
bf4
8
Layer1
10
390.3000
20
37.0000
30
0.0
0
VERTEX
5
bf5
8
Layer1
10
389.5000
20
37.0000
30
0.0
0
VERTEX
5
bf6
8
Layer1
10
389.5000
20
38.0000
30
0.0
0
VERTEX
5
bf7
8
Layer1
10
375.5000
20
38.0000
30
0.0
0
VERTEX
5
bf8
8
Layer1
10
375.5000
20
37.0000
30
0.0
0
VERTEX
5
bf9
8
Layer1
10
374.7000
20
37.0000
30
0.0
0
VERTEX
5
bfa
8
Layer1
10
374.7000
20
33.5000
30
0.0
0
VERTEX
5
bfb
8
Layer1
10
375.5000
20
33.5000
30
0.0
0
VERTEX
5
bfc
8
Layer1
10
375.5000
20
28.5000
30
0.0
0
VERTEX
5
bfd
8
Layer1
10
374.7000
20
28.5000
30
0.0
0
VERTEX
5
bfe
8
Layer1
10
374.7000
20
25.0000
30
0.0
0
VERTEX
5
bff
8
Layer1
10
375.5000
20
25.0000
30
0.0
0
VERTEX
5
c00
8
Layer1
10
375.5000
20
24.0000
30
0.0
0
VERTEX
5
c01
8
Layer1
10
389.5000
20
24.0000
30
0.0
0
VERTEX
5
c02
8
Layer1
10
389.5000
20
25.0000
30
0.0
0
SEQEND
5
c03
8
Layer1
0
POLYLINE
5
c04
8
Layer1
66
1
10
0.0
20
0.0
30
0.0
70
1
0
VERTEX
5
c05
8
Layer1
10
432.2500
20
25.0000
30
0.0
0
VERTEX
5
c06
8
Layer1
10
433.0500
20
25.0000
30
0.0
0
VERTEX
5
c07
8
Layer1
10
433.0500
20
28.5000
30
0.0
0
VERTEX
5
c08
8
Layer1
10
432.2500
20
28.5000
30
0.0
0
VERTEX
5
c09
8
Layer1
10
432.2500
20
33.5000
30
0.0
0
VERTEX
5
c0a
8
Layer1
10
433.0500
20
33.5000
30
0.0
0
VERTEX
5
c0b
8
Layer1
10
433.0500
20
37.0000
30
0.0
0
VERTEX
5
c0c
8
Layer1
10
432.2500
20
37.0000
30
0.0
0
VERTEX
5
c0d
8
Layer1
10
432.2500
20
38.0000
30
0.0
0
VERTEX
5
c0e
8
Layer1
10
418.2500
20
38.0000
30
0.0
0
VERTEX
5
c0f
8
Layer1
10
418.2500
20
37.0000
30
0.0
0
VERTEX
5
c10
8
Layer1
10
417.4500
20
37.0000
30
0.0
0
VERTEX
5
c11
8
Layer1
10
417.4500
20
33.5000
30
0.0
0
VERTEX
5
c12
8
Layer1
10
418.2500
20
33.5000
30
0.0
0
VERTEX
5
c13
8
Layer1
10
418.2500
20
28.5000
30
0.0
0
VERTEX
5
c14
8
Layer1
10
417.4500
20
28.5000
30
0.0
0
VERTEX
5
c15
8
Layer1
10
417.4500
20
25.0000
30
0.0
0
VERTEX
5
c16
8
Layer1
10
418.2500
20
25.0000
30
0.0
0
VERTEX
5
c17
8
Layer1
10
418.2500
20
24.0000
30
0.0
0
VERTEX
5
c18
8
Layer1
10
432.2500
20
24.0000
30
0.0
0
VERTEX
5
c19
8
Layer1
10
432.2500
20
25.0000
30
0.0
0
SEQEND
5
c1a
8
Layer1
0
POLYLINE
5
c1b
8
Layer1
66
1
10
0.0
20
0.0
30
0.0
70
1
0
VERTEX
5
c1c
8
Layer1
10
451.2500
20
25.0000
30
0.0
0
VERTEX
5
c1d
8
Layer1
10
452.0500
20
25.0000
30
0.0
0
VERTEX
5
c1e
8
Layer1
10
452.0500
20
28.5000
30
0.0
0
VERTEX
5
c1f
8
Layer1
10
451.2500
20
28.5000
30
0.0
0
VERTEX
5
c20
8
Layer1
10
451.2500
20
33.5000
30
0.0
0
VERTEX
5
c21
8
Layer1
10
452.0500
20
33.5000
30
0.0
0
VERTEX
5
c22
8
Layer1
10
452.0500
20
37.0000
30
0.0
0
VERTEX
5
c23
8
Layer1
10
451.2500
20
37.0000
30
0.0
0
VERTEX
5
c24
8
Layer1
10
451.2500
20
38.0000
30
0.0
0
VERTEX
5
c25
8
Layer1
10
437.2500
20
38.0000
30
0.0
0
VERTEX
5
c26
8
Layer1
10
437.2500
20
37.0000
30
0.0
0
VERTEX
5
c27
8
Layer1
10
436.4500
20
37.0000
30
0.0
0
VERTEX
5
c28
8
Layer1
10
436.4500
20
33.5000
30
0.0
0
VERTEX
5
c29
8
Layer1
10
437.2500
20
33.5000
30
0.0
0
VERTEX
5
c2a
8
Layer1
10
437.2500
20
28.5000
30
0.0
0
VERTEX
5
c2b
8
Layer1
10
436.4500
20
28.5000
30
0.0
0
VERTEX
5
c2c
8
Layer1
10
436.4500
20
25.0000
30
0.0
0
VERTEX
5
c2d
8
Layer1
10
437.2500
20
25.0000
30
0.0
0
VERTEX
5
c2e
8
Layer1
10
437.2500
20
24.0000
30
0.0
0
VERTEX
5
c2f
8
Layer1
10
451.2500
20
24.0000
30
0.0
0
VERTEX
5
c30
8
Layer1
10
451.2500
20
25.0000
30
0.0
0
SEQEND
5
c31
8
Layer1
0
POLYLINE
5
c32
8
Layer1
66
1
10
0.0
20
0.0
30
0.0
70
1
0
VERTEX
5
c33
8
Layer1
10
470.2500
20
25.0000
30
0.0
0
VERTEX
5
c34
8
Layer1
10
471.0500
20
25.0000
30
0.0
0
VERTEX
5
c35
8
Layer1
10
471.0500
20
28.5000
30
0.0
0
VERTEX
5
c36
8
Layer1
10
470.2500
20
28.5000
30
0.0
0
VERTEX
5
c37
8
Layer1
10
470.2500
20
33.5000
30
0.0
0
VERTEX
5
c38
8
Layer1
10
471.0500
20
33.5000
30
0.0
0
VERTEX
5
c39
8
Layer1
10
471.0500
20
37.0000
30
0.0
0
VERTEX
5
c3a
8
Layer1
10
470.2500
20
37.0000
30
0.0
0
VERTEX
5
c3b
8
Layer1
10
470.2500
20
38.0000
30
0.0
0
VERTEX
5
c3c
8
Layer1
10
456.2500
20
38.0000
30
0.0
0
VERTEX
5
c3d
8
Layer1
10
456.2500
20
37.0000
30
0.0
0
VERTEX
5
c3e
8
Layer1
10
455.4500
20
37.0000
30
0.0
0
VERTEX
5
c3f
8
Layer1
10
455.4500
20
33.5000
30
0.0
0
VERTEX
5
c40
8
Layer1
10
456.2500
20
33.5000
30
0.0
0
VERTEX
5
c41
8
Layer1
10
456.2500
20
28.5000
30
0.0
0
VERTEX
5
c42
8
Layer1
10
455.4500
20
28.5000
30
0.0
0
VERTEX
5
c43
8
Layer1
10
455.4500
20
25.0000
30
0.0
0
VERTEX
5
c44
8
Layer1
10
456.2500
20
25.0000
30
0.0
0
VERTEX
5
c45
8
Layer1
10
456.2500
20
24.0000
30
0.0
0
VERTEX
5
c46
8
Layer1
10
470.2500
20
24.0000
30
0.0
0
VERTEX
5
c47
8
Layer1
10
470.2500
20
25.0000
30
0.0
0
SEQEND
5
c48
8
Layer1
0
POLYLINE
5
c49
8
Layer1
66
1
10
0.0
20
0.0
30
0.0
70
1
0
VERTEX
5
c4a
8
Layer1
10
475.4800
20
31.7500
30
0.0
0
VERTEX
5
c4b
8
Layer1
10
475.4800
20
30.0750
30
0.0
0
VERTEX
5
c4c
8
Layer1
10
476.2800
20
30.0750
30
0.0
0
VERTEX
5
c4d
8
Layer1
10
476.2800
20
29.3000
30
0.0
0
VERTEX
5
c4e
8
Layer1
10
476.2500
20
29.3000
30
0.0
0
VERTEX
5
c4f
8
Layer1
10
476.2500
20
28.5000
30
0.0
0
VERTEX
5
c50
8
Layer1
10
475.2500
20
28.5000
30
0.0
0
VERTEX
5
c51
8
Layer1
10
475.2500
20
14.5000
30
0.0
0
VERTEX
5
c52
8
Layer1
10
476.2500
20
14.5000
30
0.0
0
VERTEX
5
c53
8
Layer1
10
476.2500
20
13.7000
30
0.0
0
VERTEX
5
c54
8
Layer1
10
476.2800
20
13.7000
30
0.0
0
VERTEX
5
c55
8
Layer1
10
476.2800
20
12.9250
30
0.0
0
VERTEX
5
c56
8
Layer1
10
475.4800
20
12.9250
30
0.0
0
VERTEX
5
c57
8
Layer1
10
475.4800
20
11.2500
30
0.0
0
VERTEX
5
c58
8
Layer1
10
474.4880
20
11.2500
30
0.0
0
VERTEX
5
c59
8
Layer1
10
474.4880
20
7.9500
30
0.0
0
VERTEX
5
c5a
8
Layer1
10
475.4800
20
7.9500
30
0.0
0
VERTEX
5
c5b
8
Layer1
10
475.4800
20
6.2750
30
0.0
0
VERTEX
5
c5c
8
Layer1
10
481.7500
20
6.2750
30
0.0
0
VERTEX
5
c5d
8
Layer1
10
481.7500
20
5.4000
30
0.0
0
VERTEX
5
c5e
8
Layer1
10
484.5500
20
5.4000
30
0.0
0
VERTEX
5
c5f
8
Layer1
10
484.5500
20
6.2750
30
0.0
0
VERTEX
5
c60
8
Layer1
10
487.7800
20
6.2750
30
0.0
0
VERTEX
5
c61
8
Layer1
10
487.7800
20
7.9500
30
0.0
0
VERTEX
5
c62
8
Layer1
10
488.4880
20
7.9500
30
0.0
0
VERTEX
5
c63
8
Layer1
10
488.4880
20
11.2500
30
0.0
0
VERTEX
5
c64
8
Layer1
10
487.7800
20
11.2500
30
0.0
0
VERTEX
5
c65
8
Layer1
10
487.7800
20
12.9250
30
0.0
0
VERTEX
5
c66
8
Layer1
10
486.9800
20
12.9250
30
0.0
0
VERTEX
5
c67
8
Layer1
10
486.9800
20
13.7000
30
0.0
0
VERTEX
5
c68
8
Layer1
10
488.2500
20
13.7000
30
0.0
0
VERTEX
5
c69
8
Layer1
10
488.2500
20
14.5000
30
0.0
0
VERTEX
5
c6a
8
Layer1
10
489.2500
20
14.5000
30
0.0
0
VERTEX
5
c6b
8
Layer1
10
489.2500
20
28.5000
30
0.0
0
VERTEX
5
c6c
8
Layer1
10
488.2500
20
28.5000
30
0.0
0
VERTEX
5
c6d
8
Layer1
10
488.2500
20
29.3000
30
0.0
0
VERTEX
5
c6e
8
Layer1
10
486.9800
20
29.3000
30
0.0
0
VERTEX
5
c6f
8
Layer1
10
486.9800
20
30.0750
30
0.0
0
VERTEX
5
c70
8
Layer1
10
487.7800
20
30.0750
30
0.0
0
VERTEX
5
c71
8
Layer1
10
487.7800
20
31.7500
30
0.0
0
VERTEX
5
c72
8
Layer1
10
488.4880
20
31.7500
30
0.0
0
VERTEX
5
c73
8
Layer1
10
488.4880
20
35.0500
30
0.0
0
VERTEX
5
c74
8
Layer1
10
487.7800
20
35.0500
30
0.0
0
VERTEX
5
c75
8
Layer1
10
487.7800
20
36.7250
30
0.0
0
VERTEX
5
c76
8
Layer1
10
484.5500
20
36.7250
30
0.0
0
VERTEX
5
c77
8
Layer1
10
484.5500
20
37.6000
30
0.0
0
VERTEX
5
c78
8
Layer1
10
481.7500
20
37.6000
30
0.0
0
VERTEX
5
c79
8
Layer1
10
481.7500
20
36.7250
30
0.0
0
VERTEX
5
c7a
8
Layer1
10
475.4800
20
36.7250
30
0.0
0
VERTEX
5
c7b
8
Layer1
10
475.4800
20
35.0500
30
0.0
0
VERTEX
5
c7c
8
Layer1
10
474.4880
20
35.0500
30
0.0
0
VERTEX
5
c7d
8
Layer1
10
474.4880
20
31.7500
30
0.0
0
VERTEX
5
c7e
8
Layer1
10
475.4800
20
31.7500
30
0.0
0
SEQEND
5
c7f
8
Layer1
0
POLYLINE
5
c80
8
Layer1
66
1
10
0.0
20
0.0
30
0.0
70
1
0
VERTEX
5
c81
8
Layer1
10
19.0000
20
6.0000
30
0.0
0
VERTEX
5
c82
8
Layer1
10
19.8000
20
6.0000
30
0.0
0
VERTEX
5
c83
8
Layer1
10
19.8000
20
9.5000
30
0.0
0
VERTEX
5
c84
8
Layer1
10
19.0000
20
9.5000
30
0.0
0
VERTEX
5
c85
8
Layer1
10
19.0000
20
14.5000
30
0.0
0
VERTEX
5
c86
8
Layer1
10
19.8000
20
14.5000
30
0.0
0
VERTEX
5
c87
8
Layer1
10
19.8000
20
18.0000
30
0.0
0
VERTEX
5
c88
8
Layer1
10
19.0000
20
18.0000
30
0.0
0
VERTEX
5
c89
8
Layer1
10
19.0000
20
19.0000
30
0.0
0
VERTEX
5
c8a
8
Layer1
10
5.0000
20
19.0000
30
0.0
0
VERTEX
5
c8b
8
Layer1
10
5.0000
20
18.0000
30
0.0
0
VERTEX
5
c8c
8
Layer1
10
4.2000
20
18.0000
30
0.0
0
VERTEX
5
c8d
8
Layer1
10
4.2000
20
14.5000
30
0.0
0
VERTEX
5
c8e
8
Layer1
10
5.0000
20
14.5000
30
0.0
0
VERTEX
5
c8f
8
Layer1
10
5.0000
20
9.5000
30
0.0
0
VERTEX
5
c90
8
Layer1
10
4.2000
20
9.5000
30
0.0
0
VERTEX
5
c91
8
Layer1
10
4.2000
20
6.0000
30
0.0
0
VERTEX
5
c92
8
Layer1
10
5.0000
20
6.0000
30
0.0
0
VERTEX
5
c93
8
Layer1
10
5.0000
20
5.0000
30
0.0
0
VERTEX
5
c94
8
Layer1
10
19.0000
20
5.0000
30
0.0
0
VERTEX
5
c95
8
Layer1
10
19.0000
20
6.0000
30
0.0
0
SEQEND
5
c96
8
Layer1
0
POLYLINE
5
c97
8
Layer1
66
1
10
0.0
20
0.0
30
0.0
70
1
0
VERTEX
5
c98
8
Layer1
10
38.0000
20
6.0000
30
0.0
0
VERTEX
5
c99
8
Layer1
10
38.8000
20
6.0000
30
0.0
0
VERTEX
5
c9a
8
Layer1
10
38.8000
20
9.5000
30
0.0
0
VERTEX
5
c9b
8
Layer1
10
38.0000
20
9.5000
30
0.0
0
VERTEX
5
c9c
8
Layer1
10
38.0000
20
14.5000
30
0.0
0
VERTEX
5
c9d
8
Layer1
10
38.8000
20
14.5000
30
0.0
0
VERTEX
5
c9e
8
Layer1
10
38.8000
20
18.0000
30
0.0
0
VERTEX
5
c9f
8
Layer1
10
38.0000
20
18.0000
30
0.0
0
VERTEX
5
ca0
8
Layer1
10
38.0000
20
19.0000
30
0.0
0
VERTEX
5
ca1
8
Layer1
10
24.0000
20
19.0000
30
0.0
0
VERTEX
5
ca2
8
Layer1
10
24.0000
20
18.0000
30
0.0
0
VERTEX
5
ca3
8
Layer1
10
23.2000
20
18.0000
30
0.0
0
VERTEX
5
ca4
8
Layer1
10
23.2000
20
14.5000
30
0.0
0
VERTEX
5
ca5
8
Layer1
10
24.0000
20
14.5000
30
0.0
0
VERTEX
5
ca6
8
Layer1
10
24.0000
20
9.5000
30
0.0
0
VERTEX
5
ca7
8
Layer1
10
23.2000
20
9.5000
30
0.0
0
VERTEX
5
ca8
8
Layer1
10
23.2000
20
6.0000
30
0.0
0
VERTEX
5
ca9
8
Layer1
10
24.0000
20
6.0000
30
0.0
0
VERTEX
5
caa
8
Layer1
10
24.0000
20
5.0000
30
0.0
0
VERTEX
5
cab
8
Layer1
10
38.0000
20
5.0000
30
0.0
0
VERTEX
5
cac
8
Layer1
10
38.0000
20
6.0000
30
0.0
0
SEQEND
5
cad
8
Layer1
0
POLYLINE
5
cae
8
Layer1
66
1
10
0.0
20
0.0
30
0.0
70
1
0
VERTEX
5
caf
8
Layer1
10
57.0000
20
6.0000
30
0.0
0
VERTEX
5
cb0
8
Layer1
10
57.8000
20
6.0000
30
0.0
0
VERTEX
5
cb1
8
Layer1
10
57.8000
20
9.5000
30
0.0
0
VERTEX
5
cb2
8
Layer1
10
57.0000
20
9.5000
30
0.0
0
VERTEX
5
cb3
8
Layer1
10
57.0000
20
14.5000
30
0.0
0
VERTEX
5
cb4
8
Layer1
10
57.8000
20
14.5000
30
0.0
0
VERTEX
5
cb5
8
Layer1
10
57.8000
20
18.0000
30
0.0
0
VERTEX
5
cb6
8
Layer1
10
57.0000
20
18.0000
30
0.0
0
VERTEX
5
cb7
8
Layer1
10
57.0000
20
19.0000
30
0.0
0
VERTEX
5
cb8
8
Layer1
10
43.0000
20
19.0000
30
0.0
0
VERTEX
5
cb9
8
Layer1
10
43.0000
20
18.0000
30
0.0
0
VERTEX
5
cba
8
Layer1
10
42.2000
20
18.0000
30
0.0
0
VERTEX
5
cbb
8
Layer1
10
42.2000
20
14.5000
30
0.0
0
VERTEX
5
cbc
8
Layer1
10
43.0000
20
14.5000
30
0.0
0
VERTEX
5
cbd
8
Layer1
10
43.0000
20
9.5000
30
0.0
0
VERTEX
5
cbe
8
Layer1
10
42.2000
20
9.5000
30
0.0
0
VERTEX
5
cbf
8
Layer1
10
42.2000
20
6.0000
30
0.0
0
VERTEX
5
cc0
8
Layer1
10
43.0000
20
6.0000
30
0.0
0
VERTEX
5
cc1
8
Layer1
10
43.0000
20
5.0000
30
0.0
0
VERTEX
5
cc2
8
Layer1
10
57.0000
20
5.0000
30
0.0
0
VERTEX
5
cc3
8
Layer1
10
57.0000
20
6.0000
30
0.0
0
SEQEND
5
cc4
8
Layer1
0
POLYLINE
5
cc5
8
Layer1
66
1
10
0.0
20
0.0
30
0.0
70
1
0
VERTEX
5
cc6
8
Layer1
10
83.1250
20
6.0000
30
0.0
0
VERTEX
5
cc7
8
Layer1
10
83.9250
20
6.0000
30
0.0
0
VERTEX
5
cc8
8
Layer1
10
83.9250
20
9.5000
30
0.0
0
VERTEX
5
cc9
8
Layer1
10
83.1250
20
9.5000
30
0.0
0
VERTEX
5
cca
8
Layer1
10
83.1250
20
14.5000
30
0.0
0
VERTEX
5
ccb
8
Layer1
10
83.9250
20
14.5000
30
0.0
0
VERTEX
5
ccc
8
Layer1
10
83.9250
20
18.0000
30
0.0
0
VERTEX
5
ccd
8
Layer1
10
83.1250
20
18.0000
30
0.0
0
VERTEX
5
cce
8
Layer1
10
83.1250
20
19.0000
30
0.0
0
VERTEX
5
ccf
8
Layer1
10
69.1250
20
19.0000
30
0.0
0
VERTEX
5
cd0
8
Layer1
10
69.1250
20
18.0000
30
0.0
0
VERTEX
5
cd1
8
Layer1
10
68.3250
20
18.0000
30
0.0
0
VERTEX
5
cd2
8
Layer1
10
68.3250
20
14.5000
30
0.0
0
VERTEX
5
cd3
8
Layer1
10
69.1250
20
14.5000
30
0.0
0
VERTEX
5
cd4
8
Layer1
10
69.1250
20
9.5000
30
0.0
0
VERTEX
5
cd5
8
Layer1
10
68.3250
20
9.5000
30
0.0
0
VERTEX
5
cd6
8
Layer1
10
68.3250
20
6.0000
30
0.0
0
VERTEX
5
cd7
8
Layer1
10
69.1250
20
6.0000
30
0.0
0
VERTEX
5
cd8
8
Layer1
10
69.1250
20
5.0000
30
0.0
0
VERTEX
5
cd9
8
Layer1
10
83.1250
20
5.0000
30
0.0
0
VERTEX
5
cda
8
Layer1
10
83.1250
20
6.0000
30
0.0
0
SEQEND
5
cdb
8
Layer1
0
POLYLINE
5
cdc
8
Layer1
66
1
10
0.0
20
0.0
30
0.0
70
1
0
VERTEX
5
cdd
8
Layer1
10
106.8750
20
6.0000
30
0.0
0
VERTEX
5
cde
8
Layer1
10
107.6750
20
6.0000
30
0.0
0
VERTEX
5
cdf
8
Layer1
10
107.6750
20
9.5000
30
0.0
0
VERTEX
5
ce0
8
Layer1
10
106.8750
20
9.5000
30
0.0
0
VERTEX
5
ce1
8
Layer1
10
106.8750
20
14.5000
30
0.0
0
VERTEX
5
ce2
8
Layer1
10
107.6750
20
14.5000
30
0.0
0
VERTEX
5
ce3
8
Layer1
10
107.6750
20
18.0000
30
0.0
0
VERTEX
5
ce4
8
Layer1
10
106.8750
20
18.0000
30
0.0
0
VERTEX
5
ce5
8
Layer1
10
106.8750
20
19.0000
30
0.0
0
VERTEX
5
ce6
8
Layer1
10
92.8750
20
19.0000
30
0.0
0
VERTEX
5
ce7
8
Layer1
10
92.8750
20
18.0000
30
0.0
0
VERTEX
5
ce8
8
Layer1
10
92.0750
20
18.0000
30
0.0
0
VERTEX
5
ce9
8
Layer1
10
92.0750
20
14.5000
30
0.0
0
VERTEX
5
cea
8
Layer1
10
92.8750
20
14.5000
30
0.0
0
VERTEX
5
ceb
8
Layer1
10
92.8750
20
9.5000
30
0.0
0
VERTEX
5
cec
8
Layer1
10
92.0750
20
9.5000
30
0.0
0
VERTEX
5
ced
8
Layer1
10
92.0750
20
6.0000
30
0.0
0
VERTEX
5
cee
8
Layer1
10
92.8750
20
6.0000
30
0.0
0
VERTEX
5
cef
8
Layer1
10
92.8750
20
5.0000
30
0.0
0
VERTEX
5
cf0
8
Layer1
10
106.8750
20
5.0000
30
0.0
0
VERTEX
5
cf1
8
Layer1
10
106.8750
20
6.0000
30
0.0
0
SEQEND
5
cf2
8
Layer1
0
POLYLINE
5
cf3
8
Layer1
66
1
10
0.0
20
0.0
30
0.0
70
1
0
VERTEX
5
cf4
8
Layer1
10
130.6250
20
6.0000
30
0.0
0
VERTEX
5
cf5
8
Layer1
10
131.4250
20
6.0000
30
0.0
0
VERTEX
5
cf6
8
Layer1
10
131.4250
20
9.5000
30
0.0
0
VERTEX
5
cf7
8
Layer1
10
130.6250
20
9.5000
30
0.0
0
VERTEX
5
cf8
8
Layer1
10
130.6250
20
14.5000
30
0.0
0
VERTEX
5
cf9
8
Layer1
10
131.4250
20
14.5000
30
0.0
0
VERTEX
5
cfa
8
Layer1
10
131.4250
20
18.0000
30
0.0
0
VERTEX
5
cfb
8
Layer1
10
130.6250
20
18.0000
30
0.0
0
VERTEX
5
cfc
8
Layer1
10
130.6250
20
19.0000
30
0.0
0
VERTEX
5
cfd
8
Layer1
10
116.6250
20
19.0000
30
0.0
0
VERTEX
5
cfe
8
Layer1
10
116.6250
20
18.0000
30
0.0
0
VERTEX
5
cff
8
Layer1
10
115.8250
20
18.0000
30
0.0
0
VERTEX
5
d00
8
Layer1
10
115.8250
20
14.5000
30
0.0
0
VERTEX
5
d01
8
Layer1
10
116.6250
20
14.5000
30
0.0
0
VERTEX
5
d02
8
Layer1
10
116.6250
20
9.5000
30
0.0
0
VERTEX
5
d03
8
Layer1
10
115.8250
20
9.5000
30
0.0
0
VERTEX
5
d04
8
Layer1
10
115.8250
20
6.0000
30
0.0
0
VERTEX
5
d05
8
Layer1
10
116.6250
20
6.0000
30
0.0
0
VERTEX
5
d06
8
Layer1
10
116.6250
20
5.0000
30
0.0
0
VERTEX
5
d07
8
Layer1
10
130.6250
20
5.0000
30
0.0
0
VERTEX
5
d08
8
Layer1
10
130.6250
20
6.0000
30
0.0
0
SEQEND
5
d09
8
Layer1
0
POLYLINE
5
d0a
8
Layer1
66
1
10
0.0
20
0.0
30
0.0
70
1
0
VERTEX
5
d0b
8
Layer1
10
146.5250
20
5.2300
30
0.0
0
VERTEX
5
d0c
8
Layer1
10
148.2000
20
5.2300
30
0.0
0
VERTEX
5
d0d
8
Layer1
10
148.2000
20
9.7000
30
0.0
0
VERTEX
5
d0e
8
Layer1
10
187.8750
20
9.7000
30
0.0
0
VERTEX
5
d0f
8
Layer1
10
187.8750
20
9.5000
30
0.0
0
VERTEX
5
d10
8
Layer1
10
187.0750
20
9.5000
30
0.0
0
VERTEX
5
d11
8
Layer1
10
187.0750
20
6.0000
30
0.0
0
VERTEX
5
d12
8
Layer1
10
187.8750
20
6.0000
30
0.0
0
VERTEX
5
d13
8
Layer1
10
187.8750
20
5.0000
30
0.0
0
VERTEX
5
d14
8
Layer1
10
201.8750
20
5.0000
30
0.0
0
VERTEX
5
d15
8
Layer1
10
201.8750
20
6.0000
30
0.0
0
VERTEX
5
d16
8
Layer1
10
202.6750
20
6.0000
30
0.0
0
VERTEX
5
d17
8
Layer1
10
202.6750
20
9.5000
30
0.0
0
VERTEX
5
d18
8
Layer1
10
201.8750
20
9.5000
30
0.0
0
VERTEX
5
d19
8
Layer1
10
201.8750
20
9.7000
30
0.0
0
VERTEX
5
d1a
8
Layer1
10
241.5500
20
9.7000
30
0.0
0
VERTEX
5
d1b
8
Layer1
10
241.5500
20
5.2300
30
0.0
0
VERTEX
5
d1c
8
Layer1
10
243.2250
20
5.2300
30
0.0
0
VERTEX
5
d1d
8
Layer1
10
243.2250
20
4.2380
30
0.0
0
VERTEX
5
d1e
8
Layer1
10
246.5250
20
4.2380
30
0.0
0
VERTEX
5
d1f
8
Layer1
10
246.5250
20
5.2300
30
0.0
0
VERTEX
5
d20
8
Layer1
10
248.2000
20
5.2300
30
0.0
0
VERTEX
5
d21
8
Layer1
10
248.2000
20
11.5000
30
0.0
0
VERTEX
5
d22
8
Layer1
10
249.1000
20
11.5000
30
0.0
0
VERTEX
5
d23
8
Layer1
10
249.1000
20
14.3000
30
0.0
0
VERTEX
5
d24
8
Layer1
10
248.2000
20
14.3000
30
0.0
0
VERTEX
5
d25
8
Layer1
10
248.2000
20
17.5300
30
0.0
0
VERTEX
5
d26
8
Layer1
10
246.5250
20
17.5300
30
0.0
0
VERTEX
5
d27
8
Layer1
10
246.5250
20
18.2380
30
0.0
0
VERTEX
5
d28
8
Layer1
10
243.2250
20
18.2380
30
0.0
0
VERTEX
5
d29
8
Layer1
10
243.2250
20
17.5300
30
0.0
0
VERTEX
5
d2a
8
Layer1
10
241.5500
20
17.5300
30
0.0
0
VERTEX
5
d2b
8
Layer1
10
241.5500
20
14.3000
30
0.0
0
VERTEX
5
d2c
8
Layer1
10
201.8750
20
14.3000
30
0.0
0
VERTEX
5
d2d
8
Layer1
10
201.8750
20
14.5000
30
0.0
0
VERTEX
5
d2e
8
Layer1
10
202.6750
20
14.5000
30
0.0
0
VERTEX
5
d2f
8
Layer1
10
202.6750
20
18.0000
30
0.0
0
VERTEX
5
d30
8
Layer1
10
201.8750
20
18.0000
30
0.0
0
VERTEX
5
d31
8
Layer1
10
201.8750
20
19.0000
30
0.0
0
VERTEX
5
d32
8
Layer1
10
187.8750
20
19.0000
30
0.0
0
VERTEX
5
d33
8
Layer1
10
187.8750
20
18.0000
30
0.0
0
VERTEX
5
d34
8
Layer1
10
187.0750
20
18.0000
30
0.0
0
VERTEX
5
d35
8
Layer1
10
187.0750
20
14.5000
30
0.0
0
VERTEX
5
d36
8
Layer1
10
187.8750
20
14.5000
30
0.0
0
VERTEX
5
d37
8
Layer1
10
187.8750
20
14.3000
30
0.0
0
VERTEX
5
d38
8
Layer1
10
148.2000
20
14.3000
30
0.0
0
VERTEX
5
d39
8
Layer1
10
148.2000
20
17.5300
30
0.0
0
VERTEX
5
d3a
8
Layer1
10
146.5250
20
17.5300
30
0.0
0
VERTEX
5
d3b
8
Layer1
10
146.5250
20
18.2380
30
0.0
0
VERTEX
5
d3c
8
Layer1
10
143.2250
20
18.2380
30
0.0
0
VERTEX
5
d3d
8
Layer1
10
143.2250
20
17.5300
30
0.0
0
VERTEX
5
d3e
8
Layer1
10
141.5500
20
17.5300
30
0.0
0
VERTEX
5
d3f
8
Layer1
10
141.5500
20
14.3000
30
0.0
0
VERTEX
5
d40
8
Layer1
10
140.6500
20
14.3000
30
0.0
0
VERTEX
5
d41
8
Layer1
10
140.6500
20
11.5000
30
0.0
0
VERTEX
5
d42
8
Layer1
10
141.5500
20
11.5000
30
0.0
0
VERTEX
5
d43
8
Layer1
10
141.5500
20
5.2300
30
0.0
0
VERTEX
5
d44
8
Layer1
10
143.2250
20
5.2300
30
0.0
0
VERTEX
5
d45
8
Layer1
10
143.2250
20
4.2380
30
0.0
0
VERTEX
5
d46
8
Layer1
10
146.5250
20
4.2380
30
0.0
0
VERTEX
5
d47
8
Layer1
10
146.5250
20
5.2300
30
0.0
0
SEQEND
5
d48
8
Layer1
0
POLYLINE
5
d49
8
Layer1
66
1
10
0.0
20
0.0
30
0.0
70
1
0
VERTEX
5
d4a
8
Layer1
10
273.1250
20
6.0000
30
0.0
0
VERTEX
5
d4b
8
Layer1
10
273.9250
20
6.0000
30
0.0
0
VERTEX
5
d4c
8
Layer1
10
273.9250
20
9.5000
30
0.0
0
VERTEX
5
d4d
8
Layer1
10
273.1250
20
9.5000
30
0.0
0
VERTEX
5
d4e
8
Layer1
10
273.1250
20
14.5000
30
0.0
0
VERTEX
5
d4f
8
Layer1
10
273.9250
20
14.5000
30
0.0
0
VERTEX
5
d50
8
Layer1
10
273.9250
20
18.0000
30
0.0
0
VERTEX
5
d51
8
Layer1
10
273.1250
20
18.0000
30
0.0
0
VERTEX
5
d52
8
Layer1
10
273.1250
20
19.0000
30
0.0
0
VERTEX
5
d53
8
Layer1
10
259.1250
20
19.0000
30
0.0
0
VERTEX
5
d54
8
Layer1
10
259.1250
20
18.0000
30
0.0
0
VERTEX
5
d55
8
Layer1
10
258.3250
20
18.0000
30
0.0
0
VERTEX
5
d56
8
Layer1
10
258.3250
20
14.5000
30
0.0
0
VERTEX
5
d57
8
Layer1
10
259.1250
20
14.5000
30
0.0
0
VERTEX
5
d58
8
Layer1
10
259.1250
20
9.5000
30
0.0
0
VERTEX
5
d59
8
Layer1
10
258.3250
20
9.5000
30
0.0
0
VERTEX
5
d5a
8
Layer1
10
258.3250
20
6.0000
30
0.0
0
VERTEX
5
d5b
8
Layer1
10
259.1250
20
6.0000
30
0.0
0
VERTEX
5
d5c
8
Layer1
10
259.1250
20
5.0000
30
0.0
0
VERTEX
5
d5d
8
Layer1
10
273.1250
20
5.0000
30
0.0
0
VERTEX
5
d5e
8
Layer1
10
273.1250
20
6.0000
30
0.0
0
SEQEND
5
d5f
8
Layer1
0
POLYLINE
5
d60
8
Layer1
66
1
10
0.0
20
0.0
30
0.0
70
1
0
VERTEX
5
d61
8
Layer1
10
296.8750
20
6.0000
30
0.0
0
VERTEX
5
d62
8
Layer1
10
297.6750
20
6.0000
30
0.0
0
VERTEX
5
d63
8
Layer1
10
297.6750
20
9.5000
30
0.0
0
VERTEX
5
d64
8
Layer1
10
296.8750
20
9.5000
30
0.0
0
VERTEX
5
d65
8
Layer1
10
296.8750
20
14.5000
30
0.0
0
VERTEX
5
d66
8
Layer1
10
297.6750
20
14.5000
30
0.0
0
VERTEX
5
d67
8
Layer1
10
297.6750
20
18.0000
30
0.0
0
VERTEX
5
d68
8
Layer1
10
296.8750
20
18.0000
30
0.0
0
VERTEX
5
d69
8
Layer1
10
296.8750
20
19.0000
30
0.0
0
VERTEX
5
d6a
8
Layer1
10
282.8750
20
19.0000
30
0.0
0
VERTEX
5
d6b
8
Layer1
10
282.8750
20
18.0000
30
0.0
0
VERTEX
5
d6c
8
Layer1
10
282.0750
20
18.0000
30
0.0
0
VERTEX
5
d6d
8
Layer1
10
282.0750
20
14.5000
30
0.0
0
VERTEX
5
d6e
8
Layer1
10
282.8750
20
14.5000
30
0.0
0
VERTEX
5
d6f
8
Layer1
10
282.8750
20
9.5000
30
0.0
0
VERTEX
5
d70
8
Layer1
10
282.0750
20
9.5000
30
0.0
0
VERTEX
5
d71
8
Layer1
10
282.0750
20
6.0000
30
0.0
0
VERTEX
5
d72
8
Layer1
10
282.8750
20
6.0000
30
0.0
0
VERTEX
5
d73
8
Layer1
10
282.8750
20
5.0000
30
0.0
0
VERTEX
5
d74
8
Layer1
10
296.8750
20
5.0000
30
0.0
0
VERTEX
5
d75
8
Layer1
10
296.8750
20
6.0000
30
0.0
0
SEQEND
5
d76
8
Layer1
0
POLYLINE
5
d77
8
Layer1
66
1
10
0.0
20
0.0
30
0.0
70
1
0
VERTEX
5
d78
8
Layer1
10
320.6250
20
6.0000
30
0.0
0
VERTEX
5
d79
8
Layer1
10
321.4250
20
6.0000
30
0.0
0
VERTEX
5
d7a
8
Layer1
10
321.4250
20
9.5000
30
0.0
0
VERTEX
5
d7b
8
Layer1
10
320.6250
20
9.5000
30
0.0
0
VERTEX
5
d7c
8
Layer1
10
320.6250
20
14.5000
30
0.0
0
VERTEX
5
d7d
8
Layer1
10
321.4250
20
14.5000
30
0.0
0
VERTEX
5
d7e
8
Layer1
10
321.4250
20
18.0000
30
0.0
0
VERTEX
5
d7f
8
Layer1
10
320.6250
20
18.0000
30
0.0
0
VERTEX
5
d80
8
Layer1
10
320.6250
20
19.0000
30
0.0
0
VERTEX
5
d81
8
Layer1
10
306.6250
20
19.0000
30
0.0
0
VERTEX
5
d82
8
Layer1
10
306.6250
20
18.0000
30
0.0
0
VERTEX
5
d83
8
Layer1
10
305.8250
20
18.0000
30
0.0
0
VERTEX
5
d84
8
Layer1
10
305.8250
20
14.5000
30
0.0
0
VERTEX
5
d85
8
Layer1
10
306.6250
20
14.5000
30
0.0
0
VERTEX
5
d86
8
Layer1
10
306.6250
20
9.5000
30
0.0
0
VERTEX
5
d87
8
Layer1
10
305.8250
20
9.5000
30
0.0
0
VERTEX
5
d88
8
Layer1
10
305.8250
20
6.0000
30
0.0
0
VERTEX
5
d89
8
Layer1
10
306.6250
20
6.0000
30
0.0
0
VERTEX
5
d8a
8
Layer1
10
306.6250
20
5.0000
30
0.0
0
VERTEX
5
d8b
8
Layer1
10
320.6250
20
5.0000
30
0.0
0
VERTEX
5
d8c
8
Layer1
10
320.6250
20
6.0000
30
0.0
0
SEQEND
5
d8d
8
Layer1
0
POLYLINE
5
d8e
8
Layer1
66
1
10
0.0
20
0.0
30
0.0
70
1
0
VERTEX
5
d8f
8
Layer1
10
344.3750
20
6.0000
30
0.0
0
VERTEX
5
d90
8
Layer1
10
345.1750
20
6.0000
30
0.0
0
VERTEX
5
d91
8
Layer1
10
345.1750
20
9.5000
30
0.0
0
VERTEX
5
d92
8
Layer1
10
344.3750
20
9.5000
30
0.0
0
VERTEX
5
d93
8
Layer1
10
344.3750
20
14.5000
30
0.0
0
VERTEX
5
d94
8
Layer1
10
345.1750
20
14.5000
30
0.0
0
VERTEX
5
d95
8
Layer1
10
345.1750
20
18.0000
30
0.0
0
VERTEX
5
d96
8
Layer1
10
344.3750
20
18.0000
30
0.0
0
VERTEX
5
d97
8
Layer1
10
344.3750
20
19.0000
30
0.0
0
VERTEX
5
d98
8
Layer1
10
330.3750
20
19.0000
30
0.0
0
VERTEX
5
d99
8
Layer1
10
330.3750
20
18.0000
30
0.0
0
VERTEX
5
d9a
8
Layer1
10
329.5750
20
18.0000
30
0.0
0
VERTEX
5
d9b
8
Layer1
10
329.5750
20
14.5000
30
0.0
0
VERTEX
5
d9c
8
Layer1
10
330.3750
20
14.5000
30
0.0
0
VERTEX
5
d9d
8
Layer1
10
330.3750
20
9.5000
30
0.0
0
VERTEX
5
d9e
8
Layer1
10
329.5750
20
9.5000
30
0.0
0
VERTEX
5
d9f
8
Layer1
10
329.5750
20
6.0000
30
0.0
0
VERTEX
5
da0
8
Layer1
10
330.3750
20
6.0000
30
0.0
0
VERTEX
5
da1
8
Layer1
10
330.3750
20
5.0000
30
0.0
0
VERTEX
5
da2
8
Layer1
10
344.3750
20
5.0000
30
0.0
0
VERTEX
5
da3
8
Layer1
10
344.3750
20
6.0000
30
0.0
0
SEQEND
5
da4
8
Layer1
0
POLYLINE
5
da5
8
Layer1
66
1
10
0.0
20
0.0
30
0.0
70
1
0
VERTEX
5
da6
8
Layer1
10
370.5000
20
6.0000
30
0.0
0
VERTEX
5
da7
8
Layer1
10
371.3000
20
6.0000
30
0.0
0
VERTEX
5
da8
8
Layer1
10
371.3000
20
9.5000
30
0.0
0
VERTEX
5
da9
8
Layer1
10
370.5000
20
9.5000
30
0.0
0
VERTEX
5
daa
8
Layer1
10
370.5000
20
14.5000
30
0.0
0
VERTEX
5
dab
8
Layer1
10
371.3000
20
14.5000
30
0.0
0
VERTEX
5
dac
8
Layer1
10
371.3000
20
18.0000
30
0.0
0
VERTEX
5
dad
8
Layer1
10
370.5000
20
18.0000
30
0.0
0
VERTEX
5
dae
8
Layer1
10
370.5000
20
19.0000
30
0.0
0
VERTEX
5
daf
8
Layer1
10
356.5000
20
19.0000
30
0.0
0
VERTEX
5
db0
8
Layer1
10
356.5000
20
18.0000
30
0.0
0
VERTEX
5
db1
8
Layer1
10
355.7000
20
18.0000
30
0.0
0
VERTEX
5
db2
8
Layer1
10
355.7000
20
14.5000
30
0.0
0
VERTEX
5
db3
8
Layer1
10
356.5000
20
14.5000
30
0.0
0
VERTEX
5
db4
8
Layer1
10
356.5000
20
9.5000
30
0.0
0
VERTEX
5
db5
8
Layer1
10
355.7000
20
9.5000
30
0.0
0
VERTEX
5
db6
8
Layer1
10
355.7000
20
6.0000
30
0.0
0
VERTEX
5
db7
8
Layer1
10
356.5000
20
6.0000
30
0.0
0
VERTEX
5
db8
8
Layer1
10
356.5000
20
5.0000
30
0.0
0
VERTEX
5
db9
8
Layer1
10
370.5000
20
5.0000
30
0.0
0
VERTEX
5
dba
8
Layer1
10
370.5000
20
6.0000
30
0.0
0
SEQEND
5
dbb
8
Layer1
0
POLYLINE
5
dbc
8
Layer1
66
1
10
0.0
20
0.0
30
0.0
70
1
0
VERTEX
5
dbd
8
Layer1
10
389.5000
20
6.0000
30
0.0
0
VERTEX
5
dbe
8
Layer1
10
390.3000
20
6.0000
30
0.0
0
VERTEX
5
dbf
8
Layer1
10
390.3000
20
9.5000
30
0.0
0
VERTEX
5
dc0
8
Layer1
10
389.5000
20
9.5000
30
0.0
0
VERTEX
5
dc1
8
Layer1
10
389.5000
20
14.5000
30
0.0
0
VERTEX
5
dc2
8
Layer1
10
390.3000
20
14.5000
30
0.0
0
VERTEX
5
dc3
8
Layer1
10
390.3000
20
18.0000
30
0.0
0
VERTEX
5
dc4
8
Layer1
10
389.5000
20
18.0000
30
0.0
0
VERTEX
5
dc5
8
Layer1
10
389.5000
20
19.0000
30
0.0
0
VERTEX
5
dc6
8
Layer1
10
375.5000
20
19.0000
30
0.0
0
VERTEX
5
dc7
8
Layer1
10
375.5000
20
18.0000
30
0.0
0
VERTEX
5
dc8
8
Layer1
10
374.7000
20
18.0000
30
0.0
0
VERTEX
5
dc9
8
Layer1
10
374.7000
20
14.5000
30
0.0
0
VERTEX
5
dca
8
Layer1
10
375.5000
20
14.5000
30
0.0
0
VERTEX
5
dcb
8
Layer1
10
375.5000
20
9.5000
30
0.0
0
VERTEX
5
dcc
8
Layer1
10
374.7000
20
9.5000
30
0.0
0
VERTEX
5
dcd
8
Layer1
10
374.7000
20
6.0000
30
0.0
0
VERTEX
5
dce
8
Layer1
10
375.5000
20
6.0000
30
0.0
0
VERTEX
5
dcf
8
Layer1
10
375.5000
20
5.0000
30
0.0
0
VERTEX
5
dd0
8
Layer1
10
389.5000
20
5.0000
30
0.0
0
VERTEX
5
dd1
8
Layer1
10
389.5000
20
6.0000
30
0.0
0
SEQEND
5
dd2
8
Layer1
0
POLYLINE
5
dd3
8
Layer1
66
1
10
0.0
20
0.0
30
0.0
70
1
0
VERTEX
5
dd4
8
Layer1
10
408.5000
20
6.0000
30
0.0
0
VERTEX
5
dd5
8
Layer1
10
409.3000
20
6.0000
30
0.0
0
VERTEX
5
dd6
8
Layer1
10
409.3000
20
9.5000
30
0.0
0
VERTEX
5
dd7
8
Layer1
10
408.5000
20
9.5000
30
0.0
0
VERTEX
5
dd8
8
Layer1
10
408.5000
20
14.5000
30
0.0
0
VERTEX
5
dd9
8
Layer1
10
409.3000
20
14.5000
30
0.0
0
VERTEX
5
dda
8
Layer1
10
409.3000
20
18.0000
30
0.0
0
VERTEX
5
ddb
8
Layer1
10
408.5000
20
18.0000
30
0.0
0
VERTEX
5
ddc
8
Layer1
10
408.5000
20
19.0000
30
0.0
0
VERTEX
5
ddd
8
Layer1
10
394.5000
20
19.0000
30
0.0
0
VERTEX
5
dde
8
Layer1
10
394.5000
20
18.0000
30
0.0
0
VERTEX
5
ddf
8
Layer1
10
393.7000
20
18.0000
30
0.0
0
VERTEX
5
de0
8
Layer1
10
393.7000
20
14.5000
30
0.0
0
VERTEX
5
de1
8
Layer1
10
394.5000
20
14.5000
30
0.0
0
VERTEX
5
de2
8
Layer1
10
394.5000
20
9.5000
30
0.0
0
VERTEX
5
de3
8
Layer1
10
393.7000
20
9.5000
30
0.0
0
VERTEX
5
de4
8
Layer1
10
393.7000
20
6.0000
30
0.0
0
VERTEX
5
de5
8
Layer1
10
394.5000
20
6.0000
30
0.0
0
VERTEX
5
de6
8
Layer1
10
394.5000
20
5.0000
30
0.0
0
VERTEX
5
de7
8
Layer1
10
408.5000
20
5.0000
30
0.0
0
VERTEX
5
de8
8
Layer1
10
408.5000
20
6.0000
30
0.0
0
SEQEND
5
de9
8
Layer1
0
POLYLINE
5
dea
8
Layer1
66
1
10
0.0
20
0.0
30
0.0
70
1
0
VERTEX
5
deb
8
Layer1
10
424.5000
20
5.2300
30
0.0
0
VERTEX
5
dec
8
Layer1
10
426.1750
20
5.2300
30
0.0
0
VERTEX
5
ded
8
Layer1
10
426.1750
20
6.0300
30
0.0
0
VERTEX
5
dee
8
Layer1
10
426.9500
20
6.0300
30
0.0
0
VERTEX
5
def
8
Layer1
10
426.9500
20
6.0000
30
0.0
0
VERTEX
5
df0
8
Layer1
10
427.7500
20
6.0000
30
0.0
0
VERTEX
5
df1
8
Layer1
10
427.7500
20
5.0000
30
0.0
0
VERTEX
5
df2
8
Layer1
10
441.7500
20
5.0000
30
0.0
0
VERTEX
5
df3
8
Layer1
10
441.7500
20
6.0000
30
0.0
0
VERTEX
5
df4
8
Layer1
10
442.5500
20
6.0000
30
0.0
0
VERTEX
5
df5
8
Layer1
10
442.5500
20
6.0300
30
0.0
0
VERTEX
5
df6
8
Layer1
10
443.3250
20
6.0300
30
0.0
0
VERTEX
5
df7
8
Layer1
10
443.3250
20
5.2300
30
0.0
0
VERTEX
5
df8
8
Layer1
10
445.0000
20
5.2300
30
0.0
0
VERTEX
5
df9
8
Layer1
10
445.0000
20
4.2380
30
0.0
0
VERTEX
5
dfa
8
Layer1
10
448.3000
20
4.2380
30
0.0
0
VERTEX
5
dfb
8
Layer1
10
448.3000
20
5.2300
30
0.0
0
VERTEX
5
dfc
8
Layer1
10
449.9750
20
5.2300
30
0.0
0
VERTEX
5
dfd
8
Layer1
10
449.9750
20
11.5000
30
0.0
0
VERTEX
5
dfe
8
Layer1
10
450.8500
20
11.5000
30
0.0
0
VERTEX
5
dff
8
Layer1
10
450.8500
20
14.3000
30
0.0
0
VERTEX
5
e00
8
Layer1
10
449.9750
20
14.3000
30
0.0
0
VERTEX
5
e01
8
Layer1
10
449.9750
20
17.5300
30
0.0
0
VERTEX
5
e02
8
Layer1
10
448.3000
20
17.5300
30
0.0
0
VERTEX
5
e03
8
Layer1
10
448.3000
20
18.2380
30
0.0
0
VERTEX
5
e04
8
Layer1
10
445.0000
20
18.2380
30
0.0
0
VERTEX
5
e05
8
Layer1
10
445.0000
20
17.5300
30
0.0
0
VERTEX
5
e06
8
Layer1
10
443.3250
20
17.5300
30
0.0
0
VERTEX
5
e07
8
Layer1
10
443.3250
20
16.7300
30
0.0
0
VERTEX
5
e08
8
Layer1
10
442.5500
20
16.7300
30
0.0
0
VERTEX
5
e09
8
Layer1
10
442.5500
20
18.0000
30
0.0
0
VERTEX
5
e0a
8
Layer1
10
441.7500
20
18.0000
30
0.0
0
VERTEX
5
e0b
8
Layer1
10
441.7500
20
19.0000
30
0.0
0
VERTEX
5
e0c
8
Layer1
10
427.7500
20
19.0000
30
0.0
0
VERTEX
5
e0d
8
Layer1
10
427.7500
20
18.0000
30
0.0
0
VERTEX
5
e0e
8
Layer1
10
426.9500
20
18.0000
30
0.0
0
VERTEX
5
e0f
8
Layer1
10
426.9500
20
16.7300
30
0.0
0
VERTEX
5
e10
8
Layer1
10
426.1750
20
16.7300
30
0.0
0
VERTEX
5
e11
8
Layer1
10
426.1750
20
17.5300
30
0.0
0
VERTEX
5
e12
8
Layer1
10
424.5000
20
17.5300
30
0.0
0
VERTEX
5
e13
8
Layer1
10
424.5000
20
18.2380
30
0.0
0
VERTEX
5
e14
8
Layer1
10
421.2000
20
18.2380
30
0.0
0
VERTEX
5
e15
8
Layer1
10
421.2000
20
17.5300
30
0.0
0
VERTEX
5
e16
8
Layer1
10
419.5250
20
17.5300
30
0.0
0
VERTEX
5
e17
8
Layer1
10
419.5250
20
14.3000
30
0.0
0
VERTEX
5
e18
8
Layer1
10
418.6500
20
14.3000
30
0.0
0
VERTEX
5
e19
8
Layer1
10
418.6500
20
11.5000
30
0.0
0
VERTEX
5
e1a
8
Layer1
10
419.5250
20
11.5000
30
0.0
0
VERTEX
5
e1b
8
Layer1
10
419.5250
20
5.2300
30
0.0
0
VERTEX
5
e1c
8
Layer1
10
421.2000
20
5.2300
30
0.0
0
VERTEX
5
e1d
8
Layer1
10
421.2000
20
4.2380
30
0.0
0
VERTEX
5
e1e
8
Layer1
10
424.5000
20
4.2380
30
0.0
0
VERTEX
5
e1f
8
Layer1
10
424.5000
20
5.2300
30
0.0
0
SEQEND
5
e20
8
Layer1
0
POLYLINE
5
e21
8
Layer1
66
1
10
0.0
20
0.0
30
0.0
70
1
0
VERTEX
5
e22
8
Layer1
10
470.2500
20
6.0000
30
0.0
0
VERTEX
5
e23
8
Layer1
10
471.0500
20
6.0000
30
0.0
0
VERTEX
5
e24
8
Layer1
10
471.0500
20
9.5000
30
0.0
0
VERTEX
5
e25
8
Layer1
10
470.2500
20
9.5000
30
0.0
0
VERTEX
5
e26
8
Layer1
10
470.2500
20
14.5000
30
0.0
0
VERTEX
5
e27
8
Layer1
10
471.0500
20
14.5000
30
0.0
0
VERTEX
5
e28
8
Layer1
10
471.0500
20
18.0000
30
0.0
0
VERTEX
5
e29
8
Layer1
10
470.2500
20
18.0000
30
0.0
0
VERTEX
5
e2a
8
Layer1
10
470.2500
20
19.0000
30
0.0
0
VERTEX
5
e2b
8
Layer1
10
456.2500
20
19.0000
30
0.0
0
VERTEX
5
e2c
8
Layer1
10
456.2500
20
18.0000
30
0.0
0
VERTEX
5
e2d
8
Layer1
10
455.4500
20
18.0000
30
0.0
0
VERTEX
5
e2e
8
Layer1
10
455.4500
20
14.5000
30
0.0
0
VERTEX
5
e2f
8
Layer1
10
456.2500
20
14.5000
30
0.0
0
VERTEX
5
e30
8
Layer1
10
456.2500
20
9.5000
30
0.0
0
VERTEX
5
e31
8
Layer1
10
455.4500
20
9.5000
30
0.0
0
VERTEX
5
e32
8
Layer1
10
455.4500
20
6.0000
30
0.0
0
VERTEX
5
e33
8
Layer1
10
456.2500
20
6.0000
30
0.0
0
VERTEX
5
e34
8
Layer1
10
456.2500
20
5.0000
30
0.0
0
VERTEX
5
e35
8
Layer1
10
470.2500
20
5.0000
30
0.0
0
VERTEX
5
e36
8
Layer1
10
470.2500
20
6.0000
30
0.0
0
SEQEND
5
e37
8
Layer1
0
ENDSEC
0
EOF
