<svg style="background-color:#dddddd" width="988.5" height="200"><path stroke="black" fill="white" fill-opacity="1.0" d="M 0, 200 L 988.5, 200 L 988.5, 0 L 0, 0 Z"/><path stroke="black" fill="white" fill-opacity="0.0" d="M 38, 36 L 39.6, 36 L 39.6, 29 L 38, 29 L 38, 19 L 39.6, 19 L 39.6, 12 L 38, 12 L 38, 10 L 10, 10 L 10, 12 L 8.4, 12 L 8.4, 19 L 10, 19 L 10, 29 L 8.4, 29 L 8.4, 36 L 10, 36 L 10, 38 L 38, 38 Z"/><path stroke="black" fill="white" fill-opacity="0.0" d="M 76, 36 L 77.6, 36 L 77.6, 29 L 76, 29 L 76, 19 L 77.6, 19 L 77.6, 12 L 76, 12 L 76, 10 L 48, 10 L 48, 12 L 46.4, 12 L 46.4, 19 L 48, 19 L 48, 29 L 46.4, 29 L 46.4, 36 L 48, 36 L 48, 38 L 76, 38 Z"/><path stroke="black" fill="white" fill-opacity="0.0" d="M 114, 36 L 115.6, 36 L 115.6, 29 L 114, 29 L 114, 19 L 115.6, 19 L 115.6, 12 L 114, 12 L 114, 10 L 86, 10 L 86, 12 L 84.4, 12 L 84.4, 19 L 86, 19 L 86, 29 L 84.4, 29 L 84.4, 36 L 86, 36 L 86, 38 L 114, 38 Z"/><path stroke="black" fill="white" fill-opacity="0.0" d="M 161.5, 36 L 163.1, 36 L 163.1, 29 L 161.5, 29 L 161.5, 19 L 163.1, 19 L 163.1, 12 L 161.5, 12 L 161.5, 10 L 133.5, 10 L 133.5, 12 L 131.9, 12 L 131.9, 19 L 133.5, 19 L 133.5, 29 L 131.9, 29 L 131.9, 36 L 133.5, 36 L 133.5, 38 L 161.5, 38 Z"/><path stroke="black" fill="white" fill-opacity="0.0" d="M 199.5, 36 L 201.1, 36 L 201.1, 29 L 199.5, 29 L 199.5, 19 L 201.1, 19 L 201.1, 12 L 199.5, 12 L 199.5, 10 L 171.5, 10 L 171.5, 12 L 169.9, 12 L 169.9, 19 L 171.5, 19 L 171.5, 29 L 169.9, 29 L 169.9, 36 L 171.5, 36 L 171.5, 38 L 199.5, 38 Z"/><path stroke="black" fill="white" fill-opacity="0.0" d="M 237.5, 36 L 239.1, 36 L 239.1, 29 L 237.5, 29 L 237.5, 19 L 239.1, 19 L 239.1, 12 L 237.5, 12 L 237.5, 10 L 209.5, 10 L 209.5, 12 L 207.9, 12 L 207.9, 19 L 209.5, 19 L 209.5, 29 L 207.9, 29 L 207.9, 36 L 209.5, 36 L 209.5, 38 L 237.5, 38 Z"/><path stroke="black" fill="white" fill-opacity="0.0" d="M 275.5, 36 L 277.1, 36 L 277.1, 29 L 275.5, 29 L 275.5, 19 L 277.1, 19 L 277.1, 12 L 275.5, 12 L 275.5, 10 L 247.5, 10 L 247.5, 12 L 245.9, 12 L 245.9, 19 L 247.5, 19 L 247.5, 29 L 245.9, 29 L 245.9, 36 L 247.5, 36 L 247.5, 38 L 275.5, 38 Z"/><path stroke="black" fill="white" fill-opacity="0.0" d="M 313.5, 36 L 315.1, 36 L 315.1, 29 L 313.5, 29 L 313.5, 19 L 315.1, 19 L 315.1, 12 L 313.5, 12 L 313.5, 10 L 285.5, 10 L 285.5, 12 L 283.9, 12 L 283.9, 19 L 285.5, 19 L 285.5, 29 L 283.9, 29 L 283.9, 36 L 285.5, 36 L 285.5, 38 L 313.5, 38 Z"/><path stroke="black" fill="white" fill-opacity="0.0" d="M 351.5, 36 L 353.1, 36 L 353.1, 29 L 351.5, 29 L 351.5, 19 L 353.1, 19 L 353.1, 12 L 351.5, 12 L 351.5, 10 L 323.5, 10 L 323.5, 12 L 321.9, 12 L 321.9, 19 L 323.5, 19 L 323.5, 29 L 321.9, 29 L 321.9, 36 L 323.5, 36 L 323.5, 38 L 351.5, 38 Z"/><path stroke="black" fill="white" fill-opacity="0.0" d="M 389.5, 36 L 391.1, 36 L 391.1, 29 L 389.5, 29 L 389.5, 19 L 391.1, 19 L 391.1, 12 L 389.5, 12 L 389.5, 10 L 361.5, 10 L 361.5, 12 L 359.9, 12 L 359.9, 19 L 361.5, 19 L 361.5, 29 L 359.9, 29 L 359.9, 36 L 361.5, 36 L 361.5, 38 L 389.5, 38 Z"/><path stroke="black" fill="white" fill-opacity="0.0" d="M 427.5, 36 L 429.1, 36 L 429.1, 29 L 427.5, 29 L 427.5, 19 L 429.1, 19 L 429.1, 12 L 427.5, 12 L 427.5, 10 L 399.5, 10 L 399.5, 12 L 397.9, 12 L 397.9, 19 L 399.5, 19 L 399.5, 29 L 397.9, 29 L 397.9, 36 L 399.5, 36 L 399.5, 38 L 427.5, 38 Z"/><path stroke="black" fill="white" fill-opacity="0.0" d="M 465.5, 36 L 467.1, 36 L 467.1, 29 L 465.5, 29 L 465.5, 19 L 467.1, 19 L 467.1, 12 L 465.5, 12 L 465.5, 10 L 437.5, 10 L 437.5, 12 L 435.9, 12 L 435.9, 19 L 437.5, 19 L 437.5, 29 L 435.9, 29 L 435.9, 36 L 437.5, 36 L 437.5, 38 L 465.5, 38 Z"/><path stroke="black" fill="white" fill-opacity="0.0" d="M 503.5, 36 L 505.1, 36 L 505.1, 29 L 503.5, 29 L 503.5, 19 L 505.1, 19 L 505.1, 12 L 503.5, 12 L 503.5, 10 L 475.5, 10 L 475.5, 12 L 473.9, 12 L 473.9, 19 L 475.5, 19 L 475.5, 29 L 473.9, 29 L 473.9, 36 L 475.5, 36 L 475.5, 38 L 503.5, 38 Z"/><path stroke="black" fill="white" fill-opacity="0.0" d="M 541.5, 36 L 543.1, 36 L 543.1, 29 L 541.5, 29 L 541.5, 19 L 543.1, 19 L 543.1, 12 L 541.5, 12 L 541.5, 10 L 513.5, 10 L 513.5, 12 L 511.9, 12 L 511.9, 19 L 513.5, 19 L 513.5, 29 L 511.9, 29 L 511.9, 36 L 513.5, 36 L 513.5, 38 L 541.5, 38 Z"/><path stroke="black" fill="white" fill-opacity="0.0" d="M 579.5, 36 L 581.1, 36 L 581.1, 29 L 579.5, 29 L 579.5, 19 L 581.1, 19 L 581.1, 12 L 579.5, 12 L 579.5, 10 L 551.5, 10 L 551.5, 12 L 549.9, 12 L 549.9, 19 L 551.5, 19 L 551.5, 29 L 549.9, 29 L 549.9, 36 L 551.5, 36 L 551.5, 38 L 579.5, 38 Z"/><path stroke="black" fill="white" fill-opacity="0.0" d="M 617.5, 36 L 619.1, 36 L 619.1, 29 L 617.5, 29 L 617.5, 19 L 619.1, 19 L 619.1, 12 L 617.5, 12 L 617.5, 10 L 589.5, 10 L 589.5, 12 L 587.9, 12 L 587.9, 19 L 589.5, 19 L 589.5, 29 L 587.9, 29 L 587.9, 36 L 589.5, 36 L 589.5, 38 L 617.5, 38 Z"/><path stroke="black" fill="white" fill-opacity="0.0" d="M 640, 37.53999999999999 L 643.35, 37.53999999999999 L 643.35, 35.94 L 644.9, 35.94 L 644.9, 36 L 646.5, 36 L 646.5, 38 L 674.5, 38 L 674.5, 36 L 676.1, 36 L 676.1, 35.94 L 677.65, 35.94 L 677.65, 37.53999999999999 L 681, 37.53999999999999 L 681, 39.524 L 687.6, 39.524 L 687.6, 37.53999999999999 L 690.95, 37.53999999999999 L 690.95, 25 L 692.7, 25 L 692.7, 19.400000000000006 L 690.95, 19.400000000000006 L 690.95, 12.939999999999998 L 687.6, 12.939999999999998 L 687.6, 11.524000000000001 L 681, 11.524000000000001 L 681, 12.939999999999998 L 677.65, 12.939999999999998 L 677.65, 14.539999999999992 L 676.1, 14.539999999999992 L 676.1, 12 L 674.5, 12 L 674.5, 10 L 646.5, 10 L 646.5, 12 L 644.9, 12 L 644.9, 14.539999999999992 L 643.35, 14.539999999999992 L 643.35, 12.939999999999998 L 640, 12.939999999999998 L 640, 11.524000000000001 L 633.4, 11.524000000000001 L 633.4, 12.939999999999998 L 630.05, 12.939999999999998 L 630.05, 19.400000000000006 L 628.3, 19.400000000000006 L 628.3, 25 L 630.05, 25 L 630.05, 37.53999999999999 L 633.4, 37.53999999999999 L 633.4, 39.524 L 640, 39.524 Z"/><path stroke="black" fill="white" fill-opacity="0.0" d="M 741, 36 L 742.6, 36 L 742.6, 29 L 741, 29 L 741, 19 L 742.6, 19 L 742.6, 12 L 741, 12 L 741, 10 L 713, 10 L 713, 12 L 711.4, 12 L 711.4, 19 L 713, 19 L 713, 29 L 711.4, 29 L 711.4, 36 L 713, 36 L 713, 38 L 741, 38 Z"/><path stroke="black" fill="white" fill-opacity="0.0" d="M 779, 36 L 780.6, 36 L 780.6, 29 L 779, 29 L 779, 19 L 780.6, 19 L 780.6, 12 L 779, 12 L 779, 10 L 751, 10 L 751, 12 L 749.4, 12 L 749.4, 19 L 751, 19 L 751, 29 L 749.4, 29 L 749.4, 36 L 751, 36 L 751, 38 L 779, 38 Z"/><path stroke="black" fill="white" fill-opacity="0.0" d="M 817, 36 L 818.6, 36 L 818.6, 29 L 817, 29 L 817, 19 L 818.6, 19 L 818.6, 12 L 817, 12 L 817, 10 L 789, 10 L 789, 12 L 787.4, 12 L 787.4, 19 L 789, 19 L 789, 29 L 787.4, 29 L 787.4, 36 L 789, 36 L 789, 38 L 817, 38 Z"/><path stroke="black" fill="white" fill-opacity="0.0" d="M 864.5, 36 L 866.1, 36 L 866.1, 29 L 864.5, 29 L 864.5, 19 L 866.1, 19 L 866.1, 12 L 864.5, 12 L 864.5, 10 L 836.5, 10 L 836.5, 12 L 834.9, 12 L 834.9, 19 L 836.5, 19 L 836.5, 29 L 834.9, 29 L 834.9, 36 L 836.5, 36 L 836.5, 38 L 864.5, 38 Z"/><path stroke="black" fill="white" fill-opacity="0.0" d="M 902.5, 36 L 904.1, 36 L 904.1, 29 L 902.5, 29 L 902.5, 19 L 904.1, 19 L 904.1, 12 L 902.5, 12 L 902.5, 10 L 874.5, 10 L 874.5, 12 L 872.9, 12 L 872.9, 19 L 874.5, 19 L 874.5, 29 L 872.9, 29 L 872.9, 36 L 874.5, 36 L 874.5, 38 L 902.5, 38 Z"/><path stroke="black" fill="white" fill-opacity="0.0" d="M 940.5, 36 L 942.1, 36 L 942.1, 29 L 940.5, 29 L 940.5, 19 L 942.1, 19 L 942.1, 12 L 940.5, 12 L 940.5, 10 L 912.5, 10 L 912.5, 12 L 910.9, 12 L 910.9, 19 L 912.5, 19 L 912.5, 29 L 910.9, 29 L 910.9, 36 L 912.5, 36 L 912.5, 38 L 940.5, 38 Z"/><path stroke="black" fill="white" fill-opacity="0.0" d="M 978.5, 36 L 980.1, 36 L 980.1, 29 L 978.5, 29 L 978.5, 19 L 980.1, 19 L 980.1, 12 L 978.5, 12 L 978.5, 10 L 950.5, 10 L 950.5, 12 L 948.9, 12 L 948.9, 19 L 950.5, 19 L 950.5, 29 L 948.9, 29 L 948.9, 36 L 950.5, 36 L 950.5, 38 L 978.5, 38 Z"/><path stroke="black" fill="white" fill-opacity="0.0" d="M 38, 74 L 39.6, 74 L 39.6, 67 L 38, 67 L 38, 57 L 39.6, 57 L 39.6, 50 L 38, 50 L 38, 48 L 10, 48 L 10, 50 L 8.4, 50 L 8.4, 57 L 10, 57 L 10, 67 L 8.4, 67 L 8.4, 74 L 10, 74 L 10, 76 L 38, 76 Z"/><path stroke="black" fill="white" fill-opacity="0.0" d="M 76, 74 L 77.6, 74 L 77.6, 67 L 76, 67 L 76, 57 L 77.6, 57 L 77.6, 50 L 76, 50 L 76, 48 L 48, 48 L 48, 50 L 46.4, 50 L 46.4, 57 L 48, 57 L 48, 67 L 46.4, 67 L 46.4, 74 L 48, 74 L 48, 76 L 76, 76 Z"/><path stroke="black" fill="white" fill-opacity="0.0" d="M 114, 74 L 115.6, 74 L 115.6, 67 L 114, 67 L 114, 57 L 115.6, 57 L 115.6, 50 L 114, 50 L 114, 48 L 86, 48 L 86, 50 L 84.4, 50 L 84.4, 57 L 86, 57 L 86, 67 L 84.4, 67 L 84.4, 74 L 86, 74 L 86, 76 L 114, 76 Z"/><path stroke="black" fill="white" fill-opacity="0.0" d="M 171, 74 L 172.6, 74 L 172.6, 67 L 171, 67 L 171, 57 L 172.6, 57 L 172.6, 50 L 171, 50 L 171, 48 L 143, 48 L 143, 50 L 141.4, 50 L 141.4, 57 L 143, 57 L 143, 67 L 141.4, 67 L 141.4, 74 L 143, 74 L 143, 76 L 171, 76 Z"/><path stroke="black" fill="white" fill-opacity="0.0" d="M 218.5, 74 L 220.1, 74 L 220.1, 67 L 218.5, 67 L 218.5, 57 L 220.1, 57 L 220.1, 50 L 218.5, 50 L 218.5, 48 L 190.5, 48 L 190.5, 50 L 188.9, 50 L 188.9, 57 L 190.5, 57 L 190.5, 67 L 188.9, 67 L 188.9, 74 L 190.5, 74 L 190.5, 76 L 218.5, 76 Z"/><path stroke="black" fill="white" fill-opacity="0.0" d="M 256.5, 74 L 258.1, 74 L 258.1, 67 L 256.5, 67 L 256.5, 57 L 258.1, 57 L 258.1, 50 L 256.5, 50 L 256.5, 48 L 228.5, 48 L 228.5, 50 L 226.9, 50 L 226.9, 57 L 228.5, 57 L 228.5, 67 L 226.9, 67 L 226.9, 74 L 228.5, 74 L 228.5, 76 L 256.5, 76 Z"/><path stroke="black" fill="white" fill-opacity="0.0" d="M 294.5, 74 L 296.1, 74 L 296.1, 67 L 294.5, 67 L 294.5, 57 L 296.1, 57 L 296.1, 50 L 294.5, 50 L 294.5, 48 L 266.5, 48 L 266.5, 50 L 264.9, 50 L 264.9, 57 L 266.5, 57 L 266.5, 67 L 264.9, 67 L 264.9, 74 L 266.5, 74 L 266.5, 76 L 294.5, 76 Z"/><path stroke="black" fill="white" fill-opacity="0.0" d="M 332.5, 74 L 334.1, 74 L 334.1, 67 L 332.5, 67 L 332.5, 57 L 334.1, 57 L 334.1, 50 L 332.5, 50 L 332.5, 48 L 304.5, 48 L 304.5, 50 L 302.9, 50 L 302.9, 57 L 304.5, 57 L 304.5, 67 L 302.9, 67 L 302.9, 74 L 304.5, 74 L 304.5, 76 L 332.5, 76 Z"/><path stroke="black" fill="white" fill-opacity="0.0" d="M 370.5, 74 L 372.1, 74 L 372.1, 67 L 370.5, 67 L 370.5, 57 L 372.1, 57 L 372.1, 50 L 370.5, 50 L 370.5, 48 L 342.5, 48 L 342.5, 50 L 340.9, 50 L 340.9, 57 L 342.5, 57 L 342.5, 67 L 340.9, 67 L 340.9, 74 L 342.5, 74 L 342.5, 76 L 370.5, 76 Z"/><path stroke="black" fill="white" fill-opacity="0.0" d="M 408.5, 74 L 410.1, 74 L 410.1, 67 L 408.5, 67 L 408.5, 57 L 410.1, 57 L 410.1, 50 L 408.5, 50 L 408.5, 48 L 380.5, 48 L 380.5, 50 L 378.9, 50 L 378.9, 57 L 380.5, 57 L 380.5, 67 L 378.9, 67 L 378.9, 74 L 380.5, 74 L 380.5, 76 L 408.5, 76 Z"/><path stroke="black" fill="white" fill-opacity="0.0" d="M 446.5, 74 L 448.1, 74 L 448.1, 67 L 446.5, 67 L 446.5, 57 L 448.1, 57 L 448.1, 50 L 446.5, 50 L 446.5, 48 L 418.5, 48 L 418.5, 50 L 416.9, 50 L 416.9, 57 L 418.5, 57 L 418.5, 67 L 416.9, 67 L 416.9, 74 L 418.5, 74 L 418.5, 76 L 446.5, 76 Z"/><path stroke="black" fill="white" fill-opacity="0.0" d="M 484.5, 74 L 486.1, 74 L 486.1, 67 L 484.5, 67 L 484.5, 57 L 486.1, 57 L 486.1, 50 L 484.5, 50 L 484.5, 48 L 456.5, 48 L 456.5, 50 L 454.9, 50 L 454.9, 57 L 456.5, 57 L 456.5, 67 L 454.9, 67 L 454.9, 74 L 456.5, 74 L 456.5, 76 L 484.5, 76 Z"/><path stroke="black" fill="white" fill-opacity="0.0" d="M 522.5, 74 L 524.1, 74 L 524.1, 67 L 522.5, 67 L 522.5, 57 L 524.1, 57 L 524.1, 50 L 522.5, 50 L 522.5, 48 L 494.5, 48 L 494.5, 50 L 492.9, 50 L 492.9, 57 L 494.5, 57 L 494.5, 67 L 492.9, 67 L 492.9, 74 L 494.5, 74 L 494.5, 76 L 522.5, 76 Z"/><path stroke="black" fill="white" fill-opacity="0.0" d="M 560.5, 74 L 562.1, 74 L 562.1, 67 L 560.5, 67 L 560.5, 57 L 562.1, 57 L 562.1, 50 L 560.5, 50 L 560.5, 48 L 532.5, 48 L 532.5, 50 L 530.9, 50 L 530.9, 57 L 532.5, 57 L 532.5, 67 L 530.9, 67 L 530.9, 74 L 532.5, 74 L 532.5, 76 L 560.5, 76 Z"/><path stroke="black" fill="white" fill-opacity="0.0" d="M 598.5, 74 L 600.1, 74 L 600.1, 67 L 598.5, 67 L 598.5, 57 L 600.1, 57 L 600.1, 50 L 598.5, 50 L 598.5, 48 L 570.5, 48 L 570.5, 50 L 568.9, 50 L 568.9, 57 L 570.5, 57 L 570.5, 67 L 568.9, 67 L 568.9, 74 L 570.5, 74 L 570.5, 76 L 598.5, 76 Z"/><path stroke="black" fill="white" fill-opacity="0.0" d="M 636.5, 74 L 638.1, 74 L 638.1, 67 L 636.5, 67 L 636.5, 57 L 638.1, 57 L 638.1, 50 L 636.5, 50 L 636.5, 48 L 608.5, 48 L 608.5, 50 L 606.9, 50 L 606.9, 57 L 608.5, 57 L 608.5, 67 L 606.9, 67 L 606.9, 74 L 608.5, 74 L 608.5, 76 L 636.5, 76 Z"/><path stroke="black" fill="white" fill-opacity="0.0" d="M 684, 74 L 685.6, 74 L 685.6, 67 L 684, 67 L 684, 57 L 685.6, 57 L 685.6, 50 L 684, 50 L 684, 48 L 656, 48 L 656, 50 L 654.4, 50 L 654.4, 57 L 656, 57 L 656, 67 L 654.4, 67 L 654.4, 74 L 656, 74 L 656, 76 L 684, 76 Z"/><path stroke="black" fill="white" fill-opacity="0.0" d="M 741, 74 L 742.6, 74 L 742.6, 67 L 741, 67 L 741, 57 L 742.6, 57 L 742.6, 50 L 741, 50 L 741, 48 L 713, 48 L 713, 50 L 711.4, 50 L 711.4, 57 L 713, 57 L 713, 67 L 711.4, 67 L 711.4, 74 L 713, 74 L 713, 76 L 741, 76 Z"/><path stroke="black" fill="white" fill-opacity="0.0" d="M 779, 74 L 780.6, 74 L 780.6, 67 L 779, 67 L 779, 57 L 780.6, 57 L 780.6, 50 L 779, 50 L 779, 48 L 751, 48 L 751, 50 L 749.4, 50 L 749.4, 57 L 751, 57 L 751, 67 L 749.4, 67 L 749.4, 74 L 751, 74 L 751, 76 L 779, 76 Z"/><path stroke="black" fill="white" fill-opacity="0.0" d="M 817, 74 L 818.6, 74 L 818.6, 67 L 817, 67 L 817, 57 L 818.6, 57 L 818.6, 50 L 817, 50 L 817, 48 L 789, 48 L 789, 50 L 787.4, 50 L 787.4, 57 L 789, 57 L 789, 67 L 787.4, 67 L 787.4, 74 L 789, 74 L 789, 76 L 817, 76 Z"/><path stroke="black" fill="white" fill-opacity="0.0" d="M 864.5, 74 L 866.1, 74 L 866.1, 67 L 864.5, 67 L 864.5, 57 L 866.1, 57 L 866.1, 50 L 864.5, 50 L 864.5, 48 L 836.5, 48 L 836.5, 50 L 834.9, 50 L 834.9, 57 L 836.5, 57 L 836.5, 67 L 834.9, 67 L 834.9, 74 L 836.5, 74 L 836.5, 76 L 864.5, 76 Z"/><path stroke="black" fill="white" fill-opacity="0.0" d="M 902.5, 74 L 904.1, 74 L 904.1, 67 L 902.5, 67 L 902.5, 57 L 904.1, 57 L 904.1, 50 L 902.5, 50 L 902.5, 48 L 874.5, 48 L 874.5, 50 L 872.9, 50 L 872.9, 57 L 874.5, 57 L 874.5, 67 L 872.9, 67 L 872.9, 74 L 874.5, 74 L 874.5, 76 L 902.5, 76 Z"/><path stroke="black" fill="white" fill-opacity="0.0" d="M 940.5, 74 L 942.1, 74 L 942.1, 67 L 940.5, 67 L 940.5, 57 L 942.1, 57 L 942.1, 50 L 940.5, 50 L 940.5, 48 L 912.5, 48 L 912.5, 50 L 910.9, 50 L 910.9, 57 L 912.5, 57 L 912.5, 67 L 910.9, 67 L 910.9, 74 L 912.5, 74 L 912.5, 76 L 940.5, 76 Z"/><path stroke="black" fill="white" fill-opacity="0.0" d="M 950.96, 60.5 L 950.96, 63.85000000000002 L 952.56, 63.85000000000002 L 952.56, 65.39999999999998 L 952.5, 65.39999999999998 L 952.5, 67 L 950.5, 67 L 950.5, 95 L 952.5, 95 L 952.5, 96.60000000000002 L 952.5600000000001, 96.60000000000002 L 952.5600000000001, 98.14999999999998 L 950.96, 98.14999999999998 L 950.96, 101.5 L 948.976, 101.5 L 948.976, 108.10000000000002 L 950.96, 108.10000000000002 L 950.96, 111.45000000000005 L 963.5, 111.45000000000005 L 963.5, 113.20000000000005 L 969.1, 113.20000000000005 L 969.1, 111.45000000000005 L 975.5600000000001, 111.45000000000005 L 975.5600000000001, 108.10000000000002 L 976.976, 108.10000000000002 L 976.976, 101.5 L 975.5600000000001, 101.5 L 975.5600000000001, 98.14999999999998 L 973.96, 98.14999999999998 L 973.96, 96.60000000000002 L 976.5, 96.60000000000002 L 976.5, 95 L 978.5, 95 L 978.5, 67 L 976.5, 67 L 976.5, 65.39999999999998 L 973.96, 65.39999999999998 L 973.96, 63.85000000000002 L 975.56, 63.85000000000002 L 975.56, 60.5 L 976.976, 60.5 L 976.976, 53.89999999999998 L 975.56, 53.89999999999998 L 975.56, 50.549999999999955 L 969.1, 50.549999999999955 L 969.1, 48.799999999999955 L 963.5, 48.799999999999955 L 963.5, 50.549999999999955 L 950.96, 50.549999999999955 L 950.96, 53.89999999999998 L 948.976, 53.89999999999998 L 948.976, 60.5 Z"/><path stroke="black" fill="white" fill-opacity="0.0" d="M 38, 112 L 39.6, 112 L 39.6, 105 L 38, 105 L 38, 95 L 39.6, 95 L 39.6, 88 L 38, 88 L 38, 86 L 10, 86 L 10, 88 L 8.4, 88 L 8.4, 95 L 10, 95 L 10, 105 L 8.4, 105 L 8.4, 112 L 10, 112 L 10, 114 L 38, 114 Z"/><path stroke="black" fill="white" fill-opacity="0.0" d="M 76, 112 L 77.6, 112 L 77.6, 105 L 76, 105 L 76, 95 L 77.6, 95 L 77.6, 88 L 76, 88 L 76, 86 L 48, 86 L 48, 88 L 46.4, 88 L 46.4, 95 L 48, 95 L 48, 105 L 46.4, 105 L 46.4, 112 L 48, 112 L 48, 114 L 76, 114 Z"/><path stroke="black" fill="white" fill-opacity="0.0" d="M 114, 112 L 115.6, 112 L 115.6, 105 L 114, 105 L 114, 95 L 115.6, 95 L 115.6, 88 L 114, 88 L 114, 86 L 86, 86 L 86, 88 L 84.4, 88 L 84.4, 95 L 86, 95 L 86, 105 L 84.4, 105 L 84.4, 112 L 86, 112 L 86, 114 L 114, 114 Z"/><path stroke="black" fill="white" fill-opacity="0.0" d="M 175.75, 112 L 177.35, 112 L 177.35, 105 L 175.75, 105 L 175.75, 95 L 177.35, 95 L 177.35, 88 L 175.75, 88 L 175.75, 86 L 147.75, 86 L 147.75, 88 L 146.15, 88 L 146.15, 95 L 147.75, 95 L 147.75, 105 L 146.15, 105 L 146.15, 112 L 147.75, 112 L 147.75, 114 L 175.75, 114 Z"/><path stroke="black" fill="white" fill-opacity="0.0" d="M 228, 112 L 229.6, 112 L 229.6, 105 L 228, 105 L 228, 95 L 229.6, 95 L 229.6, 88 L 228, 88 L 228, 86 L 200, 86 L 200, 88 L 198.4, 88 L 198.4, 95 L 200, 95 L 200, 105 L 198.4, 105 L 198.4, 112 L 200, 112 L 200, 114 L 228, 114 Z"/><path stroke="black" fill="white" fill-opacity="0.0" d="M 266, 112 L 267.6, 112 L 267.6, 105 L 266, 105 L 266, 95 L 267.6, 95 L 267.6, 88 L 266, 88 L 266, 86 L 238, 86 L 238, 88 L 236.4, 88 L 236.4, 95 L 238, 95 L 238, 105 L 236.4, 105 L 236.4, 112 L 238, 112 L 238, 114 L 266, 114 Z"/><path stroke="black" fill="white" fill-opacity="0.0" d="M 304, 112 L 305.6, 112 L 305.6, 105 L 304, 105 L 304, 95 L 305.6, 95 L 305.6, 88 L 304, 88 L 304, 86 L 276, 86 L 276, 88 L 274.4, 88 L 274.4, 95 L 276, 95 L 276, 105 L 274.4, 105 L 274.4, 112 L 276, 112 L 276, 114 L 304, 114 Z"/><path stroke="black" fill="white" fill-opacity="0.0" d="M 342, 112 L 343.6, 112 L 343.6, 105 L 342, 105 L 342, 95 L 343.6, 95 L 343.6, 88 L 342, 88 L 342, 86 L 314, 86 L 314, 88 L 312.4, 88 L 312.4, 95 L 314, 95 L 314, 105 L 312.4, 105 L 312.4, 112 L 314, 112 L 314, 114 L 342, 114 Z"/><path stroke="black" fill="white" fill-opacity="0.0" d="M 380, 112 L 381.6, 112 L 381.6, 105 L 380, 105 L 380, 95 L 381.6, 95 L 381.6, 88 L 380, 88 L 380, 86 L 352, 86 L 352, 88 L 350.4, 88 L 350.4, 95 L 352, 95 L 352, 105 L 350.4, 105 L 350.4, 112 L 352, 112 L 352, 114 L 380, 114 Z"/><path stroke="black" fill="white" fill-opacity="0.0" d="M 418, 112 L 419.6, 112 L 419.6, 105 L 418, 105 L 418, 95 L 419.6, 95 L 419.6, 88 L 418, 88 L 418, 86 L 390, 86 L 390, 88 L 388.4, 88 L 388.4, 95 L 390, 95 L 390, 105 L 388.4, 105 L 388.4, 112 L 390, 112 L 390, 114 L 418, 114 Z"/><path stroke="black" fill="white" fill-opacity="0.0" d="M 456, 112 L 457.6, 112 L 457.6, 105 L 456, 105 L 456, 95 L 457.6, 95 L 457.6, 88 L 456, 88 L 456, 86 L 428, 86 L 428, 88 L 426.4, 88 L 426.4, 95 L 428, 95 L 428, 105 L 426.4, 105 L 426.4, 112 L 428, 112 L 428, 114 L 456, 114 Z"/><path stroke="black" fill="white" fill-opacity="0.0" d="M 494, 112 L 495.6, 112 L 495.6, 105 L 494, 105 L 494, 95 L 495.6, 95 L 495.6, 88 L 494, 88 L 494, 86 L 466, 86 L 466, 88 L 464.4, 88 L 464.4, 95 L 466, 95 L 466, 105 L 464.4, 105 L 464.4, 112 L 466, 112 L 466, 114 L 494, 114 Z"/><path stroke="black" fill="white" fill-opacity="0.0" d="M 532, 112 L 533.6, 112 L 533.6, 105 L 532, 105 L 532, 95 L 533.6, 95 L 533.6, 88 L 532, 88 L 532, 86 L 504, 86 L 504, 88 L 502.4, 88 L 502.4, 95 L 504, 95 L 504, 105 L 502.4, 105 L 502.4, 112 L 504, 112 L 504, 114 L 532, 114 Z"/><path stroke="black" fill="white" fill-opacity="0.0" d="M 570, 112 L 571.6, 112 L 571.6, 105 L 570, 105 L 570, 95 L 571.6, 95 L 571.6, 88 L 570, 88 L 570, 86 L 542, 86 L 542, 88 L 540.4, 88 L 540.4, 95 L 542, 95 L 542, 105 L 540.4, 105 L 540.4, 112 L 542, 112 L 542, 114 L 570, 114 Z"/><path stroke="black" fill="white" fill-opacity="0.0" d="M 608, 112 L 609.6, 112 L 609.6, 105 L 608, 105 L 608, 95 L 609.6, 95 L 609.6, 88 L 608, 88 L 608, 86 L 580, 86 L 580, 88 L 578.4, 88 L 578.4, 95 L 580, 95 L 580, 105 L 578.4, 105 L 578.4, 112 L 580, 112 L 580, 114 L 608, 114 Z"/><path stroke="black" fill="white" fill-opacity="0.0" d="M 635.25, 113.54 L 638.6, 113.54 L 638.6, 111.94 L 640.15, 111.94 L 640.15, 112 L 641.75, 112 L 641.75, 114 L 669.75, 114 L 669.75, 112 L 671.35, 112 L 671.35, 111.94 L 672.9, 111.94 L 672.9, 113.54 L 676.25, 113.54 L 676.25, 115.524 L 682.85, 115.524 L 682.85, 113.54 L 686.2, 113.54 L 686.2, 101 L 687.95, 101 L 687.95, 95.4 L 686.2, 95.4 L 686.2, 88.94 L 682.85, 88.94 L 682.85, 87.524 L 676.25, 87.524 L 676.25, 88.94 L 672.9, 88.94 L 672.9, 90.54 L 671.35, 90.54 L 671.35, 88 L 669.75, 88 L 669.75, 86 L 641.75, 86 L 641.75, 88 L 640.15, 88 L 640.15, 90.54 L 638.6, 90.54 L 638.6, 88.94 L 635.25, 88.94 L 635.25, 87.524 L 628.65, 87.524 L 628.65, 88.94 L 625.3, 88.94 L 625.3, 95.4 L 623.55, 95.4 L 623.55, 101 L 625.3, 101 L 625.3, 113.54 L 628.65, 113.54 L 628.65, 115.524 L 635.25, 115.524 Z"/><path stroke="black" fill="white" fill-opacity="0.0" d="M 864.5, 112 L 866.1, 112 L 866.1, 105 L 864.5, 105 L 864.5, 95 L 866.1, 95 L 866.1, 88 L 864.5, 88 L 864.5, 86 L 836.5, 86 L 836.5, 88 L 834.9, 88 L 834.9, 95 L 836.5, 95 L 836.5, 105 L 834.9, 105 L 834.9, 112 L 836.5, 112 L 836.5, 114 L 864.5, 114 Z"/><path stroke="black" fill="white" fill-opacity="0.0" d="M 902.5, 112 L 904.1, 112 L 904.1, 105 L 902.5, 105 L 902.5, 95 L 904.1, 95 L 904.1, 88 L 902.5, 88 L 902.5, 86 L 874.5, 86 L 874.5, 88 L 872.9, 88 L 872.9, 95 L 874.5, 95 L 874.5, 105 L 872.9, 105 L 872.9, 112 L 874.5, 112 L 874.5, 114 L 902.5, 114 Z"/><path stroke="black" fill="white" fill-opacity="0.0" d="M 940.5, 112 L 942.1, 112 L 942.1, 105 L 940.5, 105 L 940.5, 95 L 942.1, 95 L 942.1, 88 L 940.5, 88 L 940.5, 86 L 912.5, 86 L 912.5, 88 L 910.9, 88 L 910.9, 95 L 912.5, 95 L 912.5, 105 L 910.9, 105 L 910.9, 112 L 912.5, 112 L 912.5, 114 L 940.5, 114 Z"/><path stroke="black" fill="white" fill-opacity="0.0" d="M 38, 150 L 39.6, 150 L 39.6, 143 L 38, 143 L 38, 133 L 39.6, 133 L 39.6, 126 L 38, 126 L 38, 124 L 10, 124 L 10, 126 L 8.4, 126 L 8.4, 133 L 10, 133 L 10, 143 L 8.4, 143 L 8.4, 150 L 10, 150 L 10, 152 L 38, 152 Z"/><path stroke="black" fill="white" fill-opacity="0.0" d="M 76, 150 L 77.6, 150 L 77.6, 143 L 76, 143 L 76, 133 L 77.6, 133 L 77.6, 126 L 76, 126 L 76, 124 L 48, 124 L 48, 126 L 46.4, 126 L 46.4, 133 L 48, 133 L 48, 143 L 46.4, 143 L 46.4, 150 L 48, 150 L 48, 152 L 76, 152 Z"/><path stroke="black" fill="white" fill-opacity="0.0" d="M 114, 150 L 115.6, 150 L 115.6, 143 L 114, 143 L 114, 133 L 115.6, 133 L 115.6, 126 L 114, 126 L 114, 124 L 86, 124 L 86, 126 L 84.4, 126 L 84.4, 133 L 86, 133 L 86, 143 L 84.4, 143 L 84.4, 150 L 86, 150 L 86, 152 L 114, 152 Z"/><path stroke="black" fill="white" fill-opacity="0.0" d="M 150.75, 151.54 L 154.1, 151.54 L 154.1, 149.94 L 155.65, 149.94 L 155.65, 150 L 157.25, 150 L 157.25, 152 L 185.25, 152 L 185.25, 150 L 186.85, 150 L 186.85, 149.94 L 188.4, 149.94 L 188.4, 151.54 L 191.75, 151.54 L 191.75, 153.524 L 198.35, 153.524 L 198.35, 151.54 L 201.7, 151.54 L 201.7, 139 L 203.45, 139 L 203.45, 133.4 L 201.7, 133.4 L 201.7, 126.94 L 198.35, 126.94 L 198.35, 125.524 L 191.75, 125.524 L 191.75, 126.94 L 188.4, 126.94 L 188.4, 128.54 L 186.85, 128.54 L 186.85, 126 L 185.25, 126 L 185.25, 124 L 157.25, 124 L 157.25, 126 L 155.65, 126 L 155.65, 128.54 L 154.1, 128.54 L 154.1, 126.94 L 150.75, 126.94 L 150.75, 125.524 L 144.15, 125.524 L 144.15, 126.94 L 140.8, 126.94 L 140.8, 133.4 L 139.05, 133.4 L 139.05, 139 L 140.8, 139 L 140.8, 151.54 L 144.15, 151.54 L 144.15, 153.524 L 150.75, 153.524 Z"/><path stroke="black" fill="white" fill-opacity="0.0" d="M 247, 150 L 248.6, 150 L 248.6, 143 L 247, 143 L 247, 133 L 248.6, 133 L 248.6, 126 L 247, 126 L 247, 124 L 219, 124 L 219, 126 L 217.4, 126 L 217.4, 133 L 219, 133 L 219, 143 L 217.4, 143 L 217.4, 150 L 219, 150 L 219, 152 L 247, 152 Z"/><path stroke="black" fill="white" fill-opacity="0.0" d="M 285, 150 L 286.6, 150 L 286.6, 143 L 285, 143 L 285, 133 L 286.6, 133 L 286.6, 126 L 285, 126 L 285, 124 L 257, 124 L 257, 126 L 255.4, 126 L 255.4, 133 L 257, 133 L 257, 143 L 255.4, 143 L 255.4, 150 L 257, 150 L 257, 152 L 285, 152 Z"/><path stroke="black" fill="white" fill-opacity="0.0" d="M 323, 150 L 324.6, 150 L 324.6, 143 L 323, 143 L 323, 133 L 324.6, 133 L 324.6, 126 L 323, 126 L 323, 124 L 295, 124 L 295, 126 L 293.4, 126 L 293.4, 133 L 295, 133 L 295, 143 L 293.4, 143 L 293.4, 150 L 295, 150 L 295, 152 L 323, 152 Z"/><path stroke="black" fill="white" fill-opacity="0.0" d="M 361, 150 L 362.6, 150 L 362.6, 143 L 361, 143 L 361, 133 L 362.6, 133 L 362.6, 126 L 361, 126 L 361, 124 L 333, 124 L 333, 126 L 331.4, 126 L 331.4, 133 L 333, 133 L 333, 143 L 331.4, 143 L 331.4, 150 L 333, 150 L 333, 152 L 361, 152 Z"/><path stroke="black" fill="white" fill-opacity="0.0" d="M 399, 150 L 400.6, 150 L 400.6, 143 L 399, 143 L 399, 133 L 400.6, 133 L 400.6, 126 L 399, 126 L 399, 124 L 371, 124 L 371, 126 L 369.4, 126 L 369.4, 133 L 371, 133 L 371, 143 L 369.4, 143 L 369.4, 150 L 371, 150 L 371, 152 L 399, 152 Z"/><path stroke="black" fill="white" fill-opacity="0.0" d="M 437, 150 L 438.6, 150 L 438.6, 143 L 437, 143 L 437, 133 L 438.6, 133 L 438.6, 126 L 437, 126 L 437, 124 L 409, 124 L 409, 126 L 407.4, 126 L 407.4, 133 L 409, 133 L 409, 143 L 407.4, 143 L 407.4, 150 L 409, 150 L 409, 152 L 437, 152 Z"/><path stroke="black" fill="white" fill-opacity="0.0" d="M 475, 150 L 476.6, 150 L 476.6, 143 L 475, 143 L 475, 133 L 476.6, 133 L 476.6, 126 L 475, 126 L 475, 124 L 447, 124 L 447, 126 L 445.4, 126 L 445.4, 133 L 447, 133 L 447, 143 L 445.4, 143 L 445.4, 150 L 447, 150 L 447, 152 L 475, 152 Z"/><path stroke="black" fill="white" fill-opacity="0.0" d="M 513, 150 L 514.6, 150 L 514.6, 143 L 513, 143 L 513, 133 L 514.6, 133 L 514.6, 126 L 513, 126 L 513, 124 L 485, 124 L 485, 126 L 483.4, 126 L 483.4, 133 L 485, 133 L 485, 143 L 483.4, 143 L 483.4, 150 L 485, 150 L 485, 152 L 513, 152 Z"/><path stroke="black" fill="white" fill-opacity="0.0" d="M 551, 150 L 552.6, 150 L 552.6, 143 L 551, 143 L 551, 133 L 552.6, 133 L 552.6, 126 L 551, 126 L 551, 124 L 523, 124 L 523, 126 L 521.4, 126 L 521.4, 133 L 523, 133 L 523, 143 L 521.4, 143 L 521.4, 150 L 523, 150 L 523, 152 L 551, 152 Z"/><path stroke="black" fill="white" fill-opacity="0.0" d="M 589, 150 L 590.6, 150 L 590.6, 143 L 589, 143 L 589, 133 L 590.6, 133 L 590.6, 126 L 589, 126 L 589, 124 L 561, 124 L 561, 126 L 559.4, 126 L 559.4, 133 L 561, 133 L 561, 143 L 559.4, 143 L 559.4, 150 L 561, 150 L 561, 152 L 589, 152 Z"/><path stroke="black" fill="white" fill-opacity="0.0" d="M 625.75, 151.54 L 629.1, 151.54 L 629.1, 149.94 L 630.65, 149.94 L 630.65, 150 L 632.25, 150 L 632.25, 152 L 660.25, 152 L 660.25, 150 L 661.85, 150 L 661.85, 149.94 L 663.4, 149.94 L 663.4, 151.54 L 666.75, 151.54 L 666.75, 153.524 L 673.35, 153.524 L 673.35, 151.54 L 676.7, 151.54 L 676.7, 139 L 678.45, 139 L 678.45, 133.4 L 676.7, 133.4 L 676.7, 126.94 L 673.35, 126.94 L 673.35, 125.524 L 666.75, 125.524 L 666.75, 126.94 L 663.4, 126.94 L 663.4, 128.54 L 661.85, 128.54 L 661.85, 126 L 660.25, 126 L 660.25, 124 L 632.25, 124 L 632.25, 126 L 630.65, 126 L 630.65, 128.54 L 629.1, 128.54 L 629.1, 126.94 L 625.75, 126.94 L 625.75, 125.524 L 619.15, 125.524 L 619.15, 126.94 L 615.8, 126.94 L 615.8, 133.4 L 614.05, 133.4 L 614.05, 139 L 615.8, 139 L 615.8, 151.54 L 619.15, 151.54 L 619.15, 153.524 L 625.75, 153.524 Z"/><path stroke="black" fill="white" fill-opacity="0.0" d="M 779, 150 L 780.6, 150 L 780.6, 143 L 779, 143 L 779, 133 L 780.6, 133 L 780.6, 126 L 779, 126 L 779, 124 L 751, 124 L 751, 126 L 749.4, 126 L 749.4, 133 L 751, 133 L 751, 143 L 749.4, 143 L 749.4, 150 L 751, 150 L 751, 152 L 779, 152 Z"/><path stroke="black" fill="white" fill-opacity="0.0" d="M 864.5, 150 L 866.1, 150 L 866.1, 143 L 864.5, 143 L 864.5, 133 L 866.1, 133 L 866.1, 126 L 864.5, 126 L 864.5, 124 L 836.5, 124 L 836.5, 126 L 834.9, 126 L 834.9, 133 L 836.5, 133 L 836.5, 143 L 834.9, 143 L 834.9, 150 L 836.5, 150 L 836.5, 152 L 864.5, 152 Z"/><path stroke="black" fill="white" fill-opacity="0.0" d="M 902.5, 150 L 904.1, 150 L 904.1, 143 L 902.5, 143 L 902.5, 133 L 904.1, 133 L 904.1, 126 L 902.5, 126 L 902.5, 124 L 874.5, 124 L 874.5, 126 L 872.9, 126 L 872.9, 133 L 874.5, 133 L 874.5, 143 L 872.9, 143 L 872.9, 150 L 874.5, 150 L 874.5, 152 L 902.5, 152 Z"/><path stroke="black" fill="white" fill-opacity="0.0" d="M 940.5, 150 L 942.1, 150 L 942.1, 143 L 940.5, 143 L 940.5, 133 L 942.1, 133 L 942.1, 126 L 940.5, 126 L 940.5, 124 L 912.5, 124 L 912.5, 126 L 910.9, 126 L 910.9, 133 L 912.5, 133 L 912.5, 143 L 910.9, 143 L 910.9, 150 L 912.5, 150 L 912.5, 152 L 940.5, 152 Z"/><path stroke="black" fill="white" fill-opacity="0.0" d="M 950.96, 136.5 L 950.96, 139.85000000000002 L 952.56, 139.85000000000002 L 952.56, 141.39999999999998 L 952.5, 141.39999999999998 L 952.5, 143 L 950.5, 143 L 950.5, 171 L 952.5, 171 L 952.5, 172.60000000000002 L 952.5600000000001, 172.60000000000002 L 952.5600000000001, 174.14999999999998 L 950.96, 174.14999999999998 L 950.96, 177.5 L 948.976, 177.5 L 948.976, 184.10000000000002 L 950.96, 184.10000000000002 L 950.96, 187.45000000000005 L 963.5, 187.45000000000005 L 963.5, 189.20000000000005 L 969.1, 189.20000000000005 L 969.1, 187.45000000000005 L 975.5600000000001, 187.45000000000005 L 975.5600000000001, 184.10000000000002 L 976.976, 184.10000000000002 L 976.976, 177.5 L 975.5600000000001, 177.5 L 975.5600000000001, 174.14999999999998 L 973.96, 174.14999999999998 L 973.96, 172.60000000000002 L 976.5, 172.60000000000002 L 976.5, 171 L 978.5, 171 L 978.5, 143 L 976.5, 143 L 976.5, 141.39999999999998 L 973.96, 141.39999999999998 L 973.96, 139.85000000000002 L 975.56, 139.85000000000002 L 975.56, 136.5 L 976.976, 136.5 L 976.976, 129.89999999999998 L 975.56, 129.89999999999998 L 975.56, 126.54999999999995 L 969.1, 126.54999999999995 L 969.1, 124.79999999999995 L 963.5, 124.79999999999995 L 963.5, 126.54999999999995 L 950.96, 126.54999999999995 L 950.96, 129.89999999999998 L 948.976, 129.89999999999998 L 948.976, 136.5 Z"/><path stroke="black" fill="white" fill-opacity="0.0" d="M 38, 188 L 39.6, 188 L 39.6, 181 L 38, 181 L 38, 171 L 39.6, 171 L 39.6, 164 L 38, 164 L 38, 162 L 10, 162 L 10, 164 L 8.4, 164 L 8.4, 171 L 10, 171 L 10, 181 L 8.4, 181 L 8.4, 188 L 10, 188 L 10, 190 L 38, 190 Z"/><path stroke="black" fill="white" fill-opacity="0.0" d="M 76, 188 L 77.6, 188 L 77.6, 181 L 76, 181 L 76, 171 L 77.6, 171 L 77.6, 164 L 76, 164 L 76, 162 L 48, 162 L 48, 164 L 46.4, 164 L 46.4, 171 L 48, 171 L 48, 181 L 46.4, 181 L 46.4, 188 L 48, 188 L 48, 190 L 76, 190 Z"/><path stroke="black" fill="white" fill-opacity="0.0" d="M 114, 188 L 115.6, 188 L 115.6, 181 L 114, 181 L 114, 171 L 115.6, 171 L 115.6, 164 L 114, 164 L 114, 162 L 86, 162 L 86, 164 L 84.4, 164 L 84.4, 171 L 86, 171 L 86, 181 L 84.4, 181 L 84.4, 188 L 86, 188 L 86, 190 L 114, 190 Z"/><path stroke="black" fill="white" fill-opacity="0.0" d="M 166.25, 188 L 167.85, 188 L 167.85, 181 L 166.25, 181 L 166.25, 171 L 167.85, 171 L 167.85, 164 L 166.25, 164 L 166.25, 162 L 138.25, 162 L 138.25, 164 L 136.65, 164 L 136.65, 171 L 138.25, 171 L 138.25, 181 L 136.65, 181 L 136.65, 188 L 138.25, 188 L 138.25, 190 L 166.25, 190 Z"/><path stroke="black" fill="white" fill-opacity="0.0" d="M 213.75, 188 L 215.35, 188 L 215.35, 181 L 213.75, 181 L 213.75, 171 L 215.35, 171 L 215.35, 164 L 213.75, 164 L 213.75, 162 L 185.75, 162 L 185.75, 164 L 184.15, 164 L 184.15, 171 L 185.75, 171 L 185.75, 181 L 184.15, 181 L 184.15, 188 L 185.75, 188 L 185.75, 190 L 213.75, 190 Z"/><path stroke="black" fill="white" fill-opacity="0.0" d="M 261.25, 188 L 262.85, 188 L 262.85, 181 L 261.25, 181 L 261.25, 171 L 262.85, 171 L 262.85, 164 L 261.25, 164 L 261.25, 162 L 233.25, 162 L 233.25, 164 L 231.65, 164 L 231.65, 171 L 233.25, 171 L 233.25, 181 L 231.65, 181 L 231.65, 188 L 233.25, 188 L 233.25, 190 L 261.25, 190 Z"/><path stroke="black" fill="white" fill-opacity="0.0" d="M 293.05, 189.54 L 296.4, 189.54 L 296.4, 180.6 L 375.75, 180.6 L 375.75, 181 L 374.15, 181 L 374.15, 188 L 375.75, 188 L 375.75, 190 L 403.75, 190 L 403.75, 188 L 405.35, 188 L 405.35, 181 L 403.75, 181 L 403.75, 180.6 L 483.1, 180.6 L 483.1, 189.54 L 486.45, 189.54 L 486.45, 191.524 L 493.05, 191.524 L 493.05, 189.54 L 496.4, 189.54 L 496.4, 177 L 498.2, 177 L 498.2, 171.4 L 496.4, 171.4 L 496.4, 164.94 L 493.05, 164.94 L 493.05, 163.524 L 486.45, 163.524 L 486.45, 164.94 L 483.1, 164.94 L 483.1, 171.4 L 403.75, 171.4 L 403.75, 171 L 405.35, 171 L 405.35, 164 L 403.75, 164 L 403.75, 162 L 375.75, 162 L 375.75, 164 L 374.15, 164 L 374.15, 171 L 375.75, 171 L 375.75, 171.4 L 296.4, 171.4 L 296.4, 164.94 L 293.05, 164.94 L 293.05, 163.524 L 286.45, 163.524 L 286.45, 164.94 L 283.1, 164.94 L 283.1, 171.4 L 281.3, 171.4 L 281.3, 177 L 283.1, 177 L 283.1, 189.54 L 286.45, 189.54 L 286.45, 191.524 L 293.05, 191.524 Z"/><path stroke="black" fill="white" fill-opacity="0.0" d="M 546.25, 188 L 547.85, 188 L 547.85, 181 L 546.25, 181 L 546.25, 171 L 547.85, 171 L 547.85, 164 L 546.25, 164 L 546.25, 162 L 518.25, 162 L 518.25, 164 L 516.65, 164 L 516.65, 171 L 518.25, 171 L 518.25, 181 L 516.65, 181 L 516.65, 188 L 518.25, 188 L 518.25, 190 L 546.25, 190 Z"/><path stroke="black" fill="white" fill-opacity="0.0" d="M 593.75, 188 L 595.35, 188 L 595.35, 181 L 593.75, 181 L 593.75, 171 L 595.35, 171 L 595.35, 164 L 593.75, 164 L 593.75, 162 L 565.75, 162 L 565.75, 164 L 564.15, 164 L 564.15, 171 L 565.75, 171 L 565.75, 181 L 564.15, 181 L 564.15, 188 L 565.75, 188 L 565.75, 190 L 593.75, 190 Z"/><path stroke="black" fill="white" fill-opacity="0.0" d="M 641.25, 188 L 642.85, 188 L 642.85, 181 L 641.25, 181 L 641.25, 171 L 642.85, 171 L 642.85, 164 L 641.25, 164 L 641.25, 162 L 613.25, 162 L 613.25, 164 L 611.65, 164 L 611.65, 171 L 613.25, 171 L 613.25, 181 L 611.65, 181 L 611.65, 188 L 613.25, 188 L 613.25, 190 L 641.25, 190 Z"/><path stroke="black" fill="white" fill-opacity="0.0" d="M 688.75, 188 L 690.35, 188 L 690.35, 181 L 688.75, 181 L 688.75, 171 L 690.35, 171 L 690.35, 164 L 688.75, 164 L 688.75, 162 L 660.75, 162 L 660.75, 164 L 659.15, 164 L 659.15, 171 L 660.75, 171 L 660.75, 181 L 659.15, 181 L 659.15, 188 L 660.75, 188 L 660.75, 190 L 688.75, 190 Z"/><path stroke="black" fill="white" fill-opacity="0.0" d="M 741, 188 L 742.6, 188 L 742.6, 181 L 741, 181 L 741, 171 L 742.6, 171 L 742.6, 164 L 741, 164 L 741, 162 L 713, 162 L 713, 164 L 711.4, 164 L 711.4, 171 L 713, 171 L 713, 181 L 711.4, 181 L 711.4, 188 L 713, 188 L 713, 190 L 741, 190 Z"/><path stroke="black" fill="white" fill-opacity="0.0" d="M 779, 188 L 780.6, 188 L 780.6, 181 L 779, 181 L 779, 171 L 780.6, 171 L 780.6, 164 L 779, 164 L 779, 162 L 751, 162 L 751, 164 L 749.4, 164 L 749.4, 171 L 751, 171 L 751, 181 L 749.4, 181 L 749.4, 188 L 751, 188 L 751, 190 L 779, 190 Z"/><path stroke="black" fill="white" fill-opacity="0.0" d="M 817, 188 L 818.6, 188 L 818.6, 181 L 817, 181 L 817, 171 L 818.6, 171 L 818.6, 164 L 817, 164 L 817, 162 L 789, 162 L 789, 164 L 787.4, 164 L 787.4, 171 L 789, 171 L 789, 181 L 787.4, 181 L 787.4, 188 L 789, 188 L 789, 190 L 817, 190 Z"/><path stroke="black" fill="white" fill-opacity="0.0" d="M 849, 189.54 L 852.35, 189.54 L 852.35, 187.94 L 853.9, 187.94 L 853.9, 188 L 855.5, 188 L 855.5, 190 L 883.5, 190 L 883.5, 188 L 885.1, 188 L 885.1, 187.94 L 886.65, 187.94 L 886.65, 189.54 L 890, 189.54 L 890, 191.524 L 896.6, 191.524 L 896.6, 189.54 L 899.95, 189.54 L 899.95, 177 L 901.7, 177 L 901.7, 171.4 L 899.95, 171.4 L 899.95, 164.94 L 896.6, 164.94 L 896.6, 163.524 L 890, 163.524 L 890, 164.94 L 886.65, 164.94 L 886.65, 166.54 L 885.1, 166.54 L 885.1, 164 L 883.5, 164 L 883.5, 162 L 855.5, 162 L 855.5, 164 L 853.9, 164 L 853.9, 166.54 L 852.35, 166.54 L 852.35, 164.94 L 849, 164.94 L 849, 163.524 L 842.4, 163.524 L 842.4, 164.94 L 839.05, 164.94 L 839.05, 171.4 L 837.3, 171.4 L 837.3, 177 L 839.05, 177 L 839.05, 189.54 L 842.4, 189.54 L 842.4, 191.524 L 849, 191.524 Z"/><path stroke="black" fill="white" fill-opacity="0.0" d="M 940.5, 188 L 942.1, 188 L 942.1, 181 L 940.5, 181 L 940.5, 171 L 942.1, 171 L 942.1, 164 L 940.5, 164 L 940.5, 162 L 912.5, 162 L 912.5, 164 L 910.9, 164 L 910.9, 171 L 912.5, 171 L 912.5, 181 L 910.9, 181 L 910.9, 188 L 912.5, 188 L 912.5, 190 L 940.5, 190 Z"/></svg>